<svg width="30" height="38" viewBox="0 0 30 38" fill="none" xmlns="http://www.w3.org/2000/svg">
<path d="M1.60281 0.125553C1.02644 0.330835 0.529026 0.765085 0.260581 1.30987L0.0395084 1.75991L0.0158221 15.4269C3.11714e-05 28.707 3.11732e-05 29.1018 0.150045 29.2834C0.355327 29.5361 0.829054 29.5361 1.03434 29.2834C1.17645 29.1097 1.18435 28.7149 1.18435 17.385V5.66815H10.9352H20.6861V7.20776C20.6861 8.84212 20.7256 9.06319 21.0572 9.2132C21.3256 9.33953 21.4283 9.32374 21.6652 9.13425L21.8704 8.97634V5.43918C21.8704 1.46778 21.8704 1.45988 21.302 0.812456C21.1283 0.61507 20.7967 0.354521 20.5756 0.23609L20.1729 0.022913L11.0931 0.00712204C2.52658 -0.0086689 1.98969 -0.0086689 1.60281 0.125553ZM20.0624 1.32566C20.623 1.61779 20.6861 1.81518 20.6861 3.23636V4.48384H10.9352H1.18435V3.29162C1.18435 1.89413 1.27909 1.6099 1.84757 1.32566C2.16338 1.16775 2.3055 1.16775 10.9589 1.16775C19.6439 1.16775 19.7466 1.16775 20.0624 1.32566Z" fill="#0D5FF9"/>
<path d="M10.6432 2.31259C10.3511 2.4705 10.2721 2.85738 10.4853 3.13372L10.6353 3.339L12.4197 3.36268C14.1251 3.37848 14.2199 3.37058 14.3699 3.22057C14.6068 2.9837 14.5831 2.56524 14.3225 2.35996C14.1251 2.20205 14.0146 2.19416 12.4829 2.19416C11.2196 2.20205 10.809 2.22574 10.6432 2.31259Z" fill="#0D5FF9"/>
<path d="M12.0563 7.23174C11.9063 7.39754 8.36914 16.2562 8.36914 16.4694C8.36914 16.8721 8.92182 17.1563 9.26922 16.9273C9.41134 16.8405 9.86928 15.7588 11.2431 12.3164C12.2221 9.84513 13.0275 7.72915 13.0275 7.61861C13.0275 7.16857 12.3563 6.90013 12.0563 7.23174Z" fill="#0D5FF9"/>
<path d="M6.67188 8.98398C6.58503 9.01556 5.89813 9.66299 5.15595 10.4209C4.01111 11.5737 3.79004 11.8342 3.79004 12.0316C3.79004 12.2211 4.01901 12.4975 5.19543 13.7055C6.70346 15.2609 6.79031 15.3161 7.21667 14.9766C7.36668 14.8582 7.42195 14.7477 7.42195 14.5266C7.42195 14.266 7.3272 14.1476 6.31659 13.137L5.21912 12.0237L6.31659 10.9105C7.31931 9.90774 7.42195 9.77352 7.42195 9.52087C7.42195 9.11031 7.03507 8.83396 6.67188 8.98398Z" fill="#0D5FF9"/>
<path d="M14.7885 8.98432C14.5753 9.07117 14.449 9.30013 14.449 9.58437C14.449 9.75807 14.6779 10.0265 15.5543 10.9187L16.6676 12.032L15.5543 13.1847C14.3542 14.4401 14.2753 14.5822 14.6464 14.9454C15.0332 15.3401 15.1438 15.2691 16.6755 13.7374C17.9309 12.482 18.0809 12.3083 18.0809 12.0714C18.0809 11.8425 17.9309 11.653 16.8018 10.4687C15.657 9.26855 15.2306 8.89747 15.0253 8.91326C14.9938 8.91326 14.8832 8.94484 14.7885 8.98432Z" fill="#0D5FF9"/>
<path d="M19.5886 13.5557C19.5097 13.6347 19.4228 13.8636 19.3991 14.0847C19.3754 14.2979 19.3281 14.669 19.3044 14.9137L19.2491 15.348L18.7517 15.569L18.2543 15.7822L17.5595 15.3085C17.1489 15.0164 16.7857 14.8269 16.6673 14.8269C16.5094 14.8269 16.233 15.0558 15.4672 15.8296C14.9145 16.3902 14.4487 16.9034 14.425 16.9823C14.3539 17.1876 14.4645 17.4166 14.954 18.0245C15.1987 18.3246 15.3961 18.6088 15.3961 18.6562C15.3961 18.7114 15.1198 19.4615 15.0329 19.6273C15.0329 19.6352 14.6697 19.7063 14.2276 19.7852C13.0591 19.9984 13.1064 19.9115 13.1064 21.6959C13.1064 23.4961 13.0512 23.4092 14.2276 23.5592C14.6776 23.6145 15.0408 23.6619 15.0487 23.6619C15.0566 23.6698 15.1514 23.8987 15.2698 24.1751L15.483 24.6804L15.0408 25.2962C14.5829 25.9437 14.4803 26.1647 14.5592 26.4095C14.5829 26.4963 15.0487 26.9938 15.5777 27.5227C16.7778 28.7071 16.7541 28.6992 17.7016 27.9728L18.3727 27.4596L18.8385 27.6649C19.0912 27.7754 19.3281 27.9017 19.3518 27.9491C19.3833 27.9886 19.4465 28.3518 19.5018 28.7465C19.636 29.6387 19.7781 29.8282 20.3308 29.8282H20.6861V30.4993V31.1704H10.5167H0.339504L0.1737 31.352C0 31.5336 0 31.581 0 33.7996C0 35.8682 0.0157909 36.0972 0.157909 36.4841C0.371086 37.0604 0.78165 37.5105 1.32644 37.7789L1.77648 38H10.9352H20.0939L20.5124 37.8105C20.7571 37.7 21.0651 37.471 21.2703 37.242C21.8625 36.5788 21.8704 36.5393 21.8704 32.9706V29.8282H22.3362C23.0468 29.8282 23.1258 29.7335 23.26 28.6834C23.3232 28.2097 23.3784 27.8228 23.3942 27.8149C23.8285 27.6175 24.3496 27.4517 24.4364 27.4833C24.4917 27.507 24.7838 27.7043 25.0838 27.9175C25.376 28.1307 25.6997 28.336 25.7944 28.3597C26.0787 28.4465 26.3787 28.2254 27.3104 27.2543C28.392 26.1095 28.3841 26.1174 27.6815 25.2173L27.1682 24.562L27.3735 24.0488L27.5709 23.5434L28.3605 23.4171C29.5527 23.2197 29.529 23.2671 29.529 21.5301C29.529 19.7536 29.5685 19.8168 28.3841 19.651L27.5393 19.5247L27.3419 19.0273L27.1446 18.5298L27.6262 17.8114C28.021 17.235 28.1078 17.0455 28.0683 16.8876C28.0052 16.627 26.1734 14.7716 25.9208 14.7084C25.6839 14.6532 25.5102 14.7479 24.8549 15.269C24.5627 15.5059 24.2943 15.6954 24.2548 15.6954C24.2153 15.6954 23.9785 15.6085 23.7179 15.5059L23.2521 15.3164L23.1179 14.5111C23.0389 14.0215 22.9284 13.6426 22.8494 13.5557C22.7231 13.4215 22.581 13.4057 21.223 13.4057C19.8807 13.4057 19.7228 13.4215 19.5886 13.5557ZM22.0204 15.198C22.1783 16.2086 22.2257 16.2717 22.9363 16.4928C23.11 16.5402 23.4574 16.6902 23.7021 16.8086C23.9548 16.935 24.2469 17.0376 24.3496 17.0376C24.468 17.0376 24.7759 16.8481 25.1549 16.556L25.7629 16.0744L26.2366 16.5481L26.7182 17.0297L26.2682 17.685C26.0234 18.0482 25.8181 18.4035 25.8181 18.4825C25.8181 18.5614 25.9208 18.822 26.0471 19.0746C26.1734 19.3194 26.3392 19.7299 26.4182 19.9905C26.4971 20.2431 26.6314 20.4958 26.7261 20.559C26.813 20.6142 27.2156 20.7011 27.6183 20.7564L28.3447 20.8511V21.538V22.2249L27.6262 22.3275C27.2314 22.3828 26.8445 22.4855 26.7577 22.5565C26.6708 22.6276 26.4971 22.975 26.3787 23.3382C26.2524 23.6935 26.0945 24.0724 26.0234 24.183C25.7944 24.5383 25.8576 24.8225 26.3313 25.4226C26.5682 25.7226 26.7656 25.9989 26.7656 26.0305C26.7656 26.0621 26.5524 26.2911 26.2997 26.5437L25.8339 27.0095L25.2181 26.5595C24.8786 26.3147 24.5233 26.1174 24.4206 26.1174C24.3259 26.1174 24.0022 26.2358 23.71 26.3858C23.4179 26.5358 23.0231 26.6937 22.8415 26.7411C22.3441 26.8753 22.2099 27.0964 22.1467 27.9333L22.0915 28.6439H21.3967H20.7019L20.6545 28.4228C20.6308 28.3044 20.5755 27.9807 20.5203 27.6964C20.4729 27.4201 20.4018 27.128 20.3703 27.0569C20.3308 26.9859 20.0308 26.8358 19.7149 26.7253C19.3912 26.6069 18.9412 26.4253 18.7122 26.3226C18.2148 26.0937 18.1043 26.1174 17.4647 26.6385C17.22 26.8437 16.9673 27.0253 16.9121 27.049C16.8015 27.0885 15.9488 26.299 15.9488 26.1568C15.9488 26.1095 16.1067 25.8489 16.3041 25.5805C16.8647 24.8067 16.8726 24.783 16.5094 23.9935C16.3436 23.6224 16.162 23.1803 16.1146 23.0223C16.0593 22.8644 15.9646 22.6907 15.9093 22.6434C15.8462 22.5881 15.4593 22.5091 15.0645 22.4539L14.3302 22.367L14.3066 21.6801L14.2829 21.0011L14.5039 20.9537C14.6224 20.9301 14.954 20.8748 15.2382 20.8274C15.5225 20.7721 15.8146 20.6774 15.8856 20.6142C15.9567 20.5511 16.0988 20.2589 16.1936 19.9668C16.2883 19.6826 16.4462 19.2957 16.5489 19.1141C16.841 18.6088 16.8015 18.4193 16.2646 17.7482L15.7909 17.156L16.2725 16.6744L16.7541 16.1849L17.3463 16.6112C17.67 16.8402 18.0095 17.0534 18.0885 17.0771C18.1832 17.1087 18.4201 17.0376 18.6964 16.8955C18.9412 16.7692 19.3833 16.5876 19.6834 16.4928C19.9755 16.3902 20.2439 16.2481 20.2913 16.177C20.3466 16.0665 20.5282 14.9137 20.5282 14.6532C20.5282 14.6137 20.844 14.59 21.2309 14.59H21.9257L22.0204 15.198ZM20.6861 34.2023C20.6861 35.9788 20.6782 36.0498 20.5124 36.3025C20.4097 36.4446 20.2045 36.6262 20.0544 36.7051C19.7939 36.8473 19.3912 36.8552 10.9826 36.8552C2.34495 36.8552 2.17914 36.8552 1.85543 36.6973C1.65015 36.5946 1.46855 36.4288 1.35802 36.2314C1.19221 35.9393 1.18432 35.8288 1.18432 34.1391V32.3548H10.9352H20.6861V34.2023Z" fill="#0D5FF9"/>
<path d="M20.3937 18.5769C19.5489 18.8374 18.704 19.6112 18.3882 20.4165C18.2461 20.7718 18.2066 21.0245 18.1987 21.6166C18.1987 22.3035 18.2224 22.4141 18.4514 22.8957C19.4146 24.9327 21.9886 25.367 23.5676 23.7642C25.202 22.1062 24.444 19.2401 22.1938 18.5848C21.6806 18.4348 20.8516 18.4269 20.3937 18.5769ZM22.3281 19.9349C22.7702 20.2034 23.1729 20.8192 23.2518 21.3403C23.3229 21.8456 23.1176 22.493 22.7623 22.8878C22.486 23.1957 22.1307 23.4326 21.9491 23.4326C21.9017 23.4326 21.8701 22.9983 21.8701 22.1772V20.9139L21.6648 20.756C21.3806 20.535 21.1911 20.5508 20.9148 20.8192L20.6858 21.0482V22.2404C20.6858 22.8957 20.6621 23.4326 20.6305 23.4326C20.6068 23.4326 20.4331 23.3457 20.2515 23.2431C19.2093 22.6273 19.0514 21.0324 19.9515 20.1797C20.5753 19.5875 21.5938 19.477 22.3281 19.9349Z" fill="#0D5FF9"/>
<path d="M7.83208 34.4315C7.51626 34.771 7.68206 35.2763 8.1479 35.3948C8.25054 35.4184 9.58487 35.4342 11.1166 35.4184L13.9116 35.3948L14.0616 35.2053C14.259 34.9684 14.2511 34.6052 14.0537 34.4078C13.9037 34.2578 13.7931 34.2499 10.9508 34.2499H7.99788L7.83208 34.4315Z" fill="#0D5FF9"/>
</svg>
