<svg width="72" height="61" viewBox="0 0 72 61" fill="none" xmlns="http://www.w3.org/2000/svg">
<path d="M12.3656 1.09173L11.9891 1.39291L11.9439 4.55519L11.8988 7.73254L9.11294 7.77771C5.46878 7.83795 5.73983 7.55184 5.73983 11.3767V14.2228H3.55634C1.19216 14.2228 0.7404 14.3282 0.484406 14.9606C0.363937 15.2317 0.318762 21.1949 0.348879 35.1089L0.394054 54.8657L0.710283 55.197C0.996395 55.4831 1.5385 55.5584 5.83018 56.0252C18.8106 57.4256 28.5083 58.8863 31.7911 59.9404C32.9958 60.3319 33.2367 60.3621 35.8569 60.3621C38.4469 60.3621 38.7331 60.3319 39.8474 59.9705C43.2205 58.8713 52.6923 57.4407 65.9438 56.0252C70.2054 55.5735 70.7023 55.4831 70.9884 55.197L71.3197 54.8657L71.3649 34.9885L71.395 15.1112L70.9583 14.6595L70.5216 14.2228H68.2478H65.9739V11.452C65.9739 9.93108 65.9287 8.56075 65.8836 8.42523C65.6577 7.86806 65.0403 7.7476 62.3599 7.7476H59.7999V4.81119C59.7999 0.368927 59.7397 0.323746 56.0504 1.42302C52.9483 2.37171 50.6444 3.27522 47.5272 4.81119C43.2054 6.93444 40.2389 8.96734 37.3025 11.8134L35.8268 13.259L34.8931 12.2953C30.752 7.95842 24.2468 4.19379 16.597 1.70913C13.7359 0.790558 12.8926 0.655037 12.3656 1.09173ZM16.597 4.26908C22.003 6.10622 27.0476 8.77158 30.6015 11.6327C31.2189 12.1296 32.3934 13.2289 33.1915 14.0571L34.6522 15.5931V34.9282C34.6522 45.5746 34.607 54.2784 34.5618 54.2784C34.5167 54.2784 33.9294 53.8417 33.2518 53.3297C29.7732 50.6192 26.1291 48.3303 22.6807 46.6588C19.94 45.3337 18.2384 44.7163 16.0549 44.2645L14.3985 43.9332L14.3533 23.7247C14.3382 12.6266 14.3382 3.53121 14.3684 3.53121C14.4135 3.53121 15.4074 3.8625 16.597 4.26908ZM57.3454 23.7397L57.2852 43.9332L55.6438 44.2645C51.0509 45.2132 45.2383 48.2249 39.1246 52.8328C38.0705 53.6309 37.167 54.2784 37.1218 54.2784C37.0917 54.2784 37.0616 45.5746 37.0616 34.9282V15.5931L38.462 14.1324C42.3471 10.0666 47.723 6.85915 54.9059 4.34437C56.1558 3.90768 57.2099 3.54627 57.2852 3.54627C57.3454 3.53121 57.3755 12.6266 57.3454 23.7397ZM11.9289 20.728C11.9439 26.5557 11.959 34.5518 11.9741 38.5121L11.9891 45.7252L12.3204 45.9812C12.5463 46.1619 13.1486 46.3125 14.2178 46.4329C17.094 46.7492 20.1659 47.8936 23.8854 49.9867C26.7314 51.598 32.6946 55.6789 32.4988 55.8897C32.4687 55.9198 32.1073 55.7993 31.7158 55.6337C30.0744 54.9259 23.4185 52.5467 20.7381 51.7034C16.1603 50.2729 11.3567 49.1736 8.75153 48.9778L8.22449 48.9326L8.17931 29.5373L8.14919 10.157H10.0315H11.9138L11.9289 20.728ZM63.5344 29.5373L63.4893 48.9326L62.2846 49.0531C58.1284 49.4597 50.7498 51.5378 42.8591 54.5495C38.7331 56.1156 39.0041 56.0252 39.5462 55.5584C40.4196 54.8055 43.9282 52.3359 45.7654 51.2065C50.5088 48.255 54.4993 46.6588 57.8724 46.3727C58.6705 46.2974 59.1524 46.1769 59.3783 45.9962L59.7246 45.7252V37.0816C59.7246 32.3382 59.7397 24.3421 59.7698 19.2975L59.7999 10.157H61.6822H63.5646L63.5344 29.5373ZM5.73983 33.5579C5.73983 50.4385 5.73983 50.4686 6.05606 50.8752C6.31205 51.1914 6.49276 51.2667 7.06498 51.2667C10.3327 51.2667 15.814 52.5467 22.9065 54.9561C26.1592 56.0704 27.2133 56.477 26.37 56.3264C24.8792 56.0403 24.0359 55.9047 21.7772 55.5735C17.9071 55.0012 12.6517 54.3537 7.62215 53.8116C5.13749 53.5556 3.01424 53.3147 2.92389 53.2846C2.7733 53.2394 2.72813 49.4446 2.72813 34.9282V16.6321H4.23398H5.73983V33.5579ZM68.9856 34.9282C68.9856 49.4446 68.9405 53.2394 68.8049 53.2846C68.6995 53.3147 66.8774 53.5255 64.7692 53.7514C59.6493 54.2784 52.105 55.2271 48.5964 55.7843C47.0303 56.0403 45.6449 56.236 45.5094 56.221C45.163 56.221 48.5512 55.0163 51.8942 53.9622C56.9238 52.381 60.7185 51.5378 63.7302 51.3269C65.0704 51.2366 65.3264 51.1764 65.6276 50.8752L65.9739 50.5288V33.573V16.6321H67.4798H68.9856V34.9282Z" fill="white"/>
</svg>
