<svg width="45" height="45" viewBox="0 0 45 45" fill="none" xmlns="http://www.w3.org/2000/svg">
<g clip-path="url(#clip0_2797_63)">
<path d="M22.0782 0.175784C21.8058 0.430666 21.7794 0.694338 21.8146 3.14649L21.8409 5.37891L22.087 5.58984C22.3946 5.85352 22.6056 5.85352 22.9132 5.58984L23.1593 5.37891L23.1857 3.14649C23.2032 1.92481 23.1944 0.791018 23.1593 0.641604C23.0538 0.0615258 22.4737 -0.184568 22.0782 0.175784Z" fill="#0D5FF9"/>
<path d="M7.03125 6.41601C6.92578 6.52148 6.85547 6.70605 6.85547 6.88184C6.85547 7.13672 7.04883 7.35644 8.60449 8.91211C10.1338 10.4414 10.3887 10.6611 10.6348 10.6611C10.9951 10.6611 11.2764 10.3799 11.2764 10.0195C11.2764 9.77344 11.0654 9.52734 9.52734 7.98926C7.97168 6.44238 7.73438 6.24023 7.48828 6.24023C7.32129 6.24023 7.13672 6.31055 7.03125 6.41601Z" fill="#0D5FF9"/>
<path d="M35.4727 7.98926C33.9346 9.52734 33.7236 9.77344 33.7236 10.0195C33.7236 10.3799 34.0049 10.6611 34.3652 10.6611C34.6113 10.6611 34.8662 10.4414 36.3955 8.91211C37.9512 7.35644 38.1445 7.13672 38.1445 6.88184C38.1445 6.50391 37.8809 6.24023 37.5117 6.24023C37.2656 6.24023 37.0283 6.44238 35.4727 7.98926Z" fill="#0D5FF9"/>
<path d="M21.0674 7.3916C20.2413 7.47949 18.7823 7.82226 18.0176 8.1123C15.0469 9.22851 12.3311 11.6455 10.9337 14.4316C10.5821 15.126 10.5733 15.2754 10.8194 15.5918C11.0391 15.8643 11.5049 15.9082 11.7071 15.6621C11.7774 15.583 12.0235 15.1699 12.252 14.7568C13.6495 12.2344 15.9786 10.2568 18.7032 9.28125C21.0323 8.44629 23.959 8.44629 26.2969 9.28125C29.1622 10.3008 31.5088 12.3662 32.8975 15.0908C33.8028 16.875 34.1895 18.501 34.1895 20.5752C34.1895 22.5264 33.8116 24.1875 32.9766 25.8838C32.4405 26.9648 31.7813 27.8877 30.6124 29.1885C29.2588 30.7002 28.7754 31.4648 28.4678 32.5635L28.3272 33.0908H22.5879H16.8575L16.6553 32.5107C16.2862 31.4033 15.794 30.709 14.0274 28.7666C12.7266 27.334 11.9532 26.0244 11.3819 24.3193C10.9073 22.8867 10.7754 21.8672 10.8458 20.1445C10.8721 19.3359 10.9249 18.4922 10.9512 18.2637C10.9952 17.9209 10.9688 17.8242 10.8106 17.666C10.5557 17.4111 10.0547 17.4551 9.83502 17.7539C9.46588 18.2637 9.3692 21.1465 9.65924 22.8691C10.0811 25.3125 11.171 27.5625 12.8233 29.4082C14.5811 31.3682 14.7921 31.6318 15.1172 32.2734C15.3018 32.6514 15.4776 33.126 15.5128 33.3281C15.5391 33.5391 15.5919 34.875 15.627 36.2988L15.6885 38.9004L15.9786 39.4805C16.1631 39.8672 16.4356 40.2187 16.7784 40.5352L17.2881 41.0098L17.3321 41.7568C17.4024 43.0928 18.0792 44.1299 19.2481 44.6836L19.8194 44.9561H22.6319H25.4444L26.0157 44.6836C27.1846 44.1299 27.8614 43.0928 27.9317 41.7568L27.9756 41.0098L28.4854 40.5352C28.8282 40.2187 29.1006 39.8672 29.2852 39.4805L29.5753 38.9004L29.6192 35.9473C29.6631 33.1611 29.6807 32.9766 29.8653 32.5107C30.1202 31.8691 30.7706 30.9551 31.5704 30.085C33.7764 27.7207 34.8663 25.6113 35.3497 22.8076C35.4991 21.9111 35.5167 21.5156 35.4815 20.127C35.4112 17.8418 35.0948 16.5586 34.1016 14.5459C31.6934 9.68554 26.4815 6.82031 21.0674 7.3916ZM28.3008 35.5518V36.6504H27.378C26.5694 36.6504 26.4288 36.6768 26.2794 36.8262C26.0157 37.0898 26.042 37.5557 26.3321 37.7842C26.5342 37.9424 26.6924 37.9687 27.4307 37.9687H28.3008V38.2061C28.292 38.5312 27.9932 39.1816 27.7032 39.4893C27.5713 39.6299 27.3077 39.832 27.1143 39.9287C26.7715 40.1221 26.6924 40.1221 22.6319 40.1221C18.5713 40.1221 18.4922 40.1221 18.1495 39.9287C17.9561 39.832 17.6924 39.6299 17.5606 39.4893C17.2706 39.1816 16.9717 38.5312 16.9629 38.2061V37.9687H20.3819H23.8096L24.0294 37.7754C24.3458 37.4854 24.3721 37.1162 24.0821 36.8262C23.9151 36.6592 23.792 36.6504 20.4346 36.6504H16.9629V35.5518V34.4531H22.6319H28.3008V35.5518ZM26.6309 41.8096C26.6221 42.5303 25.9717 43.3564 25.2335 43.5762C24.7764 43.7168 20.4874 43.7168 20.0303 43.5762C19.2921 43.3564 18.6417 42.5303 18.6329 41.8096V41.4844H22.6319H26.6309V41.8096Z" fill="#0D5FF9"/>
<path d="M26.8769 16.4268C26.2969 16.6201 25.9629 16.9717 23.8183 19.7315C22.5967 21.3047 21.5683 22.5879 21.5332 22.5879C21.498 22.5879 20.9619 22.0254 20.3467 21.3311C18.914 19.7403 18.6943 19.5381 18.1142 19.3711C16.3564 18.8438 14.8096 20.6895 15.6445 22.3243C15.7324 22.4912 16.4619 23.3614 17.2705 24.2578C20.751 28.1075 20.6719 28.0371 21.665 28.0371C22.289 28.0371 22.7812 27.835 23.168 27.4131C23.748 26.7891 26.0156 23.792 26.0683 23.5811C26.1914 23.0977 25.4355 22.6407 25.04 22.9571C24.9609 23.0186 24.2842 23.8711 23.5283 24.8379C22.7724 25.8135 22.0957 26.6309 22.0166 26.666C21.8056 26.7452 21.4541 26.7276 21.2871 26.6397C21.0674 26.5166 16.8398 21.8145 16.7607 21.6035C16.6025 21.1641 17.0596 20.5664 17.5605 20.5664C17.8242 20.5664 18.0879 20.8125 19.6875 22.5879C21.2256 24.2842 21.4365 24.46 21.8408 24.2754C21.9463 24.2227 23.1152 22.7989 24.4248 21.1026C25.7431 19.4063 26.9209 17.9473 27.0439 17.8418C27.6504 17.3672 28.4853 18.0352 28.1777 18.7471C28.1162 18.9053 27.7646 19.4063 27.4043 19.8633C26.6396 20.8301 26.5693 20.9883 26.7627 21.3487C26.9209 21.6563 27.2461 21.7793 27.5449 21.6387C27.7646 21.542 29.1445 19.8369 29.3818 19.3799C29.8652 18.4395 29.4785 17.209 28.5205 16.6465C28.0898 16.4004 27.2988 16.295 26.8769 16.4268Z" fill="#0D5FF9"/>
<path d="M0.791001 21.4629C0.421861 21.8584 0.659165 22.4385 1.24803 22.5439C1.40624 22.5703 2.54002 22.5879 3.7617 22.5703L5.99413 22.5439L6.20506 22.2979C6.45995 21.999 6.46874 21.8057 6.23143 21.4981L6.05565 21.2695H3.51561C1.01073 21.2695 0.966783 21.2695 0.791001 21.4629Z" fill="#0D5FF9"/>
<path d="M38.7685 21.4981C38.5312 21.8057 38.54 21.999 38.7949 22.2979L39.0059 22.5439L41.2383 22.5703C42.46 22.5879 43.5937 22.5703 43.7519 22.5439C44.3232 22.4385 44.5693 21.8496 44.209 21.4629C44.0332 21.2695 43.9893 21.2695 41.4844 21.2695H38.9443L38.7685 21.4981Z" fill="#0D5FF9"/>
<path d="M10.415 33.1348C10.3184 33.1699 9.47461 33.9697 8.55176 34.9102C7.05762 36.4131 6.85547 36.6504 6.85547 36.8965C6.85547 37.2656 7.12793 37.5293 7.49707 37.5293C7.75195 37.5293 7.97168 37.3359 9.52734 35.7803C11.0566 34.251 11.2764 33.9961 11.2764 33.75C11.2764 33.3105 10.8018 32.9678 10.415 33.1348Z" fill="#0D5FF9"/>
<path d="M34.1455 33.1348C33.873 33.2402 33.7236 33.4688 33.7236 33.7588C33.7236 33.9873 33.9697 34.2773 35.4727 35.7803C37.0283 37.3359 37.248 37.5293 37.5029 37.5293C37.8809 37.5293 38.1445 37.2656 38.1445 36.8965C38.1445 36.6504 37.9424 36.4131 36.4131 34.8838C35.4551 33.9258 34.5938 33.126 34.4971 33.1084C34.4004 33.082 34.2422 33.0908 34.1455 33.1348Z" fill="#0D5FF9"/>
</g>
<defs>
<clipPath id="clip0_2797_63">
<rect width="45" height="45" fill="white"/>
</clipPath>
</defs>
</svg>
