<svg width="90" height="90" viewBox="0 0 90 90" fill="none" xmlns="http://www.w3.org/2000/svg">
<g clip-path="url(#clip0_2833_430)">
<path d="M42.7148 0.123039C38.496 0.527336 35.2265 1.49413 31.6581 3.35741C23.3964 7.68163 17.8593 15.4512 16.4355 24.6973C16.0136 27.3164 16.1542 32.3613 16.6816 34.8047C17.8945 40.2891 19.9687 44.2441 24.1523 49.0078C27.5097 52.8223 29.2675 56.1797 30.2519 60.6094C30.6035 62.1738 30.6386 62.9648 30.7441 70.6641C30.8496 78.75 30.8671 79.0312 31.2363 79.8398C31.7285 80.9121 33.0117 82.1602 34.0136 82.5469L34.8046 82.8457V83.8828C34.8046 86.1152 35.7011 87.9258 37.3183 88.998C38.7246 89.9297 39.3398 90 44.9999 90C50.6601 90 51.2753 89.9297 52.6816 88.998C54.2988 87.9258 55.1953 86.1152 55.1953 83.8828V82.8457L55.9511 82.5469C57.0234 82.1426 58.0078 81.2461 58.623 80.1387L59.1503 79.1895L59.2558 71.0156C59.3613 62.1035 59.414 61.5762 60.5039 58.1836C61.5585 54.8965 63.2109 52.1367 66.164 48.6914C70.5937 43.541 72.7031 39.1289 73.6699 32.959C73.9511 31.166 73.9511 26.7012 73.6699 24.873C72.1757 15.0644 66.0585 6.83788 57.1816 2.70702C52.7871 0.667961 47.2675 -0.333992 42.7148 0.123039ZM47.8124 3.6914C53.6835 4.39452 58.5 6.69726 62.7187 10.793C70.875 18.7031 72.7558 30.8496 67.3945 40.9394C66.375 42.8555 65.4609 44.1211 63.2285 46.7227C60.9785 49.3418 59.8535 51.0117 58.623 53.5254C57.1289 56.584 56.25 59.6074 55.9335 62.7539L55.8105 64.0723L53.5781 64.125L51.3281 64.1777V53.1211V42.0644L52.6992 41.9414C55.8457 41.6602 57.8496 39.709 57.8671 36.8613C57.8671 35.4375 57.5859 34.5059 56.7949 33.4687C54.6503 30.6211 50.1503 30.9726 48.4277 34.1191C47.9882 34.9277 47.9003 35.3144 47.8124 36.7383L47.7246 38.4082H44.9999H42.2753L42.1874 36.7383C42.0996 35.3144 42.0117 34.9277 41.5722 34.1191C40.2187 31.6758 37.0722 30.7793 34.4706 32.1152C30.7441 34.0137 30.9023 39.6738 34.7167 41.4141C35.3144 41.6953 36.123 41.8711 37.1425 41.9414L38.6718 42.0644V53.1035V64.1602H36.4921H34.33L34.207 63.6152C34.1542 63.3164 34.1015 62.8242 34.1015 62.543C34.1015 61.6113 33.3984 58.4824 32.748 56.6016C31.5351 52.998 29.7421 50.0449 26.7187 46.582C23.0976 42.4687 21.2695 39.041 20.1796 34.3652C19.6523 32.0801 19.5292 27.4043 19.9511 24.9258C20.9179 19.1601 23.9062 13.7988 28.3886 9.84374C33.6269 5.2207 41.0449 2.8828 47.8124 3.6914ZM38.1269 35.4375C38.6542 35.8769 38.6718 35.9473 38.6718 37.2129V38.5488L37.4238 38.4609C35.9121 38.3379 35.3144 37.8984 35.2792 36.8613C35.2265 35.209 36.8789 34.3828 38.1269 35.4375ZM53.4902 35.1738C54.4394 35.6133 54.6855 37.1602 53.9121 37.916C53.5957 38.25 53.2441 38.373 52.4003 38.4434L51.3281 38.5488V37.248C51.3456 35.9297 51.4863 35.5605 52.1191 35.1914C52.5761 34.9277 52.9628 34.9277 53.4902 35.1738ZM47.8124 53.0859V64.1602H44.9999H42.1874V53.0859V42.0117H44.9999H47.8124V53.0859ZM55.7226 72.8613C55.7226 78.75 55.6875 78.9434 54.5273 79.2773C54.0878 79.418 50.9414 79.4531 44.6132 79.418L35.332 79.3652L34.8574 78.873L34.3652 78.3984L34.3124 73.0371L34.2597 67.6758H44.9999H55.7226V72.8613ZM51.6796 83.8652C51.6796 85.0254 51.2753 85.8516 50.5371 86.2031C49.6757 86.625 40.3242 86.625 39.4628 86.2031C38.7246 85.8516 38.3203 85.0254 38.3203 83.8652V82.9687H44.9999H51.6796V83.8652Z" fill="white" fill-opacity="0.28"/>
<path d="M43.8398 8.92969C42.9433 9.65039 42.873 10.8457 43.664 11.584C44.0156 11.918 44.4023 12.0059 46.0019 12.1465C50.3613 12.5156 53.5605 13.9219 56.5839 16.7871C58.1484 18.2637 59.1152 19.5996 60.1699 21.709C60.9609 23.3086 61.4003 23.7305 62.2265 23.7305C63.123 23.7305 63.9843 22.8691 63.9843 21.9727C63.9843 21.4277 62.8945 19.1426 61.9277 17.7012C60.8203 16.0312 58.289 13.4297 56.707 12.3398C53.2617 9.94922 49.1835 8.61328 45.3867 8.61328C44.5429 8.61328 44.1035 8.70117 43.8398 8.92969Z" fill="white" fill-opacity="0.28"/>
<path d="M62.3846 27.756C61.8397 28.3185 61.7166 29.004 62.0682 29.7599C62.6483 31.0431 64.828 30.8497 65.1795 29.4786C65.3729 28.7052 65.2498 28.213 64.7401 27.6857C64.0897 27.0529 63.0701 27.0704 62.3846 27.756Z" fill="white" fill-opacity="0.28"/>
<path d="M8.75391 8.54297C8.13867 8.85938 7.91016 9.29883 7.91016 10.125C7.91016 10.7227 8.08594 10.9512 9.98438 12.8672C11.9883 14.8711 12.0938 14.9414 12.8145 14.9414C13.834 14.9414 14.5898 14.2207 14.5898 13.2539C14.5898 12.6387 14.4316 12.4277 12.4277 10.4238C10.1074 8.10352 9.82617 7.94531 8.75391 8.54297Z" fill="white" fill-opacity="0.28"/>
<path d="M77.5723 10.4238C75.5684 12.4277 75.4102 12.6387 75.4102 13.2539C75.4102 14.2207 76.166 14.9414 77.1855 14.9414C77.9062 14.9414 78.0117 14.8711 80.0156 12.8672C81.9141 10.9512 82.0898 10.7227 82.0898 10.125C82.0898 9.28125 81.8613 8.85938 81.2109 8.52539C80.1387 7.98047 79.8926 8.10352 77.5723 10.4238Z" fill="white" fill-opacity="0.28"/>
<path d="M0.650297 27.668C-0.211031 28.459 -0.158297 29.6191 0.773344 30.3047C1.19522 30.6211 1.56436 30.6738 3.48038 30.7266C4.69327 30.7617 6.0292 30.7441 6.4335 30.6738C8.03311 30.4453 8.64834 28.8457 7.57608 27.7559L7.06631 27.2461H4.07803C1.17764 27.2461 1.08975 27.2637 0.650297 27.668Z" fill="white" fill-opacity="0.28"/>
<path d="M82.4238 27.7559C81.3516 28.8457 81.9668 30.4453 83.5664 30.6738C83.9707 30.7441 85.3066 30.7617 86.5195 30.7266C88.4356 30.6738 88.8047 30.6211 89.2266 30.3047C90.1582 29.6191 90.2109 28.459 89.3496 27.668C88.9102 27.2637 88.8223 27.2461 85.9219 27.2461H82.9336L82.4238 27.7559Z" fill="white" fill-opacity="0.28"/>
<path d="M11.953 43.1719C11.2323 43.6465 8.43739 46.459 8.15614 46.9687C7.50575 48.2168 8.27919 49.5703 9.66786 49.5703C10.3534 49.5703 10.494 49.4648 12.2518 47.7598C14.2382 45.8437 14.5897 45.334 14.5897 44.4727C14.5897 43.2598 12.9901 42.4863 11.953 43.1719Z" fill="white" fill-opacity="0.28"/>
<path d="M75.9549 43.4004C75.3397 43.9805 75.2342 44.6836 75.6561 45.4922C75.7967 45.7559 76.7284 46.7754 77.7479 47.7598C79.5057 49.4648 79.6464 49.5703 80.3319 49.5703C81.7206 49.5703 82.494 48.2168 81.8436 46.9688C81.5624 46.459 78.7674 43.6465 78.0467 43.1719C77.3788 42.7324 76.5878 42.8203 75.9549 43.4004Z" fill="white" fill-opacity="0.28"/>
</g>
<defs>
<clipPath id="clip0_2833_430">
<rect width="90" height="90" fill="white"/>
</clipPath>
</defs>
</svg>
