<svg width="30" height="23" viewBox="0 0 30 23" fill="none" xmlns="http://www.w3.org/2000/svg">
<path d="M14.4034 0.199276C14.1864 0.22859 13.8053 0.32826 13.5532 0.422066C12.9199 0.656582 0.828812 6.44324 0.588399 6.62499C0.295211 6.84778 0.0606604 7.20541 0.0137504 7.50442C-0.0800697 8.14934 0.301074 8.63595 1.3155 9.14603L1.98397 9.48607V12.2182V14.9503L1.70251 15.132C1.09268 15.5248 0.799494 16.2811 0.987134 16.9612C1.08095 17.3071 1.38001 17.7175 1.66147 17.8876C1.8022 17.9755 1.92533 18.0693 1.92533 18.0986C1.92533 18.1397 0.500442 22.7069 0.41835 22.9179C0.394895 22.9883 0.752584 23 2.57035 23C4.51712 23 4.7458 22.9883 4.71648 22.9121C4.62266 22.6658 3.21536 18.1514 3.21536 18.0928C3.21536 18.0576 3.29159 17.999 3.38541 17.9638C3.94833 17.7234 4.34707 16.7912 4.15943 16.1111C4.05974 15.7242 3.77242 15.3314 3.44991 15.132L3.15672 14.9503V12.5289C3.15672 11.1922 3.17431 10.1017 3.19777 10.1017C3.22122 10.1017 3.63169 10.2893 4.10665 10.5238L4.97449 10.9401V14.5809C4.97449 18.1866 4.97449 18.2218 5.09763 18.427C5.29113 18.7436 6.58702 19.9982 7.1734 20.4321C8.93252 21.7395 10.9731 22.5661 13.1837 22.8652C14.075 22.9824 15.8693 22.9824 16.7606 22.8652C19.0006 22.5603 20.9825 21.7571 22.771 20.4379C23.4101 19.963 24.7295 18.6556 24.8702 18.3566C24.9582 18.1631 24.9699 17.8348 24.9699 14.5633V10.9752L27.1102 9.92579C28.2888 9.35123 29.356 8.79425 29.485 8.69458C29.8134 8.43662 30.0362 7.95 29.9951 7.60995C29.9424 7.24645 29.7665 6.92986 29.4909 6.69534C29.139 6.39047 16.9366 0.45138 16.3795 0.310671C15.8518 0.175825 14.937 0.123058 14.4034 0.199276ZM16.1684 1.3953C16.3443 1.44807 18.7836 2.61478 21.5924 3.98669C24.4011 5.35861 27.1805 6.71879 27.761 7.00021C28.3474 7.28749 28.8458 7.56305 28.8634 7.61582C28.8869 7.67444 28.8576 7.76239 28.7989 7.83274C28.6934 7.95 24.5594 10.0137 24.2897 10.0782C24.2135 10.0958 24.1255 10.1486 24.0903 10.1896C24.0552 10.2307 22.2843 11.1101 20.144 12.142C17.2649 13.5373 16.1743 14.0357 15.9163 14.0826C15.4237 14.1705 14.6849 14.1588 14.2451 14.0591C13.9988 14.0005 12.4449 13.2852 9.75931 11.9954C7.4959 10.9108 5.39668 9.9082 5.09176 9.76163C4.78685 9.61506 4.56402 9.48607 4.59334 9.48021C4.62853 9.46848 7.01508 9.1812 9.90004 8.84116C15.5468 8.17865 15.3709 8.20796 15.4941 7.85033C15.5703 7.65099 15.4882 7.42234 15.283 7.26991L15.1247 7.15265L9.03807 7.86792C5.68987 8.26073 2.88699 8.58319 2.8049 8.58905C2.60553 8.60078 1.19237 7.90896 1.13959 7.77411C1.11027 7.6979 1.13959 7.63927 1.23928 7.56305C1.38587 7.45165 13.0606 1.81743 13.6822 1.55946C14.2451 1.32495 14.679 1.24873 15.2947 1.27805C15.5996 1.28977 15.9925 1.3484 16.1684 1.3953ZM9.6479 13.1269C11.5771 14.0474 13.2776 14.8506 13.43 14.9092C13.5766 14.9737 13.9226 15.0675 14.1864 15.1203C14.808 15.2434 15.9104 15.2024 16.4381 15.0382C16.6316 14.9796 18.3614 14.1588 20.2848 13.2207C22.2022 12.2768 23.7913 11.5088 23.8147 11.5088C23.8382 11.5088 23.8558 12.9569 23.8558 14.7275V17.9462L23.4395 18.3918C22.1494 19.7696 20.2848 20.8894 18.3497 21.4463C16.3209 22.0268 13.8815 22.0561 11.8937 21.5226C10.721 21.2118 9.34885 20.5962 8.39892 19.963C7.74804 19.5233 6.73361 18.6615 6.37006 18.2335L6.0886 17.9052V14.6806C6.0886 12.9041 6.10033 11.4501 6.11792 11.4501C6.12965 11.4501 7.71873 12.2064 9.6479 13.1269Z" fill="#0D5FF9"/>
</svg>
