<svg width="17" height="19" viewBox="0 0 17 19" fill="none" xmlns="http://www.w3.org/2000/svg">
<path d="M7.4652 0.0718689C5.28786 0.345121 3.62666 2.1321 3.62666 4.20969V4.65643L2.81558 4.67378C2.0392 4.68679 1.98715 4.69113 1.75294 4.8039C1.24981 5.03812 0.898482 5.4892 0.807398 6.00968C0.733663 6.45209 -0.0253701 17.3258 0.000653861 17.586C0.0527018 18.1152 0.49511 18.692 1.01559 18.9002L1.26282 19H8.00737H14.7519L14.9991 18.9002C15.5196 18.692 15.962 18.1152 16.0141 17.586C16.0401 17.3258 15.2811 6.45643 15.2073 6.01402C15.1813 5.86221 15.1206 5.65836 15.0685 5.56293C14.9254 5.27233 14.5828 4.95137 14.2835 4.81258C14.0232 4.69113 13.9885 4.68679 13.2035 4.67378L12.3881 4.65643V4.30511C12.3837 3.25547 11.911 2.14945 11.1302 1.36439C10.3842 0.614034 9.53411 0.197652 8.48448 0.0675316C8.06809 0.0198209 7.89894 0.0198209 7.4652 0.0718689ZM8.7664 1.52488C10.0286 1.84584 11.0001 3.0733 11.0001 4.34848V4.66511H8.00737H5.01461V4.34848C5.01461 4.17065 5.05365 3.88005 5.09702 3.70222C5.5134 2.08005 7.14424 1.11283 8.7664 1.52488ZM3.64835 7.88341L3.61799 9.7181L3.71775 9.86557C3.86522 10.0781 4.02136 10.1779 4.24256 10.2039C4.49413 10.2342 4.75437 10.1041 4.88883 9.88292L4.99292 9.7181L5.00594 7.88341L5.01895 6.05305H8.00737H10.9958L11.0088 7.88341L11.0218 9.7181L11.1259 9.88292C11.2604 10.1041 11.5206 10.2342 11.7722 10.2039C11.989 10.1822 12.1495 10.0781 12.2927 9.86991C12.3881 9.72678 12.3881 9.72244 12.3881 7.89208V6.05305H13.0604C13.7066 6.05305 13.7326 6.05739 13.7934 6.14847C13.8411 6.22221 13.9539 7.62317 14.2531 11.8607L14.6522 17.4776L14.5567 17.5557C14.4657 17.6294 14.1664 17.6337 8.00737 17.6337C1.84836 17.6337 1.54908 17.6294 1.458 17.5557L1.36258 17.4776L1.76161 11.8607C2.06089 7.62317 2.17366 6.22221 2.22137 6.14847C2.28209 6.05739 2.30378 6.05305 2.9804 6.05305H3.67871L3.64835 7.88341Z" fill="white"/>
</svg>
