<svg width="45" height="45" viewBox="0 0 45 45" fill="none" xmlns="http://www.w3.org/2000/svg">
<g clip-path="url(#clip0_2830_402)">
<path d="M5.03624 0.123032C3.47179 0.500961 2.1798 1.8369 1.8546 3.41014C1.72277 4.02538 1.71398 36.4043 1.84581 37.0986C2.06554 38.2851 2.99718 39.5244 4.09581 40.0869C4.80773 40.4384 5.14171 40.456 5.42296 40.1308C5.80089 39.6914 5.62511 39.331 4.88683 38.997C4.24523 38.6982 3.65636 38.1445 3.36632 37.5381L3.12023 37.0459V20.3027V3.55956L3.32238 3.12889C3.64757 2.42577 4.06945 1.96873 4.72863 1.65233L5.31749 1.36229L17.6573 1.33592C31.2189 1.30956 30.463 1.28319 31.3068 1.84569C31.8077 2.17967 32.1417 2.60155 32.3966 3.24315C32.713 4.02538 33.0734 4.20995 33.5304 3.84959C33.7413 3.6826 33.7677 3.62108 33.7325 3.24315C33.6007 1.89842 32.089 0.42186 30.5157 0.0966644C29.8038 -0.0527496 5.65148 -0.0263824 5.03624 0.123032Z" fill="#0D5FF9"/>
<path d="M10.459 3.15527C9.81738 3.35742 9.30762 3.80566 8.95605 4.48242C8.7627 4.84277 8.74512 4.9834 8.74512 6.19629C8.74512 7.34766 8.77148 7.56738 8.92969 7.91016C9.19336 8.48145 9.53613 8.85059 10.0547 9.12305L10.5029 9.36035H17.8418H25.1807L25.6289 9.12305C26.1475 8.85059 26.4902 8.48145 26.7539 7.91016C26.9121 7.56738 26.9385 7.33887 26.9385 6.24023C26.9385 5.09765 26.9121 4.92187 26.7363 4.52637C26.4902 3.99902 26.1914 3.66504 25.6641 3.35742L25.2686 3.12012L17.9736 3.10254C13.9658 3.09375 10.582 3.12012 10.459 3.15527ZM25.1104 4.57031C25.5586 4.84277 25.6201 5.02734 25.6201 6.19629C25.6201 7.40918 25.5146 7.70801 25.0137 7.94531C24.7412 8.06836 24.0205 8.08594 17.8506 8.08594C10.3799 8.08594 10.5732 8.09473 10.2393 7.59375C10.1074 7.3916 10.0635 7.14551 10.0371 6.41601C10.002 5.29101 10.1074 4.88672 10.5381 4.59668L10.8369 4.39453H17.833C24.6094 4.39453 24.8379 4.40332 25.1104 4.57031Z" fill="#0D5FF9"/>
<path d="M32.836 6.00292L32.6075 6.23144V18.167V30.1025L28.4063 34.3213C26.086 36.6416 24.1084 38.6894 24.003 38.8652L23.8008 39.1992H15.961C10.459 39.1992 8.03324 39.2256 7.83109 39.2959C7.36527 39.4629 7.22465 40.0078 7.55863 40.3418C7.73441 40.5176 7.84867 40.5176 15.5127 40.5176C19.793 40.5176 23.2911 40.5439 23.2911 40.5703C23.2911 40.6055 23.168 41.0449 23.0186 41.5547C22.7989 42.2754 22.7549 42.5742 22.7901 42.9346C22.9043 44.0244 23.7393 44.8594 24.8291 44.9736C25.2071 45.0176 25.5323 44.9473 26.6836 44.6045C27.4483 44.3848 28.3184 44.0771 28.6084 43.9189C29.0567 43.6904 30.1817 42.6006 35.9561 36.835C41.4668 31.3242 42.8203 29.9267 42.9873 29.5752C43.1455 29.2236 43.1895 28.9863 43.1895 28.3887C43.1895 27.3516 43.0137 27 41.9502 25.9101C40.834 24.7764 40.4209 24.5654 39.375 24.5742C38.2149 24.5742 38.0655 24.6797 35.8418 26.8857L33.9258 28.7754V17.5166C33.9258 6.92577 33.917 6.24902 33.7764 6.07323C33.6885 5.97655 33.4952 5.8623 33.337 5.83593C33.1084 5.79198 33.0118 5.82714 32.836 6.00292ZM39.9727 25.9717C40.3946 26.1562 41.5459 27.2812 41.7569 27.7295C42.1348 28.5381 41.9151 29.083 40.7198 30.2519L39.8584 31.1133L38.25 29.5049L36.6416 27.8965L37.5557 27C38.7422 25.8398 39.1817 25.6465 39.9727 25.9717ZM37.3799 30.4805L38.9356 32.0361L38.1446 32.8271L37.3535 33.6182L35.7539 32.0098L34.1455 30.4101L34.8926 29.6631C35.2969 29.25 35.6748 28.916 35.7276 28.916C35.7803 28.916 36.5186 29.6191 37.3799 30.4805ZM32.5899 38.3906C30.4981 40.4824 28.6787 42.2754 28.5557 42.3633L28.336 42.5303L26.7627 40.957L25.1895 39.375L29.1797 35.376L33.1787 31.3769L34.7784 32.9766L36.3868 34.585L32.5899 38.3906ZM26.3057 43.3476C25.2159 43.6904 24.9522 43.7256 24.627 43.5586C24.3457 43.418 24.0821 43.0224 24.0821 42.7588C24.0821 42.6797 24.2051 42.1787 24.3633 41.6514L24.6358 40.6846L25.8575 41.8974L27.0703 43.1103L26.3057 43.3476Z" fill="#0D5FF9"/>
<path d="M31.0078 35.833C29.9355 36.8965 29.7949 37.0723 29.7949 37.3271C29.7949 37.7051 30.0586 37.9688 30.4365 37.9688C30.6914 37.9688 30.8672 37.8281 31.9307 36.7559C32.9414 35.7363 33.1348 35.499 33.1348 35.2705C33.1348 34.9453 32.8184 34.6289 32.4756 34.6289C32.2734 34.6289 32.001 34.8486 31.0078 35.833Z" fill="#0D5FF9"/>
<path d="M10.3711 13.4033L8.56934 15.2051L7.93652 14.5723C7.42676 14.0713 7.25977 13.9482 7.04004 13.9482C6.66211 13.9482 6.41602 14.1943 6.41602 14.5811C6.41602 14.8535 6.5127 14.9854 7.36523 15.8379C8.13867 16.6113 8.3584 16.7871 8.56934 16.7871C8.78906 16.7871 9.1582 16.4619 10.96 14.6602C12.8848 12.7441 13.0957 12.498 13.0957 12.2432C13.0957 11.8652 12.832 11.6016 12.4629 11.6016C12.2168 11.6016 11.9707 11.8125 10.3711 13.4033Z" fill="#0D5FF9"/>
<path d="M16.5587 14.1855C16.1369 14.3701 16.0314 14.8887 16.3478 15.2051C16.5236 15.3809 16.6378 15.3809 22.1837 15.3809H27.8527L28.0285 15.1523C28.2658 14.8447 28.257 14.6514 28.0021 14.3525L27.7911 14.1064L22.3068 14.0889C17.8507 14.0713 16.7785 14.0889 16.5587 14.1855Z" fill="#0D5FF9"/>
<path d="M8.90338 20.3379C8.12115 20.5928 7.43561 21.208 7.10162 21.9551C6.85553 22.4912 6.83795 23.6074 7.06647 24.126C7.56744 25.2861 8.53424 25.9365 9.75592 25.9453C10.9073 25.9453 11.8917 25.3213 12.3751 24.2754C12.709 23.5547 12.709 22.5791 12.3663 21.876C12.085 21.2871 11.4874 20.7158 10.9161 20.4521C10.3975 20.2324 9.41315 20.1709 8.90338 20.3379ZM10.4503 21.709C11.9092 22.4473 11.3907 24.627 9.75592 24.627C8.66608 24.627 7.91022 23.5547 8.29694 22.5527C8.63092 21.6738 9.62408 21.2871 10.4503 21.709Z" fill="#0D5FF9"/>
<path d="M16.3916 22.6318C16.1103 22.9043 16.1016 23.2822 16.374 23.5371L16.5762 23.7305H22.1836H27.7822L27.9932 23.5107C28.1162 23.3965 28.2129 23.2383 28.2129 23.168C28.2129 22.9219 28.0195 22.6055 27.7998 22.5088C27.6504 22.4385 25.9365 22.4121 22.0957 22.4121H16.6025L16.3916 22.6318Z" fill="#0D5FF9"/>
<path d="M8.96484 28.6436C8.17383 28.8984 7.42676 29.5664 7.09277 30.3047C6.95215 30.6123 6.9082 30.8936 6.9082 31.4209C6.9082 31.9482 6.95215 32.2295 7.09277 32.5371C7.33887 33.082 7.93652 33.7148 8.48144 33.9961C8.86816 34.207 9.02637 34.2334 9.75586 34.2334C10.4854 34.2334 10.6436 34.207 11.0303 33.9961C11.5752 33.7148 12.1729 33.082 12.4189 32.5371C12.6826 31.957 12.6826 30.8848 12.4189 30.3047C12.1641 29.751 11.5752 29.127 11.0303 28.8457C10.6875 28.6699 10.4326 28.6172 9.88769 28.5996C9.50098 28.582 9.08789 28.5996 8.96484 28.6436ZM10.6172 30.1201C11.4258 30.7178 11.54 31.7285 10.8896 32.4756C10.5645 32.8447 10.1338 32.9941 9.5625 32.9414C8.63965 32.8447 7.98926 31.9043 8.25293 31.0166C8.37598 30.6035 8.73633 30.1641 9.09668 30.0059C9.47461 29.8301 10.3096 29.8916 10.6172 30.1201Z" fill="#0D5FF9"/>
<path d="M16.3916 30.9814C16.2686 31.0957 16.1719 31.2979 16.1719 31.4209C16.1719 31.5439 16.2686 31.7461 16.3916 31.8604L16.6025 32.0801H22.1748C27.4922 32.0801 27.7646 32.0713 27.958 31.9131C28.2393 31.6846 28.2393 31.1572 27.958 30.9287C27.7646 30.7705 27.4922 30.7617 22.1748 30.7617H16.6025L16.3916 30.9814Z" fill="#0D5FF9"/>
</g>
<defs>
<clipPath id="clip0_2830_402">
<rect width="45" height="45" fill="white"/>
</clipPath>
</defs>
</svg>
