<svg width="38" height="38" viewBox="0 0 38 38" fill="none" xmlns="http://www.w3.org/2000/svg">
<path d="M1.26783 0.102898C1.11744 0.150387 0.808747 0.372013 0.595037 0.593639C0.0330583 1.1477 -0.125245 1.74926 0.0963798 2.46954C0.207192 2.84947 0.697934 3.42728 1.03037 3.56183L1.26783 3.65681V5.12904V6.60127L2.71631 8.04975L4.16479 9.49822H7.77411H11.3914L11.5971 10.1552C11.708 10.5193 11.795 10.8438 11.795 10.8913C11.795 10.9309 11.5971 11.1604 11.3597 11.3979L10.9323 11.8174L10.0695 11.5641C9.00096 11.2554 8.93764 11.2791 8.41524 12.0786L8.03531 12.6643H6.80054H5.55786L5.46288 12.4268C5.24125 11.8886 4.44182 11.3979 3.80069 11.3979C2.8192 11.3979 1.90104 12.316 1.90104 13.2975C1.90104 14.279 2.8192 15.1972 3.80069 15.1972C4.44182 15.1972 5.24125 14.7064 5.46288 14.1682L5.55786 13.9307H6.49977H7.44167V14.1365C7.44167 14.2948 7.59998 14.5006 8.11446 14.9914L8.77934 15.6325L8.62104 16.2261L8.45482 16.8198L7.61581 17.0177C6.68973 17.2314 6.4127 17.4055 6.4127 17.7854C6.4127 17.9042 6.38895 18.0862 6.36521 18.1812C6.31772 18.3632 6.29397 18.3632 4.98797 18.3632H3.65821L3.56323 18.1258C3.34161 17.5875 2.54217 17.0968 1.90104 17.0968C0.919559 17.0968 0.00139753 18.015 0.00139753 18.9965C0.00139753 19.9779 0.919559 20.8961 1.90104 20.8961C2.54217 20.8961 3.34161 20.4054 3.56323 19.8671L3.65821 19.6297H4.98797C6.29397 19.6297 6.31772 19.6297 6.36521 19.8038C6.38895 19.9067 6.4127 20.0887 6.4127 20.2075C6.4127 20.5874 6.68973 20.7615 7.61581 20.9752L8.45482 21.1731L8.62104 21.7668L8.77934 22.3604L8.11446 23.0015C7.59998 23.4923 7.44167 23.6981 7.44167 23.8564V24.0622H6.49977H5.55786L5.46288 23.8247C5.24125 23.2865 4.44182 22.7957 3.80069 22.7957C2.8192 22.7957 1.90104 23.7139 1.90104 24.6954C1.90104 25.6769 2.8192 26.595 3.80069 26.595C4.44182 26.595 5.24125 26.1043 5.46288 25.5661L5.55786 25.3286H6.80054H8.05114L8.41524 25.9064C8.92973 26.7138 9.00096 26.7375 10.0695 26.4288L10.9323 26.1755L11.3597 26.595C11.5971 26.8325 11.795 27.062 11.795 27.1016C11.795 27.1491 11.708 27.4736 11.5971 27.8377L11.3914 28.4947H7.77411H4.16479L2.71631 29.9432L1.26783 31.3916V32.8639V34.3361L1.03037 34.4311C0.492139 34.6527 0.00139753 35.4521 0.00139753 36.0933C0.00139753 37.0747 0.919559 37.9929 1.90104 37.9929C2.88253 37.9929 3.80069 37.0747 3.80069 36.0933C3.80069 35.4521 3.30995 34.6527 2.77171 34.4311L2.53426 34.3361V33.133V31.9378L3.62655 30.8455L4.71093 29.7611H8.51022L12.3095 29.7532L13.1169 30.1727L13.9321 30.5922V31.9378V33.2834L12.8398 34.3757L11.7554 35.46H11.1935C10.6394 35.46 10.6236 35.4521 10.5286 35.2226C10.307 34.6844 9.50754 34.1936 8.86641 34.1936C7.88492 34.1936 6.96676 35.1118 6.96676 36.0933C6.96676 37.0747 7.88492 37.9929 8.86641 37.9929C9.50754 37.9929 10.307 37.5022 10.5286 36.9639L10.6236 36.7265H11.4626H12.3016L13.7501 35.278L15.1986 33.8295V31.732V29.6345L15.4202 29.4287L15.6339 29.2229L16.2275 29.3812L16.8291 29.5395L17.0032 30.3468C17.1061 30.7822 17.2407 31.2254 17.304 31.3204C17.4148 31.4945 17.494 31.5262 18.0718 31.6212L18.3646 31.6687V32.9984V34.3361L18.1272 34.4311C17.7947 34.5656 17.304 35.1434 17.1932 35.5234C16.9716 36.2436 17.1299 36.8452 17.6918 37.3993C18.4992 38.2145 19.6152 38.1987 20.3672 37.3597C20.8658 36.8056 21.0083 36.2041 20.8025 35.5234C20.6917 35.1434 20.201 34.5656 19.8685 34.4311L19.6311 34.3361V33.0063C19.6311 31.7003 19.6311 31.6766 19.8131 31.6291C19.9081 31.6053 20.0901 31.5816 20.2089 31.5816C20.5888 31.5816 20.7629 31.3046 20.9766 30.3785L21.1745 29.5395L21.7682 29.3812L22.3618 29.2229L22.5834 29.4287L22.7971 29.6345V31.732V33.8295L24.2456 35.278L25.6941 36.7265H26.5331H27.3721L27.4671 36.9639C27.6887 37.5022 28.4882 37.9929 29.1293 37.9929C30.1108 37.9929 31.0289 37.0747 31.0289 36.0933C31.0289 35.1039 30.1266 34.1936 29.1451 34.1936C28.4882 34.1936 27.6887 34.6844 27.4671 35.2226C27.3721 35.4521 27.3563 35.46 26.8022 35.46H26.2402L25.1479 34.3677L24.0636 33.2834V31.922C24.0636 30.6318 24.0715 30.5605 24.2219 30.513C24.3089 30.4893 24.6651 30.3073 25.0134 30.1094L25.6466 29.7611H29.4696H33.2848L34.3771 30.8534L35.4614 31.9378V33.133V34.3361L35.224 34.4311C34.6857 34.6527 34.195 35.4521 34.195 36.0933C34.195 37.0747 35.1132 37.9929 36.0947 37.9929C37.0761 37.9929 37.9943 37.0747 37.9943 36.0933C37.9943 35.4521 37.5036 34.6527 36.9653 34.4311L36.7279 34.3361V32.8639V31.3916L35.2794 29.9432L33.8309 28.4947H30.2216H26.6043L26.3985 27.8377C26.2877 27.4736 26.2007 27.1491 26.2007 27.1016C26.2007 27.062 26.3985 26.8325 26.636 26.595L27.0634 26.1755L27.9262 26.4288C28.9947 26.7375 29.066 26.7138 29.5805 25.9064L29.9445 25.3286H31.1951H32.4378L32.5328 25.5661C32.7544 26.1043 33.5539 26.595 34.195 26.595C35.1765 26.595 36.0947 25.6769 36.0947 24.6954C36.0947 23.706 35.1923 22.7957 34.2108 22.7957C33.5539 22.7957 32.7544 23.2865 32.5328 23.8247L32.4378 24.0622H31.4959H30.554V23.8564C30.554 23.6981 30.3957 23.4923 29.8812 23.0015L29.2164 22.3604L29.3747 21.7668L29.5409 21.1731L30.3799 20.9752C31.306 20.7615 31.583 20.5874 31.583 20.2075C31.583 20.0887 31.6067 19.9067 31.6305 19.8038C31.678 19.6297 31.7017 19.6297 33.0077 19.6297H34.3375L34.4325 19.8671C34.6541 20.4054 35.4535 20.8961 36.0947 20.8961C37.0761 20.8961 37.9943 19.9779 37.9943 18.9965C37.9943 18.015 37.0761 17.0968 36.0947 17.0968C35.4535 17.0968 34.6541 17.5875 34.4325 18.1258L34.3375 18.3632H33.0077C31.7017 18.3632 31.678 18.3632 31.6305 18.1812C31.6067 18.0862 31.583 17.9042 31.583 17.7854C31.583 17.4055 31.306 17.2314 30.3799 17.0177L29.5409 16.8198L29.3747 16.2261L29.2164 15.6325L29.8812 14.9914C30.3957 14.5006 30.554 14.2948 30.554 14.1365V13.9307H31.4959H32.4378L32.5328 14.1682C32.7544 14.7064 33.5539 15.1972 34.195 15.1972C35.1765 15.1972 36.0947 14.279 36.0947 13.2975C36.0947 12.316 35.1765 11.3979 34.195 11.3979C33.5539 11.3979 32.7544 11.8886 32.5328 12.4268L32.4378 12.6643H31.1951H29.9445L29.5805 12.0865C29.066 11.2791 28.9947 11.2554 27.9262 11.5641L27.0634 11.8174L26.636 11.3979C26.3985 11.1604 26.2007 10.9309 26.2007 10.8913C26.2007 10.8438 26.2877 10.5193 26.3985 10.1552L26.6043 9.49822H30.2216H33.8309L35.2794 8.04975L36.7279 6.60127V5.12904V3.65681L36.9653 3.56183C37.5036 3.34021 37.9943 2.54078 37.9943 1.89964C37.9943 0.910248 37.092 0 36.1105 0C35.1132 0 34.195 0.910248 34.195 1.89964C34.195 2.54078 34.6857 3.34021 35.224 3.56183L35.4614 3.65681V4.85992V6.05512L34.3691 7.14741L33.2848 8.23179H29.4696H25.6466L25.0134 7.88353C24.6651 7.68565 24.3089 7.5036 24.2219 7.47985C24.0715 7.43236 24.0636 7.36112 24.0636 6.07095V4.70954L25.1559 3.61724L26.2402 2.53286H26.8022C27.3563 2.53286 27.3721 2.54078 27.4671 2.77032C27.6887 3.30855 28.4882 3.79929 29.1293 3.79929C30.1108 3.79929 31.0289 2.88113 31.0289 1.89964C31.0289 0.910248 30.1266 0 29.1451 0C28.4882 0 27.6887 0.490742 27.4671 1.02897L27.3721 1.26643H26.5331H25.6941L24.2456 2.71491L22.7971 4.16339V6.26091V8.35844L22.5834 8.56423L22.3618 8.77003L21.7682 8.61172L21.1666 8.45342L20.9925 7.64607C20.8896 7.21074 20.755 6.76748 20.6917 6.6725C20.5809 6.49837 20.5017 6.46671 19.9318 6.37173L19.6311 6.32423V4.99448V3.65681L19.8685 3.56183C20.4067 3.34021 20.8975 2.54078 20.8975 1.89964C20.8975 0.910248 19.9952 0 19.0137 0C18.0164 0 17.0982 0.910248 17.0982 1.89964C17.0982 2.54078 17.5889 3.34021 18.1272 3.56183L18.3646 3.65681V4.99448V6.32423L18.0718 6.37173C17.494 6.46671 17.4148 6.49837 17.304 6.6725C17.2407 6.76748 17.1061 7.21074 17.0032 7.64607L16.8291 8.45342L16.2275 8.61172L15.6339 8.77003L15.4202 8.56423L15.1986 8.35844V6.26091V4.16339L13.7501 2.71491L12.3016 1.26643H11.4626H10.6236L10.5286 1.02897C10.307 0.490742 9.50754 0 8.86641 0C7.88492 0 6.96676 0.918163 6.96676 1.89964C6.96676 2.88113 7.88492 3.79929 8.86641 3.79929C9.50754 3.79929 10.307 3.30855 10.5286 2.77032C10.6236 2.54078 10.6394 2.53286 11.1935 2.53286H11.7554L12.8477 3.62516L13.9321 4.70954V6.05512V7.4007L13.1169 7.82021L12.3095 8.23971L8.51022 8.23179H4.71093L3.61864 7.1395L2.53426 6.05512V4.85992V3.65681L2.77171 3.56183C3.10415 3.42728 3.59489 2.84947 3.7057 2.46954C3.9115 1.78883 3.76903 1.18728 3.27037 0.633213C2.75588 0.0633202 2.01977 -0.13456 1.26783 0.102898ZM2.33638 1.46431C2.73214 1.85215 2.45511 2.53286 1.90104 2.53286C1.57652 2.53286 1.26783 2.22417 1.26783 1.89964C1.26783 1.57512 1.57652 1.26643 1.90104 1.26643C2.05143 1.26643 2.21765 1.33767 2.33638 1.46431ZM9.30174 1.46431C9.6975 1.85215 9.42047 2.53286 8.86641 2.53286C8.54188 2.53286 8.23319 2.22417 8.23319 1.89964C8.23319 1.57512 8.54188 1.26643 8.86641 1.26643C9.0168 1.26643 9.18301 1.33767 9.30174 1.46431ZM19.4332 1.46431C19.5598 1.58304 19.6311 1.74926 19.6311 1.89964C19.6311 2.05003 19.5598 2.21625 19.4332 2.33498C19.0453 2.73074 18.3646 2.45371 18.3646 1.89964C18.3646 1.57512 18.6733 1.26643 18.9978 1.26643C19.1482 1.26643 19.3145 1.33767 19.4332 1.46431ZM29.5646 1.46431C29.6913 1.58304 29.7625 1.74926 29.7625 1.89964C29.7625 2.05003 29.6913 2.21625 29.5646 2.33498C29.4459 2.46162 29.2797 2.53286 29.1293 2.53286C28.9789 2.53286 28.8127 2.46162 28.6939 2.33498C28.5673 2.21625 28.4961 2.05003 28.4961 1.89964C28.4961 1.74926 28.5673 1.58304 28.6939 1.46431C28.8127 1.33767 28.9789 1.26643 29.1293 1.26643C29.2797 1.26643 29.4459 1.33767 29.5646 1.46431ZM36.53 1.46431C36.6566 1.58304 36.7279 1.74926 36.7279 1.89964C36.7279 2.05003 36.6566 2.21625 36.53 2.33498C36.4113 2.46162 36.245 2.53286 36.0947 2.53286C35.9443 2.53286 35.778 2.46162 35.6593 2.33498C35.5327 2.21625 35.4614 2.05003 35.4614 1.89964C35.4614 1.74926 35.5327 1.58304 35.6593 1.46431C35.778 1.33767 35.9443 1.26643 36.0947 1.26643C36.245 1.26643 36.4113 1.33767 36.53 1.46431ZM19.821 8.20805C20.1455 9.61695 20.0031 9.46656 21.3091 9.82275C22.8446 10.2423 22.718 10.2581 23.462 9.47448L24.1031 8.80169L24.6572 9.1183C24.9659 9.30034 25.2271 9.45865 25.2429 9.46656C25.2588 9.4824 25.1559 9.88607 25.0134 10.3531C24.8234 11.01 24.7759 11.2554 24.8393 11.3662C24.9422 11.5641 26.4302 13.0521 26.6281 13.155C26.7389 13.2184 26.9843 13.1709 27.6412 12.9809C28.1082 12.8384 28.5119 12.7355 28.5277 12.7514C28.5356 12.7672 28.6939 13.0284 28.876 13.3371L29.1926 13.8912L28.5198 14.5323C27.7362 15.2763 27.752 15.1497 28.1715 16.6852C28.5277 17.9912 28.3773 17.8487 29.7862 18.1733L30.3957 18.3157V18.9965V19.6851L29.5488 19.875C28.6544 20.0729 28.4565 20.1916 28.3773 20.5557C28.3457 20.6824 28.2349 21.094 28.1241 21.4897C27.752 22.7799 27.7362 22.7245 28.5198 23.4606L29.1926 24.1017L28.876 24.6558C28.6939 24.9566 28.5356 25.2257 28.5277 25.2415C28.5119 25.2574 28.1082 25.1545 27.6412 25.012C26.9843 24.822 26.7389 24.7745 26.6281 24.8379C26.4302 24.9408 24.9422 26.4288 24.8393 26.6267C24.7759 26.7375 24.8234 26.9829 25.0134 27.6398C25.1559 28.1068 25.2588 28.5105 25.2429 28.5263C25.2271 28.5343 24.9659 28.6926 24.6572 28.8746L24.1031 29.1912L23.462 28.5184C22.7259 27.7348 22.7813 27.7506 21.4911 28.1227C21.1033 28.2335 20.6838 28.3443 20.5571 28.3759C20.193 28.4551 20.0743 28.653 19.8764 29.5474L19.6865 30.3943H18.9978H18.3092L18.1193 29.5474C17.9214 28.653 17.8027 28.4551 17.4386 28.3759C17.3119 28.3443 16.9003 28.2335 16.5046 28.1227C15.2144 27.7506 15.2698 27.7348 14.5337 28.5184L13.8925 29.1912L13.3385 28.8746C13.0377 28.6926 12.7686 28.5343 12.7528 28.5263C12.7369 28.5105 12.8398 28.1068 12.9823 27.6398C13.1723 26.9829 13.2198 26.7375 13.1564 26.6267C13.0535 26.4288 11.5655 24.9408 11.3676 24.8379C11.2568 24.7745 11.0114 24.822 10.3545 25.012C9.88747 25.1545 9.48379 25.2574 9.46796 25.2415C9.46004 25.2257 9.30174 24.9645 9.12761 24.6558L8.80308 24.1017L9.47588 23.4606C10.2595 22.7166 10.2436 22.8432 9.82414 21.3077C9.46796 20.0017 9.61835 20.1442 8.21736 19.8196L7.59998 19.6772V18.9965V18.3157L8.21736 18.1733C9.61835 17.8487 9.46796 17.9912 9.82414 16.6852C10.2436 15.1497 10.2595 15.2763 9.47588 14.5323L8.80308 13.8912L9.12761 13.3371C9.30174 13.0284 9.46004 12.7672 9.46796 12.7514C9.48379 12.7355 9.88747 12.8384 10.3545 12.9809C11.0114 13.1709 11.2568 13.2184 11.3676 13.155C11.5655 13.0521 13.0535 11.5641 13.1564 11.3662C13.2198 11.2554 13.1723 11.01 12.9823 10.3531C12.8398 9.88607 12.7369 9.4824 12.7528 9.46656C12.7686 9.45865 13.0377 9.30034 13.3385 9.1183L13.8925 8.80169L14.5337 9.47448C15.2777 10.2581 15.1511 10.2423 16.6866 9.82275C17.9926 9.46656 17.8501 9.61695 18.1747 8.20805L18.3171 7.59858H18.9978H19.6786L19.821 8.20805ZM4.23602 12.8622C4.63178 13.25 4.35475 13.9307 3.80069 13.9307C3.47616 13.9307 3.16747 13.622 3.16747 13.2975C3.16747 12.973 3.47616 12.6643 3.80069 12.6643C3.95108 12.6643 4.11729 12.7355 4.23602 12.8622ZM34.6303 12.8622C34.757 12.9809 34.8282 13.1471 34.8282 13.2975C34.8282 13.4479 34.757 13.6141 34.6303 13.7329C34.5116 13.8595 34.3454 13.9307 34.195 13.9307C34.0446 13.9307 33.8784 13.8595 33.7597 13.7329C33.633 13.6141 33.5618 13.4479 33.5618 13.2975C33.5618 13.1471 33.633 12.9809 33.7597 12.8622C33.8784 12.7355 34.0446 12.6643 34.195 12.6643C34.3454 12.6643 34.5116 12.7355 34.6303 12.8622ZM2.33638 18.5611C2.73214 18.949 2.45511 19.6297 1.90104 19.6297C1.57652 19.6297 1.26783 19.321 1.26783 18.9965C1.26783 18.6719 1.57652 18.3632 1.90104 18.3632C2.05143 18.3632 2.21765 18.4345 2.33638 18.5611ZM36.53 18.5611C36.9257 18.949 36.6487 19.6297 36.0947 19.6297C35.7701 19.6297 35.4614 19.321 35.4614 18.9965C35.4614 18.8461 35.5327 18.6798 35.6593 18.5611C35.778 18.4345 35.9443 18.3632 36.0947 18.3632C36.245 18.3632 36.4113 18.4345 36.53 18.5611ZM4.23602 24.26C4.36267 24.3788 4.4339 24.545 4.4339 24.6954C4.4339 24.8458 4.36267 25.012 4.23602 25.1307C3.84818 25.5265 3.16747 25.2494 3.16747 24.6954C3.16747 24.3709 3.47616 24.0622 3.80069 24.0622C3.95108 24.0622 4.11729 24.1334 4.23602 24.26ZM34.6303 24.26C35.0261 24.6479 34.7491 25.3286 34.195 25.3286C33.8705 25.3286 33.5618 25.0199 33.5618 24.6954C33.5618 24.3709 33.8705 24.0622 34.195 24.0622C34.3454 24.0622 34.5116 24.1334 34.6303 24.26ZM2.33638 35.6579C2.46302 35.7766 2.53426 35.9429 2.53426 36.0933C2.53426 36.2436 2.46302 36.4099 2.33638 36.5286C2.21765 36.6552 2.05143 36.7265 1.90104 36.7265C1.75065 36.7265 1.58443 36.6552 1.46571 36.5286C1.33906 36.4099 1.26783 36.2436 1.26783 36.0933C1.26783 35.9429 1.33906 35.7766 1.46571 35.6579C1.58443 35.5313 1.75065 35.46 1.90104 35.46C2.05143 35.46 2.21765 35.5313 2.33638 35.6579ZM9.30174 35.6579C9.6975 36.0458 9.42047 36.7265 8.86641 36.7265C8.54188 36.7265 8.23319 36.4178 8.23319 36.0933C8.23319 35.7687 8.54188 35.46 8.86641 35.46C9.0168 35.46 9.18301 35.5313 9.30174 35.6579ZM19.4332 35.6579C19.8289 36.0458 19.5519 36.7265 18.9978 36.7265C18.8475 36.7265 18.6812 36.6552 18.5625 36.5286C18.1667 36.1407 18.4438 35.46 18.9978 35.46C19.1482 35.46 19.3145 35.5313 19.4332 35.6579ZM29.5646 35.6579C29.9604 36.0458 29.6833 36.7265 29.1293 36.7265C28.8048 36.7265 28.4961 36.4178 28.4961 36.0933C28.4961 35.7687 28.8048 35.46 29.1293 35.46C29.2797 35.46 29.4459 35.5313 29.5646 35.6579ZM36.53 35.6579C36.9257 36.0458 36.6487 36.7265 36.0947 36.7265C35.7701 36.7265 35.4614 36.4178 35.4614 36.0933C35.4614 35.7687 35.7701 35.46 36.0947 35.46C36.245 35.46 36.4113 35.5313 36.53 35.6579Z" fill="#0D5FF9"/>
<path d="M17.2409 12.1496C15.2621 12.4187 13.8374 13.0994 13.4496 13.9622C13.315 14.263 13.2992 14.5954 13.2992 19.3129C13.2992 24.988 13.2754 24.7031 13.9245 25.2651C15.9745 27.0143 22.0138 27.0302 24.0559 25.2809C24.7287 24.7031 24.6971 25.0039 24.6971 19.3129C24.6971 13.6218 24.7287 13.9226 24.0559 13.3448C22.8449 12.3079 19.8925 11.7934 17.2409 12.1496ZM20.4624 13.3844C21.7368 13.5427 23.1615 14.0493 23.3594 14.4213C23.5335 14.7537 22.9874 15.1336 21.8476 15.4582C19.7263 16.0755 16.6236 15.8856 15.0959 15.0545C14.4311 14.6983 14.4311 14.4292 15.0959 14.0651C15.5788 13.8118 16.7185 13.4794 17.4547 13.3844C18.262 13.2894 19.6472 13.2815 20.4624 13.3844ZM16.0695 16.7404C18.167 17.2945 21.151 17.1599 22.9478 16.4317L23.4306 16.2338V17.0254C23.4306 17.904 23.391 17.9831 22.8053 18.276C20.969 19.2179 17.0272 19.2179 15.1909 18.276C14.6052 17.9831 14.5656 17.904 14.5656 17.0175V16.2259L14.9851 16.4001C15.2067 16.4871 15.6975 16.6454 16.0695 16.7404ZM16.0695 19.9065C18.167 20.4606 21.151 20.326 22.9478 19.5978L23.4306 19.3999V20.1914C23.4306 21.07 23.391 21.1492 22.8053 21.442C20.969 22.3839 17.0272 22.3839 15.1909 21.442C14.6052 21.1492 14.5656 21.07 14.5656 20.1835V19.392L14.9851 19.5661C15.2067 19.6532 15.6975 19.8115 16.0695 19.9065ZM16.0695 23.0726C18.167 23.6266 21.151 23.4921 22.9478 22.7639L23.4306 22.566V23.3575C23.4306 24.2361 23.391 24.3153 22.8053 24.6081C20.969 25.55 17.0272 25.55 15.1909 24.6081C14.6052 24.3153 14.5656 24.2361 14.5656 23.3496V22.5581L14.9851 22.7322C15.2067 22.8193 15.6975 22.9776 16.0695 23.0726Z" fill="#0D5FF9"/>
</svg>
