<svg width="30" height="30" viewBox="0 0 30 30" fill="none" xmlns="http://www.w3.org/2000/svg">
<path d="M8.84766 10.0151C8.71875 10.1382 8.70117 10.2085 8.70117 10.5718C8.70117 10.9351 8.71875 11.0054 8.84766 11.1284C8.93555 11.2222 9.05859 11.2749 9.16992 11.2749C9.28125 11.2749 9.4043 11.2222 9.49219 11.1284C9.62109 11.0054 9.63867 10.9351 9.63867 10.5718C9.63867 10.2085 9.62109 10.1382 9.49219 10.0151C9.4043 9.92139 9.28125 9.86865 9.16992 9.86865C9.05859 9.86865 8.93555 9.92139 8.84766 10.0151Z" fill="#0D5FF9"/>
<path d="M14.4709 10.0151C14.342 10.1382 14.3245 10.2085 14.3245 10.5718C14.3245 10.9351 14.342 11.0054 14.4709 11.1284C14.5588 11.2222 14.6819 11.2749 14.7932 11.2749C14.9045 11.2749 15.0276 11.2222 15.1155 11.1284C15.2444 11.0054 15.262 10.9351 15.262 10.5718C15.262 10.2085 15.2444 10.1382 15.1155 10.0151C15.0276 9.92139 14.9045 9.86865 14.7932 9.86865C14.6819 9.86865 14.5588 9.92139 14.4709 10.0151Z" fill="#0D5FF9"/>
<path d="M10.2559 14.7028C9.57032 15.3825 11.3457 16.2321 12.7168 15.8747C13.1328 15.7634 13.5957 15.5173 13.7481 15.3298C14.0938 14.8845 13.5313 14.322 13.0918 14.6677C12.7402 14.9372 12.5586 14.9958 11.9844 14.9958C11.4102 14.9958 11.2285 14.9372 10.877 14.6677C10.6836 14.5153 10.4258 14.527 10.2559 14.7028Z" fill="#0D5FF9"/>
<path d="M10.6934 0.0644627C8.97656 0.298838 6.68555 1.08985 4.23633 2.28517C2.43164 3.16407 2.44336 3.12305 3.67969 4.3418L4.55273 5.19141L4.4707 5.42579C4.2832 5.97071 4.21875 6.63282 4.21875 8.0918V9.54493L4.06055 9.63282C3.83789 9.75001 3.60938 10.002 3.45117 10.3125C3.26367 10.6641 3.22266 11.4961 3.36914 11.9824C3.55078 12.6211 4.24219 13.125 4.92773 13.125C5.17969 13.125 5.15625 13.0723 5.27344 13.8281C5.41406 14.666 5.77734 15.5508 6.32227 16.377C6.61523 16.8223 7.48242 17.7246 7.78125 17.9004C7.96289 18.0059 7.96875 18.0293 7.96875 18.375C7.96875 18.709 7.95703 18.7383 7.82227 18.7734C7.73438 18.7969 7.58789 18.9434 7.43555 19.1777C7.30078 19.377 7.18359 19.5469 7.17773 19.5586C7.17188 19.5645 6.31641 19.8223 5.2793 20.127C4.24219 20.4316 3.22266 20.7598 3.01758 20.8535C1.5 21.5449 0.375 22.9922 0.0878906 24.6387C0.0175781 25.0371 0 25.6582 0 27.4336V29.7129L0.146484 29.8535L0.287109 30H11.7188H23.1504L23.2969 29.8535L23.4434 29.707L23.4258 27.1992C23.4023 24.8613 23.3965 24.668 23.2734 24.2461C23.1035 23.625 22.8105 23.0215 22.4238 22.4824L22.0957 22.0313H25.9043H29.7129L29.8535 21.8848L30 21.7441V12.1875V2.63087L29.8535 2.49024L29.7129 2.34376H23.5957H17.4727L17.2031 1.97462C16.5352 1.06056 15.334 0.445322 13.6523 0.152353C12.9902 0.0351658 11.2734 -0.0175686 10.6934 0.0644627ZM12.8965 0.996103C14.3086 1.13673 15.5273 1.59376 16.1602 2.21485C16.5527 2.59571 16.7285 2.90626 16.8164 3.35157C16.8516 3.52149 16.8926 3.72071 16.9102 3.79102C16.9219 3.86134 17.0684 4.07227 17.2324 4.25977C17.6074 4.68751 17.9004 5.21485 18.0938 5.78907C18.2344 6.2168 18.2461 6.31641 18.2695 7.8047L18.293 9.37501H17.9648C17.6895 9.37501 17.6074 9.35157 17.4902 9.22852C17.3438 9.0879 17.3438 9.07032 17.3438 8.06837C17.3438 6.79688 17.2793 6.55665 16.8398 6.11134C16.2891 5.5547 15.627 5.49024 14.4668 5.87696C13.2246 6.29298 11.666 6.52735 10.1367 6.52735C9.12305 6.52735 9.01758 6.51563 8.52539 6.36915C7.23633 5.97657 5.84766 5.09766 4.42383 3.79102L4.01367 3.41016L4.6582 3.10548C7.1543 1.92188 8.99414 1.28907 10.6465 1.03126C11.2852 0.93165 12.0996 0.919931 12.8965 0.996103ZM29.0625 12.1875V21.0938H24.9902H20.9121L20.6074 20.9414C20.4434 20.8535 20.2148 20.7539 20.0977 20.707C19.9277 20.6484 20.5781 20.6309 24.0996 20.6309L28.3066 20.625L28.4473 20.4785L28.5938 20.3379V12.1875V4.03712L28.4473 3.89649L28.3066 3.75001H23.1621H18.0176L17.8887 3.55665C17.8125 3.45118 17.7539 3.34571 17.7539 3.32227C17.7539 3.29884 20.2969 3.28126 23.4082 3.28126H29.0625V12.1875ZM27.6562 12.1875V19.6875H22.166C18.6797 19.6875 16.5938 19.6641 16.4648 19.6289C16.3066 19.582 16.207 19.4883 16.0137 19.1895C15.8496 18.9434 15.709 18.7969 15.6152 18.7734C15.4805 18.7383 15.4688 18.7148 15.4688 18.3633C15.4688 18.1582 15.4922 17.9883 15.5156 17.9883C15.5449 17.9883 15.7676 17.8184 16.0137 17.6133C17.0859 16.6934 17.9414 15.1934 18.1641 13.8223C18.1992 13.582 18.2402 13.3359 18.2578 13.2656C18.2754 13.1602 18.334 13.1367 18.6211 13.1133C19.2246 13.0547 19.6992 12.7324 19.9863 12.1875C20.1094 11.9531 20.127 11.8418 20.127 11.25C20.127 10.6582 20.1094 10.5469 19.9863 10.3125C19.8223 9.9961 19.5996 9.74415 19.3828 9.63282L19.2188 9.54493V8.0918C19.2188 6.26954 19.1602 5.8711 18.7207 4.78712C18.6797 4.69337 18.9141 4.68751 23.168 4.68751H27.6562V12.1875ZM5.76562 6.0586C5.97656 6.20509 6.1875 6.33985 6.24023 6.36915C6.32227 6.41602 6.32227 6.43946 6.22852 6.62696C6.14062 6.79102 6.11719 7.03126 6.09375 7.98634C6.06445 9.12305 6.05859 9.15235 5.92383 9.26368C5.83008 9.33985 5.69531 9.37501 5.47266 9.37501H5.15625V8.03907C5.15625 6.87305 5.19727 6.28712 5.30859 5.9004C5.32617 5.84766 5.34961 5.80079 5.36719 5.80079C5.37891 5.80079 5.56055 5.91798 5.76562 6.0586ZM16.1895 6.78516L16.377 6.97266L16.4062 8.13282C16.4297 9.10547 16.4531 9.32227 16.5469 9.50977C16.6641 9.75001 17.1328 10.1953 17.2676 10.1953C17.3438 10.1953 17.3496 10.4356 17.332 11.877C17.3086 13.3594 17.291 13.6172 17.1797 14.0098C16.6055 16.1016 15.0586 17.625 12.9727 18.1465C12.3574 18.2988 11.0156 18.2871 10.3887 18.1231C8.32617 17.5781 6.82617 16.0898 6.25781 14.0098C6.14648 13.6172 6.12891 13.3594 6.10547 11.877C6.08789 10.4356 6.09375 10.1953 6.16992 10.1953C6.30469 10.1953 6.77344 9.75001 6.89062 9.50977C6.98438 9.32227 7.00781 9.10547 7.03125 8.13282C7.04883 7.48243 7.08398 6.95509 7.11914 6.91993C7.16016 6.88477 7.30078 6.91407 7.5293 7.01368C8.10352 7.24805 8.95312 7.44727 9.58008 7.48243C11.0625 7.57032 14.0977 7.11329 15.1172 6.6504C15.252 6.5918 15.4395 6.56837 15.6621 6.58009C15.9551 6.59766 16.0312 6.62696 16.1895 6.78516ZM5.15625 11.2559V12.2051L4.88672 12.1699C4.6875 12.1523 4.56445 12.0938 4.42969 11.959C4.25391 11.7832 4.24805 11.7598 4.24805 11.2559C4.24805 10.7813 4.25977 10.7168 4.39453 10.5762C4.57031 10.3828 4.71094 10.3184 4.96875 10.3184L5.15625 10.3125V11.2559ZM19.0078 10.541C19.1836 10.7168 19.1895 10.7402 19.1895 11.25C19.1895 11.7598 19.1836 11.7832 19.0078 11.959C18.873 12.0938 18.75 12.1523 18.5508 12.1699L18.2812 12.2051V11.25V10.2949L18.5508 10.3301C18.75 10.3477 18.873 10.4063 19.0078 10.541ZM10.2539 19.0371C11.5254 19.3359 12.9434 19.2305 14.127 18.75L14.5195 18.5918L14.5488 18.9492C14.5664 19.1426 14.5781 19.3066 14.5723 19.3125C14.5664 19.3125 13.9219 19.7988 13.1426 20.3848L11.7188 21.4453L10.3008 20.3848C9.51562 19.7988 8.87109 19.3125 8.86523 19.3125C8.85938 19.3066 8.87109 19.1426 8.88867 18.9492L8.91797 18.5918L9.31055 18.75C9.52148 18.8379 9.94922 18.9668 10.2539 19.0371ZM9.51562 20.959C10.2422 21.498 10.834 21.9609 10.8398 21.9785C10.8398 22.0195 9.56836 22.793 9.49805 22.793C9.46289 22.793 7.88672 20.9531 7.69336 20.6836C7.64062 20.6074 7.66406 20.5254 7.83984 20.2559C7.95703 20.0742 8.08594 19.9336 8.12695 19.9512C8.16211 19.9629 8.78906 20.4199 9.51562 20.959ZM15.5977 20.2559C15.7734 20.5254 15.7969 20.6074 15.7441 20.6836C15.5508 20.9531 13.9746 22.793 13.9395 22.793C13.8691 22.793 12.5977 22.0195 12.5977 21.9785C12.6035 21.9375 15.293 19.9219 15.3457 19.9219C15.3633 19.9219 15.4805 20.0742 15.5977 20.2559ZM7.76367 22.2363C8.43164 23.0391 9.0293 23.748 9.09375 23.8008C9.1582 23.8594 9.27539 23.9063 9.35742 23.9063C9.47461 23.9063 9.49805 23.9297 9.46289 24.0059C9.43945 24.0645 9.41016 24.2109 9.39258 24.3281C9.36328 24.5273 9.38086 24.5684 9.58594 24.7559L9.80859 24.9609L9.62109 25.9102C9.52148 26.4258 9.42773 26.8652 9.41602 26.877C9.375 26.9121 8.4375 26.6016 7.98633 26.3965C7.29492 26.0801 6.57422 25.5703 6.0293 25.0254C5.19727 24.1816 4.76367 23.2734 4.70508 22.2363C4.69336 21.9492 4.69922 21.6035 4.72852 21.4805L4.78125 21.252L5.625 21C6.09375 20.8594 6.49219 20.7539 6.50977 20.7598C6.5332 20.7656 7.0957 21.4277 7.76367 22.2363ZM17.8125 21L18.6621 21.252L18.709 21.4805C18.7383 21.6035 18.7441 21.9492 18.7324 22.2363C18.627 24.1992 17.0215 25.9219 14.543 26.748C14.2734 26.8359 14.0449 26.8945 14.0273 26.877C14.0156 26.8652 13.916 26.4258 13.8164 25.9102L13.6289 24.9609L13.8516 24.7559C14.0566 24.5684 14.0742 24.5273 14.0449 24.3281C14.0273 24.2109 13.998 24.0645 13.9746 24.0059C13.9395 23.9238 13.9629 23.9063 14.0918 23.9063C14.2852 23.9063 14.2617 23.9297 15.7324 22.1602C16.377 21.3809 16.916 20.7422 16.9336 20.748C16.9512 20.748 17.3438 20.8594 17.8125 21ZM3.89648 23.2031C4.125 24.0996 4.67578 25.0195 5.41992 25.7578C8.5957 28.9043 14.8418 28.9043 18.0176 25.7578C18.5684 25.207 18.9082 24.7324 19.2188 24.0586C19.5176 23.4258 19.6348 22.9512 19.6816 22.1895L19.7168 21.5566L20.1973 21.7969C21.0469 22.2188 21.8145 23.0625 22.1836 23.9648C22.459 24.6504 22.5 25.043 22.5 27.1348V29.0625H11.7188H0.9375V27.1348C0.9375 25.0957 0.978516 24.6855 1.22461 24.0176C1.58203 23.0684 2.44922 22.1543 3.41602 21.709L3.7207 21.5625L3.75586 22.1953C3.7793 22.541 3.84375 22.9922 3.89648 23.2031ZM12.2695 22.9043L12.7266 23.1855L12.8906 23.6895L13.0547 24.1934L12.3867 24.6973L11.7188 25.1953L11.0508 24.6973L10.3828 24.1934L10.5469 23.6895L10.7109 23.1855L11.168 22.9043C11.4258 22.7461 11.6719 22.623 11.7188 22.623C11.7656 22.623 12.0117 22.7461 12.2695 22.9043ZM11.1328 25.9277C11.4023 26.127 11.6191 26.25 11.7188 26.25C11.8184 26.25 12.0352 26.127 12.3047 25.9277C12.5391 25.752 12.75 25.6055 12.7734 25.6055C12.791 25.6055 12.873 25.9219 12.9434 26.3145C13.0488 26.8535 13.0664 27.0352 13.0137 27.0879C12.9141 27.1875 10.5234 27.1875 10.4238 27.0879C10.3711 27.0352 10.3887 26.8535 10.4941 26.3145C10.5645 25.9219 10.6465 25.6055 10.6641 25.6055C10.6875 25.6055 10.8984 25.752 11.1328 25.9277Z" fill="#0D5FF9"/>
</svg>
