<?xml version="1.0" encoding="UTF-8"?>
<!DOCTYPE svg PUBLIC "-//W3C//DTD SVG 1.1//EN" "http://www.w3.org/Graphics/SVG/1.1/DTD/svg11.dtd">
<svg xmlns="http://www.w3.org/2000/svg" version="1.1" width="512px" height="512px" style="shape-rendering:geometricPrecision; text-rendering:geometricPrecision; image-rendering:optimizeQuality; fill-rule:evenodd; clip-rule:evenodd" xmlns:xlink="http://www.w3.org/1999/xlink">
<g><path style="opacity:0.955" fill="#000000" d="M 298.5,-0.5 C 335.5,-0.5 372.5,-0.5 409.5,-0.5C 409.5,30.1667 409.5,60.8333 409.5,91.5C 389.831,91.3334 370.164,91.5 350.5,92C 332.216,92.9617 320.382,102.128 315,119.5C 313.589,133.783 313.089,148.116 313.5,162.5C 341.5,162.5 369.5,162.5 397.5,162.5C 397.5,194.833 397.5,227.167 397.5,259.5C 369.5,259.5 341.5,259.5 313.5,259.5C 313.5,343.5 313.5,427.5 313.5,511.5C 270.833,511.5 228.167,511.5 185.5,511.5C 185.5,427.167 185.5,342.833 185.5,258.5C 157.511,259.389 129.511,259.722 101.5,259.5C 101.5,227.167 101.5,194.833 101.5,162.5C 129.5,162.5 157.5,162.5 185.5,162.5C 183.844,130.891 188.344,100.224 199,70.5C 213.029,38.1379 236.862,16.6379 270.5,6C 279.862,3.36516 289.195,1.1985 298.5,-0.5 Z M 299.5,21.5 C 328.833,21.5 358.167,21.5 387.5,21.5C 387.5,37.5 387.5,53.5 387.5,69.5C 371.798,69.1376 356.131,69.6376 340.5,71C 311.855,76.9778 295.689,94.4778 292,123.5C 291.5,143.831 291.333,164.164 291.5,184.5C 319.5,184.5 347.5,184.5 375.5,184.5C 375.5,202.167 375.5,219.833 375.5,237.5C 347.5,237.5 319.5,237.5 291.5,237.5C 291.5,321.5 291.5,405.5 291.5,489.5C 263.5,489.5 235.5,489.5 207.5,489.5C 207.5,405.167 207.5,320.833 207.5,236.5C 179.496,236.577 151.496,236.91 123.5,237.5C 123.5,219.833 123.5,202.167 123.5,184.5C 151.5,184.5 179.5,184.5 207.5,184.5C 206.94,161.44 207.773,138.44 210,115.5C 216.949,62.0572 246.782,30.7239 299.5,21.5 Z"/></g>
</svg>
