<svg width="37" height="32" viewBox="0 0 37 32" fill="none" xmlns="http://www.w3.org/2000/svg">
<path d="M2.38887 0.481281C1.64078 0.721235 0.87857 1.41287 0.589215 2.13273L0.426893 2.535L0.405721 15.7254C0.391606 30.1156 0.370433 29.3534 0.779766 30.0591C1.03383 30.4826 1.59137 30.9907 2.07128 31.2095L2.47356 31.4H15.2476H28.0216L28.4097 31.2165C29.2425 30.8213 29.8635 30.0168 30.0329 29.1134C30.0682 28.9087 30.1035 28.3583 30.1035 27.8995V27.0597H32.3831C34.8885 27.0597 35.1214 27.0315 35.6507 26.6433C35.8059 26.5233 36.0247 26.2622 36.1447 26.0575L36.3493 25.6835V24.0603C36.3493 22.2324 36.3282 22.1477 35.7706 21.6113C35.2484 21.1032 35.2202 21.1032 32.5242 21.075L30.1035 21.0538V19.2894C30.1035 17.1722 30.0682 17.0381 29.4754 17.0381C29.3625 17.0381 29.2143 17.1087 29.1296 17.2004C28.9814 17.3627 28.9743 17.4121 28.9743 19.2118V21.0608H23.5401C19.0656 21.0608 18.0564 21.075 17.8659 21.1596C17.7388 21.209 16.8214 21.7666 15.8263 22.3947C14.1184 23.4674 13.9984 23.531 13.6667 23.531C13.3703 23.531 13.2926 23.5592 13.1727 23.7144C12.9821 23.9615 12.9821 24.1802 13.1868 24.4131C13.3068 24.5613 13.4338 24.6107 13.7655 24.6531C14.1536 24.7025 14.3442 24.8084 16.0521 25.8811L17.9153 27.0597H23.4554H28.9884L28.9602 28.0618C28.939 28.8735 28.9108 29.1275 28.8049 29.3392C28.6285 29.6992 28.3039 30.0168 27.951 30.172C27.6828 30.2991 27.1253 30.3061 15.2476 30.3061H2.82643L2.4665 30.1367C2.07128 29.9532 1.77487 29.6145 1.6196 29.1981C1.54197 28.9793 1.52786 27.0738 1.5208 18.7813V8.63971H15.2476H28.9743V10.4817C28.9743 11.5192 29.0025 12.3731 29.0449 12.4437C29.0802 12.5143 29.2072 12.6131 29.3201 12.6625C29.5812 12.7683 29.8777 12.6483 30.0118 12.3802C30.1247 12.1543 30.1458 3.29721 30.0329 2.71144C29.8635 1.80103 29.2848 1.03882 28.4873 0.643604L28.0216 0.417765L15.3534 0.40365C5.01424 0.396593 2.62882 0.410707 2.38887 0.481281ZM27.951 1.64576C28.3039 1.80103 28.6285 2.11861 28.8049 2.47854C28.9249 2.72556 28.939 2.95845 28.9602 5.12509L28.9814 7.51052H15.2476H1.5208V5.18155C1.5208 2.65498 1.52786 2.60558 1.92307 2.09038C2.02188 1.95629 2.26889 1.7728 2.4665 1.68105L2.82643 1.51167H15.2476C27.1253 1.51167 27.6828 1.51873 27.951 1.64576ZM31.3033 24.0603V25.9305H24.9516H18.5998V24.1097C18.5998 23.1075 18.621 22.2606 18.6492 22.2394C18.6704 22.2112 21.5287 22.19 25.001 22.19H31.3033V24.0603ZM34.7967 22.2888C35.2202 22.4723 35.2696 22.6558 35.2413 24.1661L35.2202 25.507L35.0225 25.6976L34.832 25.8952L33.6322 25.9164L32.4325 25.9375V24.0673V22.19H33.4911C34.2533 22.19 34.6203 22.2183 34.7967 22.2888ZM17.4565 24.7237L17.4354 25.4224L16.3556 24.7519L15.2758 24.0744L15.791 23.7497C16.0733 23.5662 16.5602 23.2628 16.8708 23.0652L17.4354 22.7123L17.4565 23.3616C17.4636 23.7215 17.4636 24.3355 17.4565 24.7237Z" fill="white"/>
<path d="M4.56785 3.02184C3.88328 3.24768 3.49512 3.77699 3.49512 4.50391C3.49512 5.37198 4.1444 6.02832 5.01953 6.02832C5.99346 6.02832 6.69215 5.17437 6.51571 4.19338C6.35339 3.31825 5.41475 2.75366 4.56785 3.02184ZM5.30183 4.22867C5.47826 4.41216 5.48532 4.59566 5.31594 4.80738C5.21714 4.93441 4.80075 4.9203 4.69489 4.79326C4.55374 4.62389 4.58902 4.32041 4.76546 4.17927C4.97718 4.00989 5.0901 4.01694 5.30183 4.22867Z" fill="white"/>
<path d="M8.75439 2.98632C7.53345 3.29685 7.11001 4.70129 7.98513 5.57641C8.338 5.93634 8.67676 6.05632 9.22018 6.01397C9.77772 5.97163 10.1659 5.7105 10.4341 5.18825C10.7234 4.60248 10.667 4.02377 10.2576 3.52269C9.90476 3.09924 9.24841 2.86635 8.75439 2.98632ZM9.41074 4.24255C9.71421 4.64483 9.14961 5.11768 8.77556 4.77892C8.48621 4.51779 8.75439 3.99554 9.12844 4.08729C9.2343 4.10846 9.36133 4.17903 9.41074 4.24255Z" fill="white"/>
<path d="M12.7573 2.98655C11.9598 3.19122 11.4164 4.0734 11.614 4.84267C11.8046 5.56253 12.3974 6.02832 13.1243 6.02832C13.7383 6.02832 14.2323 5.71779 14.5217 5.15319C14.7405 4.72269 14.684 4.01694 14.3876 3.61467C14.0347 3.12064 13.3219 2.8454 12.7573 2.98655ZM13.3643 4.16515C13.5407 4.28513 13.583 4.66623 13.4348 4.81444C13.2866 4.96264 12.9055 4.9203 12.7855 4.74386C12.6303 4.52508 12.6444 4.42628 12.8491 4.22867C13.0467 4.024 13.1455 4.00989 13.3643 4.16515Z" fill="white"/>
<path d="M6.61725 11.6252C6.31378 11.9499 6.4761 12.4509 6.92072 12.5639C7.01952 12.585 7.30888 12.5921 7.57 12.578C7.95111 12.5568 8.05697 12.5215 8.16283 12.3874C8.34632 12.1616 8.33221 11.8087 8.1346 11.6182C7.99345 11.4841 7.88759 11.4629 7.37239 11.4629C6.83603 11.4629 6.75134 11.477 6.61725 11.6252Z" fill="white"/>
<path d="M11.8039 11.5473C11.6134 11.7026 11.5287 12.0131 11.6275 12.2249C11.811 12.5989 11.6416 12.5918 17.8451 12.5918H23.6252L23.8298 12.3872C24.0839 12.1331 24.091 11.872 23.8581 11.6391L23.6887 11.4627H17.8028C13.2084 11.4627 11.8957 11.4838 11.8039 11.5473Z" fill="white"/>
<path d="M29.2766 14.2148C29.0649 14.2995 28.9731 14.5042 28.9731 14.9064C28.9731 15.3228 29.1708 15.5557 29.5236 15.5557C30.0882 15.5557 30.3141 14.6594 29.8412 14.2854C29.6436 14.1301 29.5236 14.116 29.2766 14.2148Z" fill="white"/>
<path d="M6.61697 15.3654C6.35585 15.6406 6.41936 16.057 6.75107 16.2264C7.04748 16.3817 18.2971 16.3817 18.5935 16.2264C18.9322 16.057 18.9958 15.6124 18.7205 15.3583L18.5582 15.2031H12.6652H6.76518L6.61697 15.3654Z" fill="white"/>
<path d="M22.4045 15.2738C22.1998 15.3938 22.101 15.7326 22.2139 15.9514C22.3551 16.2548 22.588 16.3395 23.1808 16.3183C23.6466 16.2972 23.7171 16.276 23.8654 16.0996C24.0841 15.8455 24.0771 15.5985 23.8583 15.3797C23.703 15.2174 23.6325 15.2033 23.1032 15.2033C22.7785 15.2033 22.468 15.2385 22.4045 15.2738Z" fill="white"/>
<path d="M6.61479 19.1059C6.45247 19.2823 6.41718 19.5717 6.5301 19.7905C6.67125 20.0586 6.92532 20.0728 10.8846 20.0728C14.9355 20.0728 15.0485 20.0657 15.1684 19.7552C15.2602 19.5152 15.2108 19.247 15.0485 19.0988L14.8861 18.9436H10.8281H6.763L6.61479 19.1059Z" fill="white"/>
</svg>
