<svg width="38" height="38" viewBox="0 0 38 38" fill="none" xmlns="http://www.w3.org/2000/svg">
<path d="M21.273 0.0208893C21.2137 0.0357132 20.9098 0.0875988 20.6059 0.132071C18.6936 0.443381 16.7961 1.62191 15.5583 3.26741C14.9875 4.02345 14.4316 5.16492 14.1796 6.09884C14.0017 6.76594 13.9795 6.96607 13.9795 8.13718C13.9795 9.3083 14.0017 9.50843 14.1796 10.1755C14.7874 12.4511 16.3662 14.393 18.4564 15.453C19.079 15.7717 20.1167 16.1052 20.8431 16.2164C21.6733 16.3498 23.2966 16.2757 24.0897 16.0682C25.5128 15.6902 26.6543 15.0527 27.7364 14.0076C28.826 12.9625 29.6043 11.6357 29.9971 10.1755C30.175 9.50843 30.1973 9.3083 30.1973 8.13718C30.1973 6.97348 30.175 6.76594 29.9971 6.12108C29.1892 3.09693 26.8025 0.813988 23.7635 0.16172C23.2817 0.0579491 21.5325 -0.0458202 21.273 0.0208893ZM23.7561 1.68862C26.595 2.42242 28.5962 4.89808 28.7371 7.8407C28.9668 12.6734 24.1712 16.1052 19.6275 14.356C17.604 13.5703 16.003 11.6728 15.5583 9.50843C14.8022 5.85424 17.2038 2.27418 20.8802 1.57744C21.6585 1.4292 22.9704 1.48108 23.7561 1.68862Z" fill="#0D5FF9"/>
<path d="M21.5544 3.07469C21.2802 3.24517 21.1986 3.46754 21.1986 4.0531C21.1986 4.54971 21.1912 4.56453 20.9689 4.65348C20.8428 4.70536 20.5834 4.90549 20.3907 5.09821C19.3011 6.15073 19.5902 7.96671 20.954 8.64862C21.1245 8.73016 21.4951 8.83393 21.7694 8.8784C22.1919 8.93028 22.3105 8.98217 22.4809 9.17488C22.7033 9.4269 22.7329 9.6715 22.5699 9.99022C22.303 10.5091 21.6211 10.4868 21.1245 9.95316C20.702 9.50102 20.2054 9.44172 19.857 9.81233C19.605 10.0792 19.6198 10.472 19.8941 10.8278C20.109 11.1095 20.917 11.695 21.0874 11.695C21.1542 11.695 21.1912 11.8729 21.206 12.3325C21.2357 12.918 21.2505 12.9773 21.4432 13.1478C21.5841 13.2664 21.7397 13.3257 21.9398 13.3257C22.14 13.3257 22.2956 13.2664 22.4365 13.1478C22.6292 12.9847 22.644 12.918 22.6662 12.3399C22.6959 11.7543 22.7107 11.7024 22.8589 11.6654C22.9553 11.6431 23.1851 11.4875 23.3778 11.317C24.8158 10.0495 24.1487 7.74434 22.2586 7.45527C21.6285 7.35891 21.4358 7.26996 21.3024 7.01054C21.1319 6.68441 21.1764 6.43981 21.4506 6.16556C21.8138 5.80236 22.1993 5.84683 22.7774 6.32862C23.3037 6.76594 24.1264 6.28415 23.9782 5.61706C23.9189 5.35763 23.4667 4.92773 23.0146 4.71278L22.6811 4.54971V4.03827C22.6811 3.47495 22.5551 3.16364 22.2586 3.03022C22.014 2.91904 21.7916 2.93386 21.5544 3.07469Z" fill="#0D5FF9"/>
<path d="M34.0884 15.9053C33.5103 16.098 33.1323 16.3797 32.2799 17.2691C31.8722 17.6842 30.8271 18.759 29.9599 19.6484L28.3811 21.2717L28.0475 20.9604C27.6176 20.5601 27.0247 20.2933 26.4021 20.2118C26.1278 20.1821 24.0746 20.1525 21.8362 20.1451H17.7669L17.0776 19.9227C16.0325 19.5891 15.2245 19.4705 14.0089 19.4705C11.9187 19.4705 10.2362 19.9523 8.61291 21.0049C7.78275 21.5459 6.66352 22.6652 6.12984 23.4879L5.71476 24.1254L5.19591 24.1624C4.31387 24.2291 4.17304 24.3329 1.98645 26.5195L0 28.4985V28.8469V29.2027L4.26939 33.5166C6.61904 35.881 8.61291 37.8601 8.70186 37.912C8.9094 38.0306 9.154 38.0306 9.3986 37.9045C9.50978 37.8453 10.4882 36.9039 11.5704 35.8069C13.8236 33.5388 13.8236 33.5314 13.7792 32.464L13.7495 31.8933L14.3128 31.3745C15.2097 30.5369 14.7428 30.5962 20.8281 30.5962C24.0376 30.5962 26.2983 30.5665 26.6763 30.5221C27.9215 30.359 29.189 29.8179 30.1452 29.0248C30.6937 28.5727 37.4832 20.4267 37.6982 19.9598C37.8538 19.641 37.876 19.4705 37.876 18.7367C37.876 17.9511 37.8612 17.8473 37.6685 17.4396C37.3794 16.8392 36.8754 16.3352 36.2602 16.0461C35.6228 15.7497 34.7407 15.6904 34.0884 15.9053ZM35.6821 17.4248C36.1638 17.699 36.4159 18.0771 36.4529 18.5737C36.4752 18.8553 36.4455 19.0925 36.3714 19.2704C36.2306 19.604 29.9821 27.1125 29.315 27.7499C28.7739 28.2688 28.0846 28.6542 27.2767 28.8988C26.7282 29.0693 26.6763 29.0693 20.9393 29.1137C16.9367 29.1434 15.0837 29.1805 14.9206 29.2398C14.4092 29.4176 13.7866 29.8105 13.29 30.2626L12.7711 30.737L9.87297 27.8314L6.96741 24.9259L7.3232 24.37C8.74633 22.1612 11.1034 20.953 13.9941 20.953C15.1282 20.953 15.8397 21.0642 16.7218 21.3829L17.3074 21.5904L21.8658 21.6275C26.4095 21.6645 26.4243 21.6645 26.7356 21.8276C27.8029 22.3983 27.8029 23.8956 26.7356 24.4663C26.4317 24.6294 26.3724 24.6294 23.0295 24.6665L19.6274 24.7035L19.4495 24.9111C19.1974 25.2075 19.2123 25.5633 19.4865 25.8672L19.7015 26.1118L22.7923 26.1341C26.0982 26.1563 26.6763 26.1192 27.3063 25.8302C28.3366 25.3558 29.1371 24.0587 29.0482 23.0061C29.0259 22.7615 29.1445 22.6207 31.5238 20.1673C32.9989 18.6552 34.1552 17.5212 34.333 17.4174C34.7407 17.195 35.2892 17.195 35.6821 17.4248ZM8.98352 29.0174L12.3042 32.338V32.6716V33.0051L10.718 34.5765C9.84333 35.4437 9.10211 36.1553 9.06505 36.1553C9.0354 36.1553 7.36767 34.5172 5.3738 32.5233L1.74185 28.8914L3.38735 27.2459L5.03285 25.6078L5.34415 25.6523C5.64805 25.6893 5.81853 25.8524 8.98352 29.0174Z" fill="#0D5FF9"/>
<path d="M16.5219 24.6294C16.1291 24.8444 16.0698 25.4077 16.3959 25.7561C16.7146 26.097 17.3224 26.0303 17.5299 25.6227C17.8931 24.9185 17.2112 24.2514 16.5219 24.6294Z" fill="#0D5FF9"/>
</svg>
