<svg width="49" height="38" viewBox="0 0 49 38" fill="none" xmlns="http://www.w3.org/2000/svg">
<path d="M16.8423 0.0811996C13.6392 0.537422 10.7023 2.3148 8.82985 4.9571C8.15502 5.89806 7.37563 7.55188 7.09049 8.62591C6.04498 12.5418 7.04297 17.0375 9.99893 21.7329C10.3031 22.2176 10.5502 22.6358 10.5502 22.6643C10.5502 22.6833 10.0369 22.7023 9.40963 22.7023H8.26907V21.2956C8.25957 19.2997 8.13601 18.891 7.35662 18.4537C7.02396 18.2637 6.85288 18.2351 5.81686 18.2351C4.50522 18.2351 4.16305 18.3302 3.75435 18.8244C3.62128 18.9765 3.46921 19.2997 3.41218 19.5278L3.30763 19.946H2.26211C1.07403 19.946 0.75087 20.041 0.30415 20.5543L0 20.906V25.6488V30.3916L0.294645 30.7338C0.779384 31.2851 0.997992 31.3516 2.21459 31.3516H3.30763L3.42169 31.7983C3.55475 32.3496 4.11553 32.9294 4.60027 33.0149C4.77135 33.0529 5.42717 33.0624 6.05448 33.0434C7.12851 33.0149 7.21405 32.9959 7.53721 32.7488C8.15502 32.2736 8.21204 32.074 8.25006 30.1825L8.28808 28.5002H11.8618H15.4356L16.7663 29.8118C19.1044 32.1025 21.9938 34.5072 24.9783 36.6552C26.8792 38.0144 27.421 38.2045 28.3905 37.8338C29.5881 37.3776 34.9012 33.205 37.8857 30.3916C40.8321 27.6068 42.9802 25.126 44.8146 22.3697C48.6925 16.5528 49.5859 11.0116 47.3523 6.56339C46.9246 5.71748 46.6395 5.49887 46.1928 5.68896C46.0407 5.74599 45.8696 5.92658 45.8031 6.07865C45.6985 6.33528 45.727 6.43983 46.0787 7.1907C47.0577 9.27223 47.3428 11.2397 47.0006 13.5303C46.611 16.1631 45.5274 18.7294 43.5695 21.6853C40.8416 25.7914 36.3079 30.3346 30.7952 34.4786C28.8372 35.9519 27.8867 36.5792 27.6016 36.5792C26.9553 36.5792 21.2335 32.131 18.344 29.3651L17.4411 28.5097L20.7677 28.5287L24.0944 28.5477L24.1419 30.3061C24.1894 31.9599 24.1989 32.0835 24.408 32.3781C24.8072 32.9294 25.2159 33.0624 26.5181 33.0624C27.2689 33.0624 27.7727 33.0149 27.9723 32.9294C28.3905 32.7583 28.7802 32.2736 28.9132 31.7698L29.0273 31.3516H30.1203C31.1088 31.3516 31.2419 31.3326 31.6126 31.114C31.8787 30.9619 32.0783 30.7433 32.2114 30.4677C32.4015 30.0685 32.411 29.9259 32.411 25.6488C32.411 21.3717 32.4015 21.2291 32.2114 20.8299C32.0783 20.5543 31.8787 20.3357 31.6126 20.1836C31.2419 19.965 31.1088 19.946 30.1203 19.946H29.0273L28.9132 19.5278C28.7802 19.024 28.3905 18.5393 27.9723 18.3682C27.7727 18.2827 27.2689 18.2351 26.5181 18.2351C25.2159 18.2351 24.8072 18.3682 24.408 18.9195C24.1989 19.2141 24.1894 19.3282 24.1609 20.9725L24.1324 22.7023H22.9063C22.2314 22.7023 21.6136 22.7309 21.5281 22.7594C21.281 22.8544 21.1004 23.3582 21.2049 23.6433C21.376 24.071 21.5376 24.1185 22.8873 24.128H24.1419V25.6013V27.0745H16.2055H8.26907V25.6013V24.128H13.5727C19.247 24.1185 19.0949 24.1375 19.285 23.6433C19.3895 23.3582 19.209 22.8544 18.9618 22.7594C18.8763 22.7309 17.3555 22.7023 15.5877 22.7023H12.3656L11.9474 22.1035C10.2175 19.6799 8.88688 16.7619 8.35462 14.2432C8.04096 12.7509 8.05047 10.5554 8.39263 9.29123C8.7253 8.0081 9.134 7.08615 9.81834 6.05014C12.9644 1.26928 19.342 -0.00434494 24.1704 3.18923C24.5506 3.43635 25.311 4.10168 25.8622 4.66246C27.4305 6.24023 27.8012 6.24974 29.2744 4.748C30.7191 3.27477 32.0023 2.46687 33.7416 1.9061C37.1918 0.813061 40.7181 1.55442 43.655 3.99713C43.9592 4.24425 44.2918 4.45335 44.3964 4.45335C44.5009 4.45335 44.7195 4.32029 44.8811 4.16821C45.2613 3.77852 45.1948 3.49338 44.5484 2.90409C42.1152 0.689499 38.532 -0.375027 35.1863 0.119217C32.5916 0.499405 30.3865 1.62096 28.514 3.50288L27.6206 4.40583L26.7082 3.49338C26.2139 2.99913 25.5201 2.39083 25.1779 2.14371C23.9043 1.25027 22.3075 0.556431 20.7202 0.214264C19.8743 0.0431786 17.6882 -0.0423622 16.8423 0.0811996ZM6.78634 19.8129C6.87188 20.041 6.85288 31.3801 6.76733 31.5227C6.71031 31.6082 6.43467 31.6367 5.74083 31.6177L4.79986 31.5892L4.77135 28.5477C4.75234 25.5918 4.74284 25.5062 4.54324 25.2971C4.29612 25.031 3.90642 25.012 3.60227 25.2591C3.37416 25.4397 3.37416 25.4587 3.34565 27.6828L3.31713 29.9354L2.34766 29.9069L1.37818 29.8784V25.6488V21.4192H2.32865H3.27912L3.30763 21.8944C3.33614 22.5598 3.40268 22.7784 3.61178 22.9875C3.8589 23.2346 4.18206 23.2251 4.50522 22.978L4.75234 22.7879V21.2861C4.75234 20.4592 4.78085 19.7559 4.81887 19.7274C4.84739 19.6894 5.29411 19.6608 5.80736 19.6608C6.55823 19.6608 6.73882 19.6894 6.78634 19.8129ZM27.5161 25.6488V31.5892L26.5466 31.6177L25.5676 31.6462V25.6488V19.6513L26.5466 19.6799L27.5161 19.7084V25.6488ZM30.9377 25.6488V29.8784H29.9873H29.0368L29.0083 25.7438C28.9988 23.4722 29.0083 21.5523 29.0368 21.4857C29.0653 21.4002 29.3219 21.3717 30.0063 21.3907L30.9377 21.4192V25.6488Z" fill="#0D5FF9"/>
<path d="M23.524 8.06483C23.41 8.10285 23.2769 8.1979 23.2199 8.26443C23.1628 8.34047 22.5926 10.1273 21.9557 12.2469C21.3189 14.3664 20.7582 16.1248 20.7296 16.1723C20.6726 16.2294 20.1404 14.5565 19.1329 11.1729C18.9047 10.4125 18.9903 10.4315 14.7702 10.46L11.1014 10.4885L10.8733 10.7547C10.5977 11.0778 10.5881 11.2869 10.8448 11.6196L11.0349 11.8667H14.447C17.6121 11.8667 17.8592 11.8762 17.9068 12.0283C19.1614 16.2294 20.0928 19.1663 20.2164 19.2994C20.3875 19.4895 20.8247 19.5275 21.0908 19.3754C21.3189 19.2518 21.3189 19.2804 22.5831 15.0983C23.1914 13.0833 23.7141 11.401 23.7616 11.363C23.7997 11.3249 23.9232 11.6386 24.0468 12.0568C24.1703 12.4845 24.3509 12.9312 24.446 13.0643L24.6266 13.2924H28.3619C31.9832 13.2924 32.0972 13.2829 32.2683 13.1023C32.5059 12.8362 32.4869 12.38 32.2303 12.1233C32.0307 11.9142 31.9737 11.9142 28.7516 11.8857L25.482 11.8572L25.1778 10.8877C25.0163 10.3555 24.7786 9.56657 24.6456 9.12936C24.3414 8.13136 24.0373 7.84622 23.524 8.06483Z" fill="#0D5FF9"/>
</svg>
