<?xml version="1.0" encoding="UTF-8"?>
<!DOCTYPE svg PUBLIC "-//W3C//DTD SVG 1.1//EN" "http://www.w3.org/Graphics/SVG/1.1/DTD/svg11.dtd">
<svg xmlns="http://www.w3.org/2000/svg" version="1.1" width="512px" height="512px" style="shape-rendering:geometricPrecision; text-rendering:geometricPrecision; image-rendering:optimizeQuality; fill-rule:evenodd; clip-rule:evenodd" xmlns:xlink="http://www.w3.org/1999/xlink">
<g><path style="opacity:0.982" fill="#000000" d="M 118.5,-0.5 C 209.833,-0.5 301.167,-0.5 392.5,-0.5C 459.163,12.1627 498.829,51.8294 511.5,118.5C 511.5,209.833 511.5,301.167 511.5,392.5C 498.829,459.171 459.163,498.837 392.5,511.5C 301.167,511.5 209.833,511.5 118.5,511.5C 51.8294,498.829 12.1627,459.163 -0.5,392.5C -0.5,301.167 -0.5,209.833 -0.5,118.5C 12.1627,51.8373 51.8294,12.1706 118.5,-0.5 Z M 134.5,29.5 C 219.848,29.0386 305.182,29.5386 390.5,31C 428.047,37.8959 455.213,58.3959 472,92.5C 478.007,106.197 481.007,120.53 481,135.5C 481.667,215.5 481.667,295.5 481,375.5C 478.87,419.958 458.037,452.125 418.5,472C 405.113,477.847 391.113,480.847 376.5,481C 295.833,481.667 215.167,481.667 134.5,481C 90.4484,478.573 58.615,457.74 39,418.5C 32.9918,404.8 29.9918,390.467 30,375.5C 29.3333,295.5 29.3333,215.5 30,135.5C 31.161,95.4015 48.661,64.9015 82.5,44C 98.8432,35.0847 116.177,30.2513 134.5,29.5 Z M 246.5,158.5 C 296.314,157.636 330.147,180.303 348,226.5C 359.26,273.125 345.427,310.291 306.5,338C 267.053,359.495 229.386,356.828 193.5,330C 162.468,301.717 152.302,267.217 163,226.5C 177.342,187.101 205.175,164.434 246.5,158.5 Z"/></g>
<g><path style="opacity:0.922" fill="#000000" d="M 393.5,97.5 C 407.984,96.4829 414.484,103.15 413,117.5C 407.929,127.858 400.096,130.691 389.5,126C 381.718,119.194 380.551,111.361 386,102.5C 388.479,100.686 390.979,99.0192 393.5,97.5 Z"/></g>
<g><path style="opacity:0.961" fill="#000000" d="M 244.5,127.5 C 297.139,125.732 337.639,146.732 366,190.5C 390.712,237.489 389.046,283.489 361,328.5C 326.621,373.413 281.454,390.579 225.5,380C 183.994,368.821 154.494,343.655 137,304.5C 117.015,246.605 129.515,197.105 174.5,156C 195.287,140.102 218.62,130.602 244.5,127.5 Z M 246.5,158.5 C 205.175,164.434 177.342,187.101 163,226.5C 152.302,267.217 162.468,301.717 193.5,330C 229.386,356.828 267.053,359.495 306.5,338C 345.427,310.291 359.26,273.125 348,226.5C 330.147,180.303 296.314,157.636 246.5,158.5 Z"/></g>
</svg>
