<svg width="39" height="38" viewBox="0 0 39 38" fill="none" xmlns="http://www.w3.org/2000/svg">
<path d="M7.68683 0.147243C7.40462 0.228937 7.15211 0.310631 7.13726 0.325485C7.10755 0.355191 8.31811 5.138 8.39237 5.25683C8.42951 5.31625 8.57804 5.30139 8.95681 5.21227C9.23902 5.14543 9.49896 5.06374 9.52866 5.03403C9.58065 4.98947 8.6226 1.0236 8.34781 0.110109C8.30325 -0.038425 8.34039 -0.0458517 7.68683 0.147243Z" fill="#0D5FF9"/>
<path d="M26.3797 0.250893C26.1198 0.429134 26.0752 0.570244 25.8822 1.91448C25.7782 2.61259 25.6593 3.25129 25.6222 3.33298C25.4885 3.57807 25.2063 3.71175 24.9538 3.65976C24.7607 3.6152 24.5676 3.39983 23.8695 2.47149C22.9709 1.26836 22.7704 1.10497 22.4064 1.23865C22.295 1.28321 21.7826 1.63969 21.2627 2.03331L20.3121 2.74627L19.6363 2.70171C17.6756 2.58289 15.5367 3.04334 13.6875 3.97911C12.5066 4.57325 11.6006 5.23423 10.6574 6.18485C8.68927 8.15293 7.53813 10.5221 7.18907 13.2848C7.10738 13.9829 7.09253 14.02 6.92171 14.02C6.82516 14.02 6.65435 14.1092 6.54295 14.2206C6.37213 14.3988 6.30529 14.5919 6.12705 15.4831C6.00822 16.0698 5.88197 16.5451 5.84484 16.5451C5.81513 16.5451 5.39923 16.2703 4.91649 15.9361C3.6688 15.0598 3.76535 15.0375 2.37655 16.4412C1.43336 17.3844 1.26254 17.5923 1.26254 17.778C1.26254 17.9414 1.44821 18.2681 1.89382 18.9291C2.24287 19.4341 2.52509 19.8649 2.52509 19.8872C2.52509 19.9094 2.04978 20.0283 1.47049 20.1471C0.571858 20.3253 0.378763 20.3922 0.207948 20.563L0 20.7635V22.2266V23.6896L0.207948 23.8902C0.378763 24.061 0.571858 24.1278 1.44821 24.3061C2.02007 24.4249 2.50281 24.5289 2.51766 24.5437C2.53994 24.5586 2.25773 25.0042 1.90124 25.5315C1.31453 26.393 1.24769 26.5118 1.29225 26.7346C1.32938 26.9277 1.58189 27.2248 2.39883 28.0417C3.77278 29.4157 3.6688 29.3934 4.89421 28.5467C5.40666 28.1977 5.83741 27.908 5.86712 27.908C5.8894 27.908 6.00822 28.3833 6.12705 28.9626C6.30529 29.8613 6.37213 30.0544 6.54295 30.2252L6.74347 30.4331H8.20654H9.6696L9.87012 30.2252C10.0409 30.0544 10.1078 29.8613 10.286 28.9626C10.4048 28.3833 10.5237 27.908 10.546 27.908C10.5757 27.908 11.0064 28.1977 11.5189 28.5467C12.67 29.3414 12.7071 29.3414 13.4869 28.569L14.0217 28.0417L14.0514 29.2151C14.0737 30.2252 14.1034 30.448 14.237 30.745C14.445 31.2055 14.7272 31.562 15.0391 31.7774L15.2916 31.9482L15.3139 33.9979L15.3362 36.0403L15.5441 36.4859C15.8115 37.0652 16.2497 37.5034 16.8141 37.7633C17.2597 37.9638 17.2969 37.9712 18.8268 37.9935C20.5201 38.0232 21.0919 37.9564 21.5746 37.6742C22.0203 37.4142 22.4287 36.9761 22.6441 36.523C22.8372 36.1146 22.8372 36.0997 22.8595 34.0351L22.8892 31.9556L23.1788 31.7476C23.3422 31.6362 23.5724 31.3837 23.6987 31.1906C24.0849 30.5817 24.1369 30.2697 24.1369 28.5764C24.1369 26.1182 24.3597 25.6057 25.8747 24.5289C26.8699 23.8233 27.063 23.6451 26.9887 23.5114C26.9516 23.452 26.7734 23.2292 26.5803 23.0287L26.2461 22.6499L25.9861 22.8653C25.8524 22.9841 25.4217 23.3035 25.0429 23.5782C23.9586 24.3506 23.4239 25.0339 23.0823 26.0513C22.9412 26.4747 22.9189 26.7643 22.8818 28.3982L22.8372 30.2623L22.6292 30.5297C22.2356 31.0421 22.3173 31.0347 19.0273 31.0124L16.0789 30.9901L15.8338 30.8193C15.3659 30.4777 15.3436 30.3737 15.2916 28.2794C15.2471 26.1553 15.1877 25.8805 14.6381 25.0339C14.2742 24.4769 13.9325 24.1427 13.071 23.5263C12.1501 22.8653 11.6748 22.4568 11.051 21.7661C9.7513 20.3328 8.85266 18.4909 8.45904 16.4337C8.30308 15.6391 8.32536 13.4036 8.49618 12.609C9.17944 9.41547 11.0584 6.82355 13.784 5.31592C15.2099 4.52869 16.673 4.09051 18.3663 3.95683C18.9159 3.91227 18.9382 3.9197 18.9382 4.06823C18.9382 4.29103 19.0124 4.41729 19.8739 5.56843C20.6686 6.63788 20.78 6.89782 20.5498 7.19488C20.3195 7.49195 20.1933 7.49938 18.7525 7.29143C17.2374 7.07606 17.0295 7.09091 16.8661 7.46967C16.7324 7.75932 16.2274 11.4207 16.2868 11.6583C16.3759 11.9925 16.621 12.0891 17.9356 12.2822C18.6114 12.3787 19.2501 12.4827 19.3541 12.505C19.7328 12.6015 19.8814 13.1511 19.6214 13.4705C19.5546 13.5596 19.0199 13.9829 18.448 14.4137C17.3934 15.2009 17.3043 15.2974 17.3043 15.6168C17.3043 15.8173 19.6511 19.0108 19.8962 19.1371C20.2156 19.3079 20.4087 19.2262 21.5152 18.4018C22.1168 17.9488 22.6887 17.5626 22.7778 17.5403C23.0229 17.4735 23.3422 17.6072 23.4685 17.8225C23.565 18.0008 23.5576 18.1567 23.4016 19.2707C23.3125 19.954 23.2457 20.6521 23.2605 20.8081C23.2976 21.2982 23.4388 21.3502 25.4068 21.6324C27.4715 21.9369 27.7908 21.9518 27.9988 21.7438C28.177 21.5656 28.1844 21.5433 28.4072 19.9986C28.5706 18.84 28.6003 18.7212 28.7786 18.5652C28.9717 18.4018 29.2093 18.3573 29.447 18.4464C29.5138 18.4761 29.9223 18.9662 30.353 19.5455C30.7838 20.1174 31.1997 20.6521 31.2814 20.719C31.6304 21.0235 31.8235 20.9343 33.5688 19.6272C35.2175 18.387 35.4106 18.1939 35.3215 17.8448C35.2992 17.7557 34.9205 17.2061 34.4749 16.612C34.0293 16.0178 33.6431 15.4683 33.6134 15.3791C33.5465 15.1638 33.6728 14.8667 33.903 14.7182C34.0887 14.5993 34.1704 14.5993 35.4998 14.785C36.9405 14.9855 37.1411 14.9855 37.349 14.733C37.4381 14.629 38.0174 11.0196 38.0249 10.5518C38.0249 10.4626 37.9506 10.2993 37.8615 10.1953C37.7055 10.017 37.5793 9.98733 36.2499 9.79424C35.3661 9.66056 34.7794 9.54173 34.7125 9.47489C34.5417 9.30407 34.4674 8.93274 34.564 8.73964C34.6086 8.6431 35.0987 8.21977 35.6483 7.80387C36.7623 6.95723 36.9851 6.74185 36.9851 6.48192C36.9851 6.36309 36.5841 5.76152 35.8637 4.79605C34.4452 2.89481 34.4303 2.87996 34.0813 2.87996C33.8436 2.87996 33.6431 2.99878 32.6999 3.6969C32.0983 4.14993 31.5265 4.53611 31.4373 4.5584C31.1848 4.62524 30.8655 4.43214 30.7764 4.15735C30.717 3.96426 30.7392 3.65234 30.8729 2.74627C31.0809 1.28321 31.0809 1.14953 30.8803 0.911873C30.717 0.726204 30.6056 0.703922 28.7043 0.429134C27.6052 0.265747 26.662 0.132065 26.6248 0.132065C26.5803 0.132065 26.4689 0.184052 26.3797 0.250893ZM29.6846 1.86992C29.7069 1.88477 29.6624 2.27839 29.5955 2.74627C29.4173 3.94198 29.4321 4.33559 29.6624 4.78862C30.1154 5.69468 31.2442 6.0883 32.1206 5.65012C32.2394 5.58328 32.7073 5.27136 33.1455 4.93716C33.5837 4.61038 33.955 4.35787 33.9699 4.37273C34.2669 4.75149 35.3661 6.24426 35.3884 6.31853C35.4106 6.37052 35.1136 6.63788 34.7125 6.92752C33.5391 7.7816 33.2569 8.19006 33.2569 9.007C33.2495 9.76453 33.6951 10.4329 34.3709 10.7226C34.5194 10.782 35.0913 10.9008 35.6409 10.9825C36.1904 11.0568 36.6509 11.1385 36.6658 11.1459C36.6732 11.1608 36.5989 11.7029 36.5024 12.349C36.3984 13.0026 36.3167 13.5596 36.3167 13.5819C36.3167 13.6041 35.8934 13.5596 35.3735 13.4853C34.8462 13.4036 34.2521 13.3591 34.0441 13.3739C32.9227 13.4853 32.1577 14.5251 32.3805 15.6316C32.4474 15.9584 32.5959 16.2035 33.1306 16.9239C33.4945 17.4066 33.7916 17.8225 33.7916 17.8374C33.7916 17.8522 33.346 18.2013 32.7964 18.6098L31.8013 19.3599L31.1403 18.4909C30.2936 17.3769 30.004 17.1764 29.1945 17.1764C28.5186 17.1838 28.1547 17.3398 27.7463 17.8225C27.4269 18.1939 27.3007 18.5949 27.1744 19.6421C27.1224 20.058 27.063 20.4367 27.0333 20.4887C26.9887 20.5481 26.6768 20.5333 25.7782 20.407C24.3968 20.2065 24.5231 20.3402 24.6939 19.2188C24.8573 18.1345 24.8424 17.7483 24.5973 17.2804C24.226 16.5748 23.5279 16.1887 22.7555 16.2703C22.2653 16.3223 22.05 16.4337 21.1068 17.1467L20.327 17.7334L19.5991 16.7531C19.1907 16.2184 18.8639 15.7505 18.8639 15.7282C18.8639 15.6985 19.2278 15.394 19.6808 15.0598C20.1264 14.7182 20.5795 14.3171 20.6834 14.1686C21.3073 13.2625 21.0399 12.0074 20.0967 11.4578C19.8516 11.3167 19.5174 11.235 18.7079 11.1088C18.1212 11.0271 17.6311 10.9454 17.6162 10.938C17.5791 10.9082 17.9133 8.56883 17.9653 8.50941C17.9875 8.47971 18.4628 8.52427 19.0124 8.60596C20.3492 8.79906 20.8171 8.70993 21.3816 8.1455C21.7232 7.80387 21.8494 7.50681 21.894 6.95723C21.9386 6.32596 21.8049 6.02889 21.0548 5.03371C20.7429 4.62524 20.4978 4.2539 20.5126 4.21677C20.5349 4.15735 22.3916 2.73142 22.4584 2.73142C22.4733 2.73142 22.7704 3.11761 23.1268 3.58549C23.4759 4.05338 23.8918 4.52126 24.0477 4.61781C24.835 5.13025 25.7633 5.01885 26.454 4.32817C26.7882 3.98654 26.9145 3.63005 27.0704 2.50862C27.1373 2.04073 27.2041 1.61741 27.219 1.57285C27.2338 1.51344 27.6126 1.54314 28.4518 1.6694C29.1128 1.76595 29.6698 1.85506 29.6846 1.86992ZM7.60497 18.0231C7.67181 18.2459 7.7238 18.4389 7.7238 18.4464C7.7238 18.4538 7.54556 18.5058 7.33761 18.5504C5.81513 18.9068 4.59715 20.2956 4.4189 21.8701C4.26294 23.1995 5.01304 24.722 6.14933 25.4126C7.9466 26.5044 10.1672 26.0365 11.3258 24.3209L11.5634 23.9644L11.7788 24.1427C11.8976 24.2318 12.217 24.4695 12.4843 24.6625C13.071 25.071 13.5166 25.5612 13.7394 26.0291L13.9028 26.3707L13.227 27.0465L12.5586 27.7149L11.8085 27.2099C11.3926 26.9277 10.9321 26.6678 10.7762 26.6306C10.2563 26.4969 9.6696 26.7792 9.40224 27.299C9.35025 27.4104 9.224 27.8783 9.12745 28.3314L8.95664 29.1706H8.19911H7.44901L7.32275 28.5393C7.05539 27.1876 6.83259 26.8237 6.16419 26.6455C5.73343 26.5267 5.44379 26.6381 4.58972 27.2173L3.85447 27.7149L3.29004 27.1431L2.71818 26.5786L3.2232 25.836C3.49799 25.4275 3.75792 24.967 3.78763 24.8111C3.93617 24.1872 3.53512 23.5337 2.889 23.348C2.68848 23.2886 2.23545 23.1772 1.89382 23.1104L1.26254 22.9841V22.2266V21.4691L2.09434 21.2982C2.55479 21.2091 3.02268 21.0903 3.12665 21.0309C3.60939 20.7858 3.90646 20.1545 3.79506 19.6569C3.75792 19.5084 3.51284 19.0554 3.23805 18.6618C2.97069 18.2681 2.74789 17.9191 2.74789 17.8894C2.74789 17.8671 3.0004 17.5923 3.30489 17.2878L3.85447 16.7382L4.63428 17.273C5.48093 17.8448 5.75571 17.9414 6.20875 17.8151C6.70634 17.6814 7.04797 17.2655 7.16679 16.6565C7.22621 16.3595 7.22621 16.3669 7.35246 16.9907C7.42673 17.3398 7.53813 17.8003 7.60497 18.0231ZM8.43676 20.1248C8.86751 20.9789 9.35025 21.677 10.1672 22.6276L10.5757 23.0955L10.3974 23.4297C10.1598 23.8827 9.58048 24.3803 9.07546 24.566C8.73383 24.6997 8.54074 24.722 8.058 24.6997C7.06282 24.6477 6.36471 24.165 5.92653 23.244C5.71858 22.8059 5.70373 22.7316 5.73343 22.13C5.75571 21.6696 5.81513 21.3874 5.93396 21.1423C6.30529 20.3625 7.17422 19.7609 7.96145 19.7461C8.22882 19.7386 8.2511 19.7609 8.43676 20.1248ZM21.6118 32.9211V33.5523H19.0867H16.5616V32.9731C16.5616 32.6537 16.5839 32.3641 16.6136 32.3418C16.6359 32.3121 17.7722 32.2898 19.1387 32.2898H21.6118V32.9211ZM21.6118 35.2753C21.6118 35.8472 21.4187 36.2705 21.0399 36.523C20.7726 36.7087 20.7354 36.7087 19.1684 36.731C17.3637 36.7533 17.2449 36.7236 16.8364 36.2185C16.673 36.0106 16.6136 35.8398 16.5839 35.4981C16.517 34.7555 16.2942 34.8149 19.1238 34.8149H21.6118V35.2753Z" fill="#0D5FF9"/>
<path d="M26.0975 6.1104C24.5602 6.4446 23.2977 7.43978 22.6218 8.83601C22.2282 9.66038 22.1094 10.1877 22.1094 11.0863C22.1168 12.438 22.607 13.604 23.5799 14.5843C24.0849 15.0893 24.3003 15.2453 24.887 15.5275C25.8005 15.9657 26.2312 16.0622 27.219 16.0548C27.8799 16.0474 28.1473 16.0102 28.63 15.8543C30.0114 15.4012 31.0437 14.4952 31.6824 13.1732C32.6256 11.22 32.128 8.76917 30.5016 7.29867C29.9446 6.79366 28.9123 6.25893 28.1844 6.1104C27.5457 5.97672 26.7065 5.97672 26.0975 6.1104ZM28.0211 7.37294C29.3653 7.722 30.4347 8.78402 30.7912 10.1208C31.1254 11.3462 30.7244 12.7573 29.7738 13.7079C28.2884 15.1933 25.9638 15.1784 24.4636 13.6857C22.9709 12.1929 22.9857 9.8609 24.4934 8.38298C25.4737 7.42493 26.7808 7.04617 28.0211 7.37294Z" fill="#0D5FF9"/>
<path d="M2.03473 3.9566C1.84906 4.22396 1.70053 4.45419 1.71538 4.46905C1.98274 4.677 5.99318 7.50658 6.05259 7.52886C6.12686 7.55857 6.87696 6.60794 6.81754 6.55596C6.64673 6.40742 2.48776 3.47387 2.4432 3.47387C2.41349 3.47387 2.22782 3.68924 2.03473 3.9566Z" fill="#0D5FF9"/>
<path d="M13.9026 7.52186C12.135 8.81411 10.8799 10.7599 10.4418 12.9062C9.75106 16.3077 11.1473 19.8205 13.9992 21.8554C14.3259 22.0931 15.0983 22.5238 15.7073 22.8209C16.7322 23.3185 16.8659 23.4076 17.3189 23.8829C17.8833 24.4845 18.2398 25.1603 18.3586 25.851C18.4998 26.7348 18.4181 26.6457 19.1087 26.6457H19.7252L19.6732 26.1407C19.5989 25.4574 19.5395 25.2049 19.3093 24.6405C19.0493 23.9943 18.6557 23.4076 18.1358 22.9026C17.564 22.3456 17.2966 22.1674 16.2717 21.6846C15.1577 21.1648 14.5487 20.7637 13.8655 20.1102C12.6104 18.9219 11.786 17.2583 11.578 15.5056C11.281 12.8914 12.4247 10.1955 14.5042 8.65072C14.779 8.4502 15.0018 8.2571 15.0018 8.21997C15.0018 8.16798 14.4076 7.18766 14.3779 7.18766C14.3705 7.18766 14.1551 7.33619 13.9026 7.52186Z" fill="#0D5FF9"/>
<path d="M3.14175 10.2545C1.82722 10.5887 0.73549 10.8858 0.705784 10.9081C0.661223 10.9601 0.884025 11.9404 0.965719 12.0369C1.00285 12.0815 5.43661 11.0343 5.91935 10.8635C6.03075 10.8264 5.73368 9.63812 5.61485 9.64554C5.57029 9.64554 4.45628 9.92776 3.14175 10.2545Z" fill="#0D5FF9"/>
<path d="M31.1182 24.1575V24.7888H33.309H35.4999V24.1575V23.5263H33.309H31.1182V24.1575Z" fill="#0D5FF9"/>
<path d="M30.4497 27.2841C30.2343 27.5514 30.0857 27.7965 30.1229 27.8262C30.16 27.8559 31.0067 28.5615 32.0018 29.3933L33.8214 30.9009L34.215 30.4627C34.4304 30.225 34.6086 30.0022 34.6086 29.9725C34.6086 29.928 31.6305 27.4103 30.9621 26.8904C30.8656 26.8088 30.7839 26.8682 30.4497 27.2841Z" fill="#0D5FF9"/>
<path d="M18.4927 28.8366V29.7649H19.1239H19.7552V28.8366V27.9082H19.1239H18.4927V28.8366Z" fill="#0D5FF9"/>
<path d="M27.3303 30.73V32.958H27.9616H28.5929L28.578 30.7448L28.5557 28.5391L27.9467 28.5168L27.3303 28.4945V30.73Z" fill="#0D5FF9"/>
</svg>
