<svg width="41" height="38" viewBox="0 0 41 38" fill="none" xmlns="http://www.w3.org/2000/svg">
<path d="M31.289 0.141483C31.0296 0.298671 30.9353 0.534451 30.4874 2.23993C30.1022 3.70177 30.0629 4.03187 30.2751 4.30694C30.5581 4.67633 31.3362 4.63704 31.5484 4.25193C31.7213 3.92184 32.4915 0.785951 32.4443 0.597326C32.3815 0.322249 31.9806 1.52588e-05 31.7213 1.52588e-05C31.6034 1.52588e-05 31.4148 0.0628901 31.289 0.141483Z" fill="#0D5FF9"/>
<path d="M21.245 1.80766C20.797 1.88625 20.3175 2.12203 20.0268 2.42068C19.901 2.54643 17.4567 5.63516 14.5881 9.2819L9.37732 15.9231L6.25715 17.7229C4.54381 18.7053 2.84619 19.7034 2.49252 19.9392C1.34505 20.6858 0.590556 21.6918 0.181869 23.0279C0.0246823 23.5152 -0.00675515 23.7824 0.00110421 24.5998C0.00110421 25.4565 0.0325416 25.6608 0.221166 26.211C1.01496 28.5452 3.0584 30.0228 5.47908 30.0228C6.04495 30.0228 6.45364 29.952 7.40462 29.6927C7.45964 29.6769 8.28487 31.0209 9.50307 33.1272C11.7194 36.9626 11.9788 37.3241 12.8276 37.7406C13.3227 37.9843 13.4013 38 14.1794 38C14.9103 38 15.0596 37.9764 15.4526 37.7878C15.987 37.5442 16.6079 36.9783 16.8909 36.5067C17.3467 35.7208 17.4332 34.6676 17.1031 33.8267C17.0166 33.6145 16.4272 32.5377 15.7906 31.4374C15.1539 30.3371 14.6195 29.4019 14.5959 29.3468C14.5802 29.2997 15.0439 28.9853 15.6334 28.6474C16.215 28.3173 16.7494 27.9636 16.8123 27.8771C17.0402 27.5471 16.9616 27.1934 16.4193 26.2503C15.9242 25.3857 15.8534 25.2285 15.9556 25.2285C15.9792 25.2285 18.785 24.6784 22.1881 24.0182C25.5833 23.3502 29.0965 22.6585 30.0003 22.4856C30.8962 22.3049 31.7293 22.1162 31.8472 22.0534C32.2088 21.8647 32.7353 21.3067 32.9004 20.9295C33.0969 20.4815 33.1676 19.7899 33.0497 19.3655C33.0026 19.1847 32.4445 18.1394 31.8158 17.0469C31.187 15.9466 30.5662 14.8699 30.4404 14.642L30.2046 14.2412L31.0692 12.9444C31.5407 12.2292 31.9494 11.5375 31.9808 11.4118C32.0359 11.1289 32.028 11.1131 31.022 9.37622C30.6133 8.66887 30.181 8.02441 30.071 7.93009C29.8745 7.77291 29.7959 7.76505 29.0729 7.8122C28.6406 7.83578 27.9018 7.87508 27.4224 7.90652L26.5579 7.95367L25.1039 5.4151C24.3022 4.01613 23.5163 2.71934 23.3434 2.53857C22.8247 1.96484 22.0073 1.6819 21.245 1.80766ZM22.1016 3.52099C22.3138 3.67818 31.4621 19.4991 31.525 19.8213C31.6193 20.3086 31.2421 20.7016 30.6133 20.7644L30.354 20.788L25.5283 12.4335C21.8108 5.99669 20.7184 4.04757 20.7734 3.9454C20.8677 3.7725 21.2607 3.41096 21.41 3.35595C21.5829 3.29307 21.8894 3.36381 22.1016 3.52099ZM24.2236 13.3216C26.6915 17.5971 28.7035 21.1024 28.6956 21.1181C28.6563 21.1495 15.0203 23.8217 15.0046 23.7981C14.8553 23.6017 10.8785 16.6147 10.8942 16.5754C10.9649 16.371 19.6338 5.42296 19.6809 5.47797C19.7124 5.50941 21.7558 9.03826 24.2236 13.3216ZM29.7566 10.3272L30.2989 11.2625L29.8431 11.9541C29.5916 12.3392 29.3558 12.6457 29.3244 12.63C29.2929 12.6221 28.8607 11.9148 28.3655 11.0581C27.3438 9.29762 27.3438 9.45481 28.4048 9.40765C28.7271 9.39194 29.0414 9.38408 29.1043 9.38408C29.1593 9.39194 29.458 9.80848 29.7566 10.3272ZM11.6172 21.0631C12.6783 22.8943 13.5349 24.4033 13.5271 24.4112C13.4799 24.4583 7.47536 27.9086 7.216 28.0422C4.92892 29.2054 2.10741 27.7986 1.60441 25.2443C1.3372 23.9082 1.92665 22.3284 2.98766 21.5032C3.53782 21.0867 9.56594 17.605 9.63668 17.6678C9.66026 17.6993 10.5562 19.224 11.6172 21.0631ZM14.761 26.5096L15.1147 27.1148L14.9417 27.2248C13.9436 27.8378 13.7707 27.9164 13.7 27.8143C13.5035 27.5235 12.9848 26.5489 13.0083 26.5332C13.2048 26.376 14.313 25.8023 14.3444 25.8416C14.3759 25.873 14.5645 26.1717 14.761 26.5096ZM13.6292 30.8244C15.7513 34.5104 15.8613 34.7619 15.6884 35.3593C15.3426 36.4831 13.8572 36.8604 13.0555 36.0116C12.8826 35.823 9.06295 29.2918 8.96077 29.001C8.92934 28.9146 9.29873 28.6631 10.234 28.1208C10.9571 27.7042 11.5622 27.3584 11.5858 27.3584C11.6094 27.3584 12.5289 28.9146 13.6292 30.8244Z" fill="#0D5FF9"/>
<path d="M9.91176 22.8785C9.68384 23.0121 9.52665 23.4129 9.57381 23.7037C9.66812 24.1753 10.2812 24.4425 10.7291 24.2067C11.1457 23.9788 11.2086 23.2558 10.8234 22.9492C10.6034 22.7763 10.1475 22.7449 9.91176 22.8785Z" fill="#0D5FF9"/>
<path d="M7.06658 24.5291C6.89368 24.6234 6.54 24.8199 6.28851 24.9692C6.03701 25.1186 5.72263 25.26 5.60474 25.2836C5.31394 25.3386 4.94456 25.1893 4.78737 24.9378C4.62232 24.6942 4.1822 24.5055 3.92284 24.5684C3.43556 24.6863 3.18406 25.3622 3.467 25.7788C4.00929 26.5961 4.8974 26.9891 5.8641 26.8476C6.28851 26.7848 7.84466 25.9438 8.15117 25.6137C8.44983 25.2915 8.44197 24.9064 8.13546 24.592C7.85252 24.3091 7.51457 24.2933 7.06658 24.5291Z" fill="#0D5FF9"/>
<path d="M36.9717 4.58188C34.331 6.05158 34.4017 6.00443 34.3074 6.34238C34.1659 6.85324 34.4881 7.30908 34.9911 7.30908C35.4077 7.30908 39.8325 4.87268 40.0526 4.51901C40.3669 4.01601 40.0133 3.3794 39.4238 3.3794C39.1959 3.3794 38.6615 3.63876 36.9717 4.58188Z" fill="#0D5FF9"/>
<path d="M34.8105 10.956C34.449 11.3175 34.4726 11.8362 34.8577 12.1192C34.9677 12.1978 35.7772 12.465 36.6575 12.7008C37.9385 13.0466 38.3236 13.1173 38.5358 13.0702C39.0939 12.9366 39.3218 12.2135 38.9288 11.8205C38.7638 11.6633 38.3865 11.5297 37.1369 11.1918C35.3292 10.7124 35.0856 10.6809 34.8105 10.956Z" fill="#0D5FF9"/>
</svg>
