<svg width="57" height="57" viewBox="0 0 57 57" fill="none" xmlns="http://www.w3.org/2000/svg">
<path d="M46.8654 0.173946C46.5201 0.296463 46.0189 0.5415 45.7516 0.730846C45.4843 0.920193 36.2731 10.0645 25.2911 21.0466L5.33177 41.017L2.7032 47.4102C1.25526 50.9187 0.041221 53.9927 0.018945 54.2266C-0.170401 55.5966 1.08819 57 2.51386 57C2.99279 57 3.41603 56.8329 10.0097 54.1153L15.9574 51.6649L35.9947 31.6388C47.0102 20.6233 56.1656 11.3899 56.3438 11.1115C57.1123 9.89742 57.2126 8.32696 56.5777 7.05723C56.2993 6.50033 55.7424 5.8766 53.37 3.51534C50.9642 1.12067 50.3961 0.608334 49.8504 0.363297C48.9816 -0.0376701 47.7453 -0.115643 46.8654 0.173946ZM45.1724 11.802C47.4 14.0296 49.2155 15.8897 49.2155 15.9565C49.2155 16.1013 47.077 18.2398 46.9322 18.2398C46.8765 18.2398 44.983 16.402 42.7332 14.1521L38.6344 10.0534L39.7705 8.91727C40.4053 8.28241 40.9622 7.77006 41.0291 7.77006C41.0848 7.77006 42.9559 9.58556 45.1724 11.802ZM39.3027 13.0606L41.0291 14.787L33.923 21.893C26.2378 29.5894 26.494 29.2775 27.1066 29.879C27.708 30.4916 27.3961 30.7477 35.0925 23.0625L42.1986 15.9565L43.9249 17.6829C44.8717 18.6296 45.6513 19.4538 45.6513 19.5206C45.6513 19.5763 38.8683 26.4151 30.5816 34.7017L15.523 49.7603L13.741 47.9782L11.9589 46.1961L19.0649 39.0901C26.7501 31.3937 26.494 31.7056 25.8814 31.1042C25.2799 30.4916 25.5918 30.2354 17.8954 37.9206L10.7894 45.0267L9.00731 43.2446L7.22523 41.4625L22.2838 26.4039C30.5705 18.1173 37.4092 11.3342 37.4649 11.3342C37.5317 11.3342 38.3559 12.1139 39.3027 13.0606ZM10.1768 46.8644C12.2485 48.9361 13.9303 50.6625 13.908 50.6848C13.8189 50.7516 7.74872 53.2354 7.52596 53.3022C7.37002 53.3467 6.84654 52.8901 5.4877 51.5312C4.48528 50.5288 3.66107 49.6601 3.66107 49.5932C3.66107 49.4373 6.26736 43.0775 6.33419 43.0775C6.3676 43.0775 8.09399 44.7816 10.1768 46.8644Z" fill="white" fill-opacity="0.2"/>
</svg>
