<svg width="30" height="22" viewBox="0 0 30 22" fill="none" xmlns="http://www.w3.org/2000/svg">
<path d="M14.2092 0.765387C12.4631 1.0232 11.0686 2.21851 10.5354 3.92359C10.342 4.5564 10.342 5.74585 10.5354 6.38452C11.1331 8.30054 12.8264 9.54858 14.8362 9.55444C15.6096 9.55444 16.0842 9.44897 16.7874 9.10913C17.7249 8.65796 18.3577 8.02515 18.8381 7.07593C19.1956 6.36695 19.2952 5.85132 19.2659 4.9607C19.2424 4.38648 19.2073 4.1521 19.0784 3.7771C18.8499 3.10914 18.5041 2.55249 17.9944 2.04273C17.2737 1.32203 16.4241 0.906012 15.3928 0.765387C14.8772 0.695074 14.7131 0.695074 14.2092 0.765387ZM15.9377 1.87281C16.9924 2.23023 17.8303 3.06812 18.1702 4.11109C18.3518 4.66773 18.3694 5.59937 18.1995 6.09155C17.7717 7.35718 16.9045 8.17749 15.6565 8.49976C14.5256 8.78687 13.3303 8.47632 12.4456 7.65015C11.9827 7.22241 11.719 6.81226 11.5022 6.19702C11.303 5.62866 11.2913 4.73804 11.4788 4.15796C11.8479 2.99781 12.9436 1.99585 14.092 1.76148C14.5666 1.66773 15.4983 1.72046 15.9377 1.87281Z" fill="#0D5FF9"/>
<path d="M23.3196 3.83503C22.136 4.10456 21.1048 5.04792 20.7356 6.20807C20.5892 6.65338 20.5599 7.6026 20.677 8.02448C20.8352 8.5987 21.1517 9.13776 21.5794 9.57721C22.0599 10.0577 22.3821 10.2628 22.9739 10.462C23.8587 10.7608 24.7493 10.6905 25.6399 10.2569C27.972 9.1026 28.1888 5.84479 26.0325 4.36823C25.2591 3.84089 24.2044 3.63581 23.3196 3.83503ZM24.7903 4.83698C25.2356 4.97174 25.5403 5.1651 25.8919 5.53424C27.0579 6.76471 26.6595 8.71588 25.095 9.44245C24.0755 9.92291 22.7571 9.59479 22.0774 8.69831C21.7083 8.21784 21.597 7.85456 21.5911 7.17487C21.5911 6.63581 21.6087 6.55963 21.7786 6.19049C22.0833 5.54596 22.6634 5.04206 23.3489 4.82526C23.6829 4.71979 24.4153 4.72565 24.7903 4.83698Z" fill="#0D5FF9"/>
<path d="M5.22014 4.07617C4.34124 4.26367 3.54436 4.80273 3.05217 5.53516C2.12639 6.91797 2.31389 8.71094 3.49749 9.87695C4.10686 10.4805 5.10295 10.8965 5.9467 10.8965C7.40569 10.8965 8.81194 9.85352 9.26311 8.43555C9.45061 7.86133 9.43889 6.9707 9.23967 6.39648C9.02874 5.79297 8.76506 5.37695 8.30803 4.94922C7.476 4.1582 6.32756 3.83594 5.22014 4.07617ZM6.97209 5.19531C7.67522 5.5293 8.10881 6.02734 8.33147 6.75977C8.68303 7.9082 8.10881 9.15625 6.98967 9.68359C6.23381 10.0352 5.22014 9.95898 4.54631 9.49023C4.18889 9.25 3.81389 8.82227 3.66155 8.47656C3.05217 7.14063 3.72014 5.59375 5.13225 5.0957C5.40764 5.00195 5.58928 4.97852 6.03459 4.99609C6.51506 5.00781 6.64397 5.03711 6.97209 5.19531Z" fill="#0D5FF9"/>
<path d="M14.2969 10.1751C12.5039 10.3509 10.7871 11.0951 9.5332 12.2435L9.13477 12.6126L8.56641 12.3431C7.875 12.015 7.40039 11.8685 6.70898 11.7748C3.96094 11.388 1.21289 13.0873 0.310547 15.7298C0.0703125 16.433 0 17.0248 0 18.2787C0 19.433 0 19.4388 0.164062 19.7494C0.28125 19.9779 0.404297 20.1126 0.615234 20.2415L0.896484 20.4173L3.86719 20.4349L6.84375 20.4525L6.87891 20.6869C6.93164 21.0267 7.10156 21.3314 7.38281 21.5833C7.88086 22.0345 7.25391 21.9994 15 21.9994C22.7461 21.9994 22.1191 22.0345 22.6172 21.5833C22.9512 21.2845 23.0977 20.9681 23.1328 20.4935L23.1621 20.1009L26.0977 20.0833C28.1836 20.0716 29.0801 20.0423 29.1855 19.9955C29.4434 19.8841 29.7773 19.556 29.8887 19.304C29.9824 19.1048 30 18.9056 30 17.9212C30 16.6732 29.9297 16.0814 29.6895 15.3783C29.0801 13.5912 27.6621 12.2083 25.8691 11.64C24.2461 11.1302 22.3535 11.3587 20.9531 12.2259L20.666 12.4076L20.3027 12.097C18.6445 10.6908 16.3887 9.96421 14.2969 10.1751ZM16.207 11.2181C19.1367 11.722 21.4336 13.931 22.0371 16.8255C22.1367 17.3177 22.166 17.6927 22.1836 18.8822C22.2129 20.4583 22.1836 20.7162 21.9316 20.9095C21.7793 21.0326 21.75 21.0326 15 21.0326C8.29102 21.0326 8.21484 21.0326 8.06836 20.9154C7.81641 20.7162 7.79297 20.5287 7.81641 18.9232C7.83398 17.6693 7.85742 17.3294 7.96289 16.8255C8.56641 13.9544 10.8457 11.7396 13.7402 11.224C14.373 11.1126 15.5684 11.1068 16.207 11.2181ZM25.3066 12.4837C27.0527 12.9291 28.4355 14.3177 28.8867 16.0755C28.9863 16.4681 29.0039 16.7259 29.0039 17.7513C29.0039 18.6126 28.9863 18.9759 28.9336 19.0287C28.8809 19.0814 28.1543 19.099 26.0098 19.099H23.1621L23.127 18.0853C23.0742 16.6205 22.8516 15.724 22.2305 14.5228C22.0781 14.224 21.8145 13.7904 21.6445 13.556L21.334 13.1283L21.5273 13.0052C22.5586 12.3724 24.0527 12.1673 25.3066 12.4837ZM7.16016 12.8529C7.6582 12.9759 8.4375 13.3099 8.4375 13.3919C8.4375 13.4095 8.32617 13.5794 8.19727 13.7787C7.85156 14.2826 7.35352 15.349 7.17773 15.9642C6.94922 16.7494 6.85547 17.4994 6.85547 18.5248V19.4505H3.99023C1.54688 19.4505 1.11914 19.4388 1.05469 19.3626C1.00195 19.2982 0.990234 18.9349 1.00781 17.9447C1.03125 16.7494 1.04883 16.5619 1.16602 16.1986C1.74023 14.4525 3.12305 13.1869 4.89258 12.8001C5.49609 12.6654 6.52148 12.6888 7.16016 12.8529Z" fill="#0D5FF9"/>
</svg>
