<?xml version="1.0" encoding="UTF-8"?>
<!DOCTYPE svg PUBLIC "-//W3C//DTD SVG 1.1//EN" "http://www.w3.org/Graphics/SVG/1.1/DTD/svg11.dtd">
<svg xmlns="http://www.w3.org/2000/svg" version="1.1" width="512px" height="512px" style="shape-rendering:geometricPrecision; text-rendering:geometricPrecision; image-rendering:optimizeQuality; fill-rule:evenodd; clip-rule:evenodd" xmlns:xlink="http://www.w3.org/1999/xlink">
<g><path style="opacity:0.978" fill="#000001" d="M 67.5,-0.5 C 74.1667,-0.5 80.8333,-0.5 87.5,-0.5C 94.6529,1.61488 101.653,4.44821 108.5,8C 223.576,74.0667 338.91,139.733 454.5,205C 481.397,223.751 486.563,247.251 470,275.5C 465.468,280.367 460.634,284.867 455.5,289C 335.833,362.502 215.833,435.502 95.5,508C 92.02,509.103 88.6867,510.269 85.5,511.5C 79.1667,511.5 72.8333,511.5 66.5,511.5C 46.3267,505.816 34.8267,492.483 32,471.5C 31.3333,327.5 31.3333,183.5 32,39.5C 35.6369,18.7061 47.4703,5.37273 67.5,-0.5 Z M 77.5,44.5 C 82.2343,46.365 86.901,48.5317 91.5,51C 203.671,115.253 316.004,179.253 428.5,243C 430.585,244.041 432.252,245.541 433.5,247.5C 315.704,320.905 197.371,393.572 78.5,465.5C 77.914,465.291 77.414,464.957 77,464.5C 76.17,324.46 76.3367,184.46 77.5,44.5 Z"/></g>
</svg>
