<svg width="37" height="37" viewBox="0 0 37 37" fill="none" xmlns="http://www.w3.org/2000/svg">
<g clip-path="url(#clip0_2830_393)">
<path d="M26.7744 3.60603C25.8494 3.94568 25.7772 4.00349 21.9904 7.42165C19.3889 9.76306 19.0709 10.081 18.8902 10.4568L18.6807 10.8759L18.659 14.3592L18.6373 17.8496H16.8018H14.9734L15.2191 17.1631C15.8912 15.2842 15.9346 13.3113 15.342 12.0972C15.0385 11.4685 14.5326 10.9554 13.9111 10.6519C13.3113 10.3556 12.8705 10.2978 12.6682 10.4929C12.5959 10.5724 12.3863 11.2734 12.1334 12.2779C11.9022 13.2174 11.6275 14.1496 11.4975 14.417C11.2012 15.0601 10.6664 15.5732 9.45235 16.3898C8.37559 17.1197 8.05762 17.4304 7.38555 18.4133C6.87246 19.1576 6.54727 19.4756 6.16426 19.5767C5.66563 19.714 5.58613 19.6924 5.54277 19.3599C5.48496 18.948 5.1959 18.5433 4.82734 18.3627C4.53106 18.2181 4.39375 18.2109 2.79668 18.2109C0.686524 18.2109 0.455274 18.276 0.137305 18.9697C0.00722656 19.2443 0 19.6129 0 25.8855C0 30.3949 0.0216797 32.5773 0.0794922 32.7146C0.173438 32.9603 0.476953 33.2927 0.73711 33.4301C1.01895 33.5746 4.54551 33.5746 4.82734 33.4301C5.28984 33.1844 5.56445 32.6785 5.56445 32.057V31.6595L6.05586 31.8474C7.08926 32.2449 8.51289 32.6713 9.31504 32.8302C10.1244 32.982 10.2979 32.9892 14.8145 32.9892C18.1387 32.9892 19.5406 32.9676 19.6996 32.9097C19.8731 32.8447 20.0104 32.8447 20.3139 32.9242C20.6391 33.0109 21.9037 33.0254 28.0029 33.0109L35.3018 32.9892L35.6848 32.8158C35.916 32.7146 36.1979 32.4978 36.4147 32.2666C37.0506 31.5656 37.0072 32.4761 36.9856 20.957C36.9639 9.73415 37 10.6158 36.5158 10.0377C36.299 9.77751 30.9441 4.95017 30.2432 4.37204C30.0047 4.18415 29.5639 3.90954 29.2676 3.76501C28.7617 3.51931 28.675 3.50486 27.9307 3.4904C27.3092 3.47595 27.0563 3.49763 26.7744 3.60603ZM28.7979 4.82732C29.3398 5.08747 29.4916 5.21033 32.8447 8.23103C34.3551 9.58962 35.6486 10.8037 35.7209 10.9338C35.8365 11.1506 35.8438 11.772 35.8438 21.1015C35.8438 30.6551 35.8365 31.0525 35.7065 31.291C35.6342 31.4283 35.4608 31.609 35.3307 31.6885C35.0922 31.833 34.9404 31.833 28.0969 31.8547C23.9994 31.8619 21.1016 31.8474 21.1016 31.8041C21.1016 31.7679 21.1522 31.6162 21.2172 31.4644C21.3979 31.0525 21.3834 30.2576 21.1883 29.824C21.0438 29.4916 21.0438 29.4844 21.1738 29.4844C21.434 29.4844 22.0482 29.2097 22.3662 28.9424C22.5758 28.7761 22.7709 28.516 22.9227 28.198C23.1322 27.7861 23.1611 27.6416 23.1611 27.1719C23.1611 26.7021 23.125 26.5576 22.9299 26.1674L22.7059 25.7049L23.0455 25.3724C23.9488 24.4836 24.0211 23.1033 23.2045 22.1711C23.0455 21.9976 22.807 21.7953 22.6625 21.7158C22.518 21.6363 22.4096 21.5568 22.424 21.5351C22.7059 21.0582 22.7998 20.733 22.7998 20.1982C22.7998 19.7068 22.7709 19.5551 22.5975 19.2082C22.3518 18.7023 21.8025 18.1965 21.3328 18.0302C21.1449 17.9652 20.7258 17.8929 20.4006 17.8713L19.8008 17.8279V14.5398C19.8008 11.3601 19.808 11.2373 19.9525 10.9554C20.0537 10.7459 20.892 9.95095 22.8793 8.16599C26.2107 5.17419 26.2975 5.10193 26.8467 4.83454C27.4609 4.53825 28.1764 4.53825 28.7979 4.82732ZM13.8967 12.0394C14.4531 12.5886 14.6338 13.2535 14.576 14.5254C14.5182 15.8117 14.0918 17.257 13.557 17.9508C13.4631 18.0736 13.3691 18.247 13.3402 18.3338C13.2752 18.5433 13.4703 18.9191 13.6799 18.9697C13.7666 18.9914 15.4143 19.0131 17.3438 19.0275L20.8486 19.042L21.116 19.2082C21.4051 19.3888 21.6797 19.8658 21.6797 20.1982C21.6797 20.5306 21.4051 21.0076 21.116 21.1883C20.8559 21.3545 20.8125 21.3545 18.2832 21.3761C15.7828 21.3978 15.7178 21.4051 15.5588 21.5496C15.3926 21.7013 15.3492 21.9832 15.4359 22.2217C15.5588 22.5324 15.7395 22.5469 18.8469 22.5469C21.8025 22.5469 21.8025 22.5469 22.0482 22.7131C22.4674 22.9949 22.6336 23.3201 22.6047 23.7609C22.5686 24.1656 22.424 24.4185 22.0844 24.6715C21.8965 24.816 21.7736 24.8232 18.7746 24.8594L15.6672 24.8955L15.5299 25.0689C15.342 25.3002 15.3564 25.6254 15.5732 25.8349L15.7467 26.0156H18.4422C21.0943 26.0156 21.1449 26.0228 21.4268 26.1818C21.817 26.3986 22.0627 26.8683 22.0193 27.3092C21.9832 27.6633 21.8098 27.9306 21.4629 28.1619C21.2244 28.3281 21.2027 28.3281 18.5578 28.3281C15.7611 28.3281 15.5588 28.3498 15.4359 28.6533C15.3492 28.8845 15.3926 29.1519 15.5516 29.3181C15.7033 29.4844 15.725 29.4844 17.4449 29.4844C18.9842 29.4844 19.2227 29.506 19.4828 29.6217C20.4584 30.0625 20.415 31.3777 19.4106 31.7607C19.1287 31.8691 18.6518 31.8763 14.5904 31.8474C10.0883 31.8185 10.0811 31.8185 9.25 31.6379C8.79473 31.5367 8.02871 31.3199 7.55176 31.1465C7.07481 30.9802 6.43164 30.7562 6.12813 30.6478L5.56445 30.4599V25.6543V20.8414L6.06309 20.7691C7.00977 20.6174 7.47227 20.2922 8.20938 19.2443C8.91758 18.2326 9.17774 17.9797 10.1172 17.3365C11.2229 16.5849 11.7143 16.1658 12.1045 15.6455C12.5525 15.0457 12.8127 14.3736 13.1668 12.9427C13.492 11.5986 13.4775 11.6203 13.8967 12.0394ZM4.39375 25.8855L4.4082 32.375H2.78223H1.15625V25.9217C1.15625 22.3662 1.17793 19.4394 1.20684 19.4105C1.23574 19.3888 1.9584 19.3744 2.81113 19.3816L4.37207 19.4033L4.39375 25.8855Z" fill="white"/>
<path d="M27.0708 7.22659C26.6083 7.40725 26.1386 7.86975 25.9362 8.33948C25.7122 8.87425 25.7628 9.68362 26.0591 10.1678C26.9552 11.6131 29.0292 11.4686 29.7229 9.90764C30.1276 8.98264 29.6723 7.76135 28.7329 7.2844C28.3065 7.06038 27.5333 7.0387 27.0708 7.22659ZM28.3065 8.38284C28.6317 8.57796 28.7257 8.78753 28.6968 9.30061C28.6823 9.55354 28.2848 9.95823 27.9958 10.016C27.4827 10.11 26.9552 9.68362 26.9552 9.17053C26.9552 8.41175 27.6778 7.9926 28.3065 8.38284Z" fill="white"/>
<path d="M27.3958 15.8696C27.2802 16.0213 27.2441 16.1659 27.2441 16.5127V16.968L26.9116 17.0475C26.0444 17.2643 25.2351 17.9147 24.8882 18.6662C24.7075 19.0493 24.6786 19.2082 24.6786 19.7285C24.6786 20.2416 24.7075 20.4078 24.8665 20.7475C25.3001 21.6725 26.1601 22.1856 27.8077 22.5108C29.4409 22.836 30.1347 23.3707 30.1347 24.3102C30.1347 25.0907 29.4915 25.6327 28.3714 25.7916C27.0417 25.9795 25.871 25.4159 25.5458 24.4186C25.4085 24.0139 25.2134 23.8477 24.8882 23.8477C24.5558 23.8477 24.3245 24.1512 24.3751 24.5198C24.4329 24.9606 24.7798 25.5532 25.2206 25.9723C25.6759 26.4059 26.1528 26.6733 26.8032 26.8539L27.2441 26.9768V27.4393C27.2441 27.8368 27.273 27.9307 27.4247 28.0752C27.6704 28.3282 28.0462 28.3209 28.2485 28.068C28.3642 27.9162 28.4003 27.7717 28.4003 27.4321V26.984L28.9206 26.8612C29.9251 26.6299 30.6478 26.1385 31.038 25.4303C31.2403 25.069 31.2548 24.9823 31.2548 24.3174C31.2548 23.7248 31.2259 23.5297 31.0958 23.2551C30.8501 22.7203 30.337 22.2217 29.7011 21.9037C29.1808 21.6436 28.8556 21.5496 27.6054 21.2823C26.9116 21.1377 26.3407 20.8487 26.0589 20.5018C25.8566 20.2489 25.8349 20.1694 25.8349 19.7285C25.8349 19.0493 26.0661 18.7096 26.7743 18.3555C27.2224 18.1315 27.338 18.1026 27.8583 18.1026C28.7833 18.1098 29.3542 18.435 29.8818 19.2516C30.0191 19.4684 30.2069 19.6852 30.2864 19.7358C30.5972 19.8948 31.0741 19.6057 31.0741 19.2588C31.0741 18.9698 30.7345 18.37 30.337 17.9436C29.9468 17.5389 29.3614 17.1993 28.7689 17.0475L28.4003 16.9535V16.4766C28.4003 16.0647 28.3786 15.9707 28.2341 15.8407C27.9884 15.6094 27.5909 15.6239 27.3958 15.8696Z" fill="white"/>
</g>
<defs>
<clipPath id="clip0_2830_393">
<path d="M0 0H37V37H8C3.58172 37 0 33.4183 0 29V0Z" fill="white"/>
</clipPath>
</defs>
</svg>
