<svg width="32" height="34" viewBox="0 0 32 34" fill="none" xmlns="http://www.w3.org/2000/svg">
<path d="M6.24959 20.8749C5.97089 21.0822 5.73505 21.3237 5.49768 21.5605C5.36817 21.2064 5.23745 20.8455 5.18279 20.4745C5.03885 19.9836 5.01303 19.4843 4.9841 18.9836C4.89846 18.4822 5.04146 17.9933 5.04988 17.5036C5.07604 17.0142 5.26877 16.5582 5.35306 16.1052C5.42399 15.6447 5.67504 15.254 5.81486 14.8626C5.98114 14.4807 6.0969 14.1091 6.30176 13.8208L6.76895 13.0421L7.17816 12.3551L4.76986 10.384L4.15764 11.1191C3.96357 11.3567 3.72444 11.6434 3.45555 11.9736C3.16336 12.2881 2.92957 12.728 2.64337 13.1837C2.37799 13.6569 2.00734 14.119 1.79193 14.722C1.56472 15.3144 1.2378 15.911 1.07191 16.6014C0.928133 17.2928 0.659676 17.9994 0.638395 18.7588C0.558872 19.5131 0.501087 20.2862 0.582891 21.0564C0.596106 21.8388 0.763996 22.5837 0.913489 23.3326C1.08798 24.063 1.31801 24.7714 1.57094 25.4376C2.09492 26.7603 2.74171 27.9061 3.35721 28.8404C3.98239 29.7693 4.56254 30.4968 5.01675 30.9977C5.2252 31.2387 5.44431 31.4601 5.5967 31.6127L5.78417 31.7995L5.81109 31.7678C6.80597 32.6408 8.02767 33.2142 9.33486 33.4218C10.642 33.6295 11.9813 33.4628 13.1977 32.9411C14.4141 32.4193 15.458 31.5639 16.2085 30.4737C16.9591 29.3835 17.3857 28.1031 17.4389 26.7806C17.4921 25.4581 17.1699 24.1475 16.5094 23.0005C15.8489 21.8535 14.8772 20.9169 13.7066 20.2991C12.5361 19.6813 11.2146 19.4075 9.89492 19.5094C8.57527 19.6113 7.31143 20.0847 6.24959 20.8749ZM19.9972 10.6459C19.7185 10.8533 19.4827 11.0948 19.2453 11.3316C19.1158 10.9775 18.9851 10.6165 18.9304 10.2455C18.7865 9.75458 18.7607 9.25536 18.7317 8.75458C18.6461 8.25326 18.7891 7.76435 18.7975 7.27461C18.8237 6.78525 19.0164 6.32924 19.1007 5.87625C19.1716 5.41572 19.4227 5.02505 19.5625 4.63364C19.7288 4.25168 19.8445 3.88012 20.0494 3.59178L20.5166 2.81311L20.9258 2.12612L18.5175 0.155048L17.9053 0.890171C17.7112 1.12777 17.4721 1.41443 17.2032 1.74459C16.911 2.05908 16.6772 2.49905 16.391 2.9547C16.1278 3.4282 15.755 3.89006 15.5405 4.49429C15.3133 5.08663 14.9864 5.68327 14.8205 6.37367C14.6767 7.0651 14.4082 7.77162 14.386 8.52987C14.3065 9.28416 14.2487 10.0572 14.3305 10.8274C14.3437 11.6098 14.5116 12.3547 14.6611 13.1037C14.8356 13.834 15.0656 14.5424 15.3186 15.2086C15.8426 16.5313 16.4893 17.6772 17.1048 18.6114C17.73 19.5403 18.3102 20.2679 18.7644 20.7687C18.9728 21.0097 19.1919 21.2311 19.3443 21.3838L19.5318 21.5705L19.5587 21.5388C20.5536 22.4118 21.7753 22.9852 23.0825 23.1929C24.3897 23.4005 25.729 23.2338 26.9454 22.7121C28.1618 22.1904 29.2056 21.3349 29.9562 20.2447C30.7067 19.1545 31.1333 17.8741 31.1865 16.5516C31.2398 15.2291 30.9175 13.9185 30.257 12.7715C29.5965 11.6245 28.6248 10.688 27.4543 10.0701C26.2837 9.45233 24.9622 9.17853 23.6426 9.28042C22.3229 9.38231 21.0591 9.85572 19.9972 10.6459Z" fill="#D9D9D9" fill-opacity="0.78"/>
</svg>
