<svg width="30" height="28" viewBox="0 0 30 28" fill="none" xmlns="http://www.w3.org/2000/svg">
<path d="M14.5351 0.895021C14.4296 0.988829 14.2185 1.31716 14.025 1.70411C13.8491 2.06176 13.6967 2.36077 13.6908 2.36663C13.6908 2.36663 13.3801 2.4194 13.0107 2.47216C12.0316 2.61874 11.715 2.81808 11.7092 3.31643C11.7033 3.6389 11.844 3.86169 12.3951 4.39522L12.8876 4.87599L12.7762 5.46228C12.5945 6.40622 12.6355 6.67592 12.9873 6.95148C13.2687 7.17428 13.6088 7.12151 14.3534 6.75214L14.9983 6.42381L15.6608 6.758C16.4113 7.13323 16.6575 7.15669 17.0269 6.87526C17.3494 6.62902 17.3904 6.3945 17.2438 5.56782L17.1207 4.87599L17.6484 4.34245C18.2288 3.75616 18.3637 3.50991 18.2816 3.15227C18.1878 2.72427 17.9239 2.59529 16.7924 2.44285L16.3175 2.37249L15.9716 1.69239C15.5729 0.912611 15.3911 0.742584 14.969 0.742584C14.7872 0.742584 14.67 0.783625 14.5351 0.895021ZM15.2739 2.27869C15.7019 3.14641 15.7839 3.19917 16.7513 3.32816C17.0445 3.36334 17.2907 3.41024 17.2907 3.42783C17.2907 3.44542 17.0679 3.6858 16.7982 3.96722C16.2002 4.57111 16.1826 4.64147 16.3351 5.50919C16.3996 5.8551 16.4289 6.13653 16.4113 6.13653C16.3878 6.13653 16.1181 6.00754 15.8191 5.84338C15.0804 5.45056 14.9397 5.45642 14.1775 5.8551C13.855 6.01927 13.5853 6.14239 13.5736 6.13066C13.5619 6.11894 13.6029 5.83165 13.6615 5.4916C13.8198 4.6356 13.7964 4.57697 13.1808 3.93791L12.6648 3.40438L13.3449 3.31057C13.7964 3.24608 14.0719 3.18158 14.1775 3.10537C14.2596 3.04674 14.4765 2.71255 14.6524 2.36663C14.8283 2.02071 14.9807 1.73929 14.9866 1.73929C14.9983 1.73929 15.1273 1.98554 15.2739 2.27869Z" fill="#0D5FF9"/>
<path d="M8.23284 3.15798C7.97487 3.29869 7.8283 3.49803 7.52342 4.09605C7.34753 4.44783 7.19509 4.72926 7.17751 4.72926C7.04266 4.72926 5.90524 4.92274 5.76452 4.96378C5.3248 5.11035 5.10201 5.62043 5.30135 6.02498C5.35411 6.13637 5.62381 6.45297 5.89937 6.72853L6.39773 7.23861L6.30392 7.7956C6.16321 8.61055 6.17493 8.84507 6.36841 9.07373C6.5443 9.27893 6.82573 9.41964 7.07197 9.41964C7.15992 9.42551 7.52928 9.27307 7.88693 9.09132L8.53186 8.75713L9.16506 9.09132C10.0211 9.5369 10.3963 9.5369 10.707 9.07373C10.8712 8.82748 10.8829 8.50502 10.7481 7.76628L10.6484 7.24448L11.1761 6.70508C11.78 6.08947 11.9031 5.83736 11.78 5.46799C11.6568 5.09862 11.4106 4.96378 10.5722 4.82893L9.83344 4.7058L9.5227 4.08433C9.15333 3.34559 8.90122 3.08762 8.56703 3.08762C8.44977 3.08762 8.29734 3.1228 8.23284 3.15798ZM8.87777 4.74685C9.23542 5.46799 9.34681 5.54421 10.2439 5.66733C10.5722 5.70837 10.8419 5.76114 10.8419 5.78459C10.8419 5.80805 10.6191 6.0367 10.3494 6.30054C9.75136 6.87511 9.72204 6.95133 9.86862 7.83078C9.92139 8.16497 9.9507 8.45225 9.93897 8.46398C9.92725 8.48157 9.65755 8.35844 9.34681 8.19428C8.60221 7.80146 8.48495 7.80146 7.72276 8.19428C7.4003 8.35844 7.12474 8.4757 7.10715 8.46398C7.09542 8.44639 7.12474 8.21187 7.17164 7.94217C7.35339 6.96892 7.30649 6.80475 6.62052 6.20087C6.39773 6.00152 6.21011 5.81391 6.21011 5.79046C6.21011 5.767 6.47395 5.70837 6.79641 5.66733C7.69931 5.55594 7.81657 5.47972 8.19767 4.71753C8.37356 4.37161 8.53186 4.10192 8.54945 4.11951C8.56703 4.13709 8.71947 4.41852 8.87777 4.74685Z" fill="#0D5FF9"/>
<path d="M21.0433 3.27232C20.8908 3.37199 20.7501 3.57134 20.5156 4.03451C20.3397 4.37456 20.1756 4.67358 20.158 4.69117C20.1404 4.70876 19.8414 4.76738 19.4837 4.81429C18.5105 4.96086 18.1704 5.17779 18.1704 5.66442C18.1704 5.94584 18.3228 6.18036 18.8622 6.73148L19.3606 7.24743L19.2668 7.79268C19.0909 8.75421 19.1554 9.14117 19.5189 9.32878C19.8531 9.50467 20.1638 9.44604 20.8498 9.0884L21.483 8.75421L22.1279 9.0884C22.8432 9.45777 23.0601 9.49295 23.3885 9.29361C23.8282 9.02391 23.8868 8.80112 23.7344 7.90994L23.6171 7.22984L24.1096 6.72562C24.7956 6.02793 24.9246 5.72891 24.7018 5.30678C24.5787 5.06053 24.2503 4.93155 23.4588 4.80843L22.7963 4.70876L22.4797 4.08728C22.0986 3.31923 21.9696 3.19024 21.5592 3.15506C21.3071 3.13748 21.2133 3.16093 21.0433 3.27232ZM21.8289 4.72048C22.1221 5.30092 22.1748 5.37127 22.4035 5.47681C22.5442 5.5413 22.9136 5.62338 23.2302 5.66442C23.5409 5.70546 23.7989 5.75237 23.7989 5.77582C23.7989 5.79341 23.5702 6.03379 23.2947 6.31521C22.7025 6.91324 22.6732 7.00118 22.8315 7.86304C22.8843 8.17378 22.9194 8.44347 22.9018 8.4552C22.8843 8.47279 22.6146 8.35553 22.3038 8.19137C21.5592 7.79855 21.442 7.79855 20.6798 8.19137C20.3573 8.35553 20.0817 8.47865 20.07 8.46693C20.0583 8.44934 20.0876 8.22068 20.1345 7.94512C20.2694 7.19466 20.2518 6.95428 20.0583 6.68458C19.9645 6.56146 19.73 6.31521 19.5306 6.14519C19.3313 5.9693 19.1671 5.811 19.1671 5.78754C19.1671 5.76409 19.431 5.70546 19.7534 5.66442C20.6563 5.55302 20.7677 5.47681 21.1605 4.71462C21.3364 4.3687 21.4889 4.08142 21.4947 4.08142C21.5065 4.08142 21.653 4.3687 21.8289 4.72048Z" fill="#0D5FF9"/>
<path d="M26.2894 8.49008C26.1487 8.60734 25.9553 8.90635 25.75 9.32262C25.5742 9.68026 25.4217 9.97928 25.4159 9.98514C25.4159 9.98514 25.1051 10.0379 24.7358 10.0907C23.9853 10.2021 23.6687 10.3311 23.5338 10.589C23.4283 10.7884 23.4166 11.1284 23.5104 11.3102C23.5456 11.3805 23.8094 11.6737 24.0967 11.9668L24.6185 12.4945L24.4895 13.2274C24.3664 13.9368 24.3664 13.9661 24.4719 14.183C24.6009 14.4645 24.853 14.6403 25.1696 14.6755C25.3807 14.699 25.5097 14.6579 26.0784 14.3707L26.7468 14.0365L27.3741 14.3648C27.8783 14.6286 28.0601 14.6931 28.277 14.6931C28.6346 14.6931 28.8574 14.57 28.9806 14.3179C29.0978 14.0658 29.0978 13.8723 28.963 13.0925L28.8574 12.4593L29.2913 12.0665C29.8424 11.5681 30.0359 11.2574 29.9949 10.9349C29.9421 10.5245 29.6958 10.2724 29.2678 10.1786C29.1447 10.1552 28.8223 10.1024 28.5467 10.0614L28.0483 9.99686L27.679 9.26985C27.3975 8.71287 27.2686 8.51353 27.1161 8.42558C26.823 8.24383 26.5416 8.26728 26.2894 8.49008ZM27.5559 10.7239C27.6614 10.8001 27.9311 10.8646 28.3884 10.9291L29.0685 11.0229L28.5526 11.5564C28.2066 11.9141 28.0249 12.1486 28.0014 12.2717C27.9838 12.3714 28.0132 12.7407 28.0718 13.0925C28.1363 13.4384 28.1715 13.7374 28.1597 13.7492C28.1539 13.7609 27.8783 13.6319 27.5559 13.4678C26.7878 13.0749 26.6529 13.0749 25.9259 13.4678C25.6211 13.6319 25.3572 13.7492 25.3396 13.7316C25.3221 13.714 25.3514 13.4091 25.41 13.0573C25.539 12.2365 25.5155 12.1544 24.9116 11.5564C24.6537 11.2984 24.4426 11.0757 24.4426 11.0522C24.4426 11.0346 24.6888 10.9818 24.9879 10.9467C25.9494 10.8177 26.0315 10.7649 26.4653 9.88547L26.7409 9.33435L27.0751 9.97341C27.2568 10.3252 27.4738 10.6652 27.5559 10.7239Z" fill="#0D5FF9"/>
<path d="M2.98671 8.42709C2.72873 8.53262 2.57043 8.73197 2.24797 9.37103C2.07208 9.72281 1.91964 10.0042 1.90205 10.0042C1.89033 10.0042 1.59131 10.0453 1.2454 10.098C0.52425 10.2036 0.219375 10.3443 0.0845257 10.6257C-0.120679 11.0654 0.0376218 11.4583 0.670825 12.0446L1.134 12.4667L1.03433 13.0999C0.911207 13.8621 0.911207 14.0556 1.01674 14.3135C1.134 14.5891 1.35679 14.7181 1.70271 14.7122C1.93137 14.7063 2.10726 14.6419 2.61734 14.3722L3.25054 14.0321L3.89547 14.3663C4.30588 14.5715 4.61662 14.6946 4.73974 14.6946C5.05048 14.6946 5.41985 14.4484 5.53124 14.167C5.61919 13.9383 5.61919 13.8855 5.50779 13.2171L5.38467 12.5019L5.90648 11.9742C6.19963 11.681 6.46346 11.382 6.49864 11.3117C6.6628 10.9892 6.49864 10.5143 6.15272 10.3032C6.04719 10.2446 5.68368 10.1567 5.26741 10.0922L4.55799 9.98665L4.22966 9.30654C3.91892 8.6792 3.87788 8.61471 3.63164 8.49158C3.35021 8.35087 3.21536 8.33915 2.98671 8.42709ZM3.60232 9.99837C3.89547 10.5788 3.9541 10.655 4.17689 10.7547C4.31174 10.8192 4.68111 10.9013 4.99771 10.9423C5.30845 10.9834 5.56642 11.0303 5.56642 11.0478C5.56642 11.0654 5.34363 11.3058 5.07393 11.5872C4.78664 11.8804 4.55799 12.1618 4.53454 12.2615C4.51108 12.3612 4.53454 12.7071 4.59317 13.0706C4.6518 13.4224 4.68111 13.7214 4.66938 13.739C4.6518 13.7507 4.38796 13.6334 4.08309 13.4693C3.35607 13.0764 3.23295 13.0764 2.45317 13.4693C2.12485 13.6276 1.84929 13.7565 1.83756 13.739C1.82583 13.7272 1.85515 13.4986 1.90205 13.223C2.01345 12.6074 2.01345 12.2732 1.90792 12.068C1.86101 11.9801 1.62649 11.7162 1.38025 11.4758C1.134 11.2413 0.940522 11.0361 0.946385 11.0303C0.958111 11.0244 1.26299 10.9775 1.63236 10.9247C2.48835 10.8016 2.57043 10.7371 2.95739 9.95147C3.11569 9.629 3.25054 9.35931 3.26227 9.35931C3.26813 9.35931 3.42057 9.64659 3.60232 9.99837Z" fill="#0D5FF9"/>
<path d="M15.0812 9.76374C14.6532 9.91031 14.3952 10.1272 14.2135 10.4966C14.0728 10.7839 14.0493 10.9187 14.0083 11.6868C13.9614 12.6131 13.85 13.0646 13.5568 13.5805C13.3106 14.0027 12.6305 14.6593 11.751 15.3277C11.2996 15.6678 10.766 16.0899 10.5667 16.2658L10.1973 16.5824V16.0547C10.1973 15.228 10.3615 15.2808 7.72902 15.2808C5.58316 15.2808 5.57144 15.2808 5.44831 15.4098C5.33692 15.5329 5.33105 15.6033 5.33105 17.8898V20.2467L5.4659 20.3699C5.64766 20.5399 5.88804 20.534 6.06393 20.3523L6.2105 20.2116V18.183V16.1602H7.7642H9.31789V21.2024V26.2446H7.7642H6.2105V24.046V21.8415L6.06393 21.7008C5.88218 21.5131 5.63007 21.5073 5.46004 21.689C5.33105 21.8239 5.33105 21.8415 5.33105 24.345V26.8719L5.4659 26.995C5.60075 27.124 5.6242 27.124 7.77006 27.124H9.94523L10.0684 26.9892C10.1739 26.8778 10.1973 26.784 10.1973 26.4908V26.1332L10.4201 26.1625C10.8657 26.227 11.4227 26.4263 11.7276 26.6315C12.4487 27.1182 12.3256 27.0947 14.1607 27.1123L15.8141 27.1299L15.9372 26.9716C16.0955 26.7664 16.0955 26.6433 15.9196 26.4381L15.7789 26.2739L14.2311 26.2446L12.6891 26.2153L12.4077 26.0218C11.8624 25.6407 11.2234 25.4003 10.4201 25.2772L10.1973 25.242V21.5366L10.2032 17.8312L10.3615 17.6436C10.6136 17.3563 11.2116 16.8462 12.0852 16.1837C13.1288 15.3922 13.5861 14.9877 13.9497 14.5245C14.5829 13.733 14.8232 13.0411 14.8819 11.8216C14.917 11.1591 14.9464 10.9363 15.0284 10.8132C15.2336 10.5025 15.7965 10.4556 16.0545 10.7311C16.1893 10.8777 16.3535 11.3761 16.5001 12.1324C16.6349 12.8125 16.6408 12.8184 16.8401 12.9063C17.0629 13.0001 17.3033 12.9297 17.4088 12.7304C17.4968 12.5721 17.4323 12.1265 17.2036 11.2529C17.0336 10.608 16.8987 10.3324 16.6349 10.0803C16.2128 9.66993 15.6616 9.55853 15.0812 9.76374Z" fill="#0D5FF9"/>
<path d="M16.8981 14.0628C16.7339 14.139 16.6811 14.2973 16.5697 15.0184C16.517 15.3409 16.4114 15.8041 16.3294 16.0445C16.2004 16.4138 16.1769 16.5897 16.1769 17.1408C16.1769 18.2079 16.001 18.7414 15.4968 19.2515C15.1685 19.574 14.7405 19.7792 14.1483 19.8788C13.65 19.9668 13.5386 20.0547 13.5386 20.3537C13.5386 20.6586 13.7145 20.7642 14.1659 20.7466C14.8929 20.7231 15.7431 20.3127 16.2356 19.7499C16.7632 19.1577 16.986 18.5714 17.0388 17.6392L17.074 17.0412H17.6778H18.2817L18.1938 17.2464C18.0824 17.5161 18.0883 18.1258 18.2114 18.4835C18.2759 18.6828 18.4107 18.8704 18.6335 19.0932L18.9618 19.4157L18.8153 19.7088C18.6042 20.1251 18.6159 20.6997 18.8329 21.1277C18.9208 21.2977 18.9736 21.4384 18.9443 21.4384C18.9149 21.4384 18.786 21.5322 18.6511 21.6436C17.8479 22.3354 17.9358 23.7543 18.827 24.3347L18.9736 24.4285L18.8446 24.6924C18.6159 25.1321 18.6042 25.5073 18.786 26.1112C18.827 26.2343 18.8153 26.2343 18.0883 26.2578C17.4257 26.2754 17.3378 26.2871 17.2264 26.4043C17.0564 26.5744 17.0622 26.8792 17.2381 27.02C17.3495 27.1196 17.5606 27.1255 19.7768 27.1255H22.1865L22.4796 26.9848C23.318 26.5861 23.705 25.5777 23.3356 24.7393L23.2008 24.4402L23.4763 24.1881C23.7695 23.9184 23.9337 23.6487 24.004 23.3145C24.0802 22.9686 24.0392 22.4996 23.9102 22.1947L23.7812 21.9016L23.9219 21.8019C24.5903 21.3387 24.8366 20.3831 24.4789 19.656C24.391 19.4802 24.2034 19.2281 24.0568 19.1049L23.7988 18.8704L23.9278 18.589C24.0216 18.3838 24.0568 18.1844 24.0568 17.8913C24.0626 17.2053 23.7285 16.6718 23.0777 16.3259C22.8314 16.191 22.808 16.191 20.023 16.1734L17.2205 16.1558L17.2557 16.0269C17.3554 15.6985 17.5254 14.7253 17.5254 14.5142C17.5254 14.3442 17.4844 14.2387 17.3788 14.139C17.2264 13.9807 17.1033 13.9631 16.8981 14.0628ZM22.7376 17.1467C23.318 17.4398 23.3532 18.1844 22.808 18.5479C22.6145 18.6769 22.5734 18.6828 21.0725 18.6828C19.5716 18.6828 19.5306 18.6769 19.3371 18.5479C18.7918 18.1844 18.827 17.4398 19.4074 17.1467C19.5833 17.0529 19.7944 17.0412 21.0725 17.0412C22.3507 17.0412 22.5617 17.0529 22.7376 17.1467ZM23.2946 19.6443C23.8399 19.873 23.9512 20.5707 23.4998 21.0045L23.3239 21.1746L21.7233 21.1921C20.1403 21.2097 20.1286 21.2097 19.9292 21.0749C19.3781 20.7114 19.4192 19.9433 19.9996 19.6619C20.2634 19.5271 22.9897 19.5153 23.2946 19.6443ZM22.5676 22.1185C22.8314 22.1713 23.1363 22.482 23.1832 22.7458C23.2418 23.0449 23.1832 23.2266 22.9487 23.4787L22.7552 23.6956H21.0784H19.4074L19.2315 23.5256C19.0146 23.3145 18.9091 23.0214 18.956 22.7517C19.0029 22.523 19.3312 22.1654 19.5306 22.1244C19.7475 22.0833 22.3624 22.0775 22.5676 22.1185ZM22.0985 24.6982C22.38 24.8096 22.5676 25.0559 22.6086 25.3607C22.6438 25.6304 22.5324 25.8767 22.2686 26.0936L22.081 26.2519L21.0373 26.2343L19.9937 26.2167L19.8178 26.0467C19.3664 25.6128 19.4661 24.962 20.0172 24.7158C20.3396 24.5692 21.7409 24.5575 22.0985 24.6982Z" fill="#0D5FF9"/>
<path d="M7.23642 18.0064C7.09571 18.1412 7.08984 18.1823 7.08984 18.8741C7.08984 19.5542 7.09571 19.607 7.22469 19.7242C7.41817 19.906 7.69373 19.8942 7.84617 19.7008C7.95757 19.5601 7.96929 19.4662 7.96929 18.8448C7.96929 18.1823 7.96343 18.1412 7.82272 18.0064C7.7465 17.9243 7.61165 17.8598 7.52957 17.8598C7.44749 17.8598 7.31264 17.9243 7.23642 18.0064Z" fill="#0D5FF9"/>
</svg>
