<svg width="20" height="20" viewBox="0 0 20 20" fill="none" xmlns="http://www.w3.org/2000/svg">
<path d="M7.53568 0.0439301C5.60661 0.243221 3.82202 1.09509 2.43575 2.47841C1.47512 3.43969 0.826885 4.48695 0.412954 5.74522C-0.137651 7.4177 -0.137651 9.1527 0.412954 10.8252C0.826885 12.0874 1.47902 13.1385 2.44356 14.0959C4.3492 15.9911 6.94603 16.8508 9.62486 16.4718C11.0033 16.2764 12.3857 15.7098 13.4713 14.8931C13.5884 14.8032 13.6939 14.7368 13.7095 14.7407C13.7251 14.7485 14.9083 15.9052 16.3376 17.3119C17.9659 18.9141 18.993 19.8949 19.0867 19.9379C19.4694 20.1176 19.8989 19.891 19.977 19.4689C20.0395 19.1407 20.2582 19.3752 15.9783 15.1471L14.6428 13.8263L14.8693 13.5606C15.8455 12.4312 16.4899 11.001 16.7359 9.43796C16.8296 8.82837 16.8296 7.71077 16.7359 7.09336C16.4586 5.29974 15.6737 3.76012 14.3655 2.45887C12.5692 0.673063 10.0661 -0.213976 7.53568 0.0439301ZM9.40618 1.353C10.9838 1.58355 12.3701 2.2713 13.4674 3.36545C14.8107 4.71359 15.5097 6.38998 15.5097 8.2852C15.5097 8.98467 15.4472 9.46532 15.2832 10.071C14.4553 13.1502 11.6476 15.2799 8.41431 15.2799C6.48914 15.2799 4.70065 14.5492 3.36514 13.2128C2.45918 12.3062 1.8539 11.2589 1.52588 10.0437C1.23691 8.96123 1.23691 7.60917 1.52588 6.52675C2.18192 4.08055 4.12271 2.15407 6.57115 1.52103C7.46149 1.29048 8.55098 1.22404 9.40618 1.353Z" fill="white"/>
</svg>
