<svg width="45" height="43" viewBox="0 0 45 43" fill="none" xmlns="http://www.w3.org/2000/svg">
<path d="M20.5979 1.8541C21.1966 0.0114813 23.8034 0.0114818 24.4021 1.8541L28.2251 13.6201C28.4929 14.4441 29.2608 15.002 30.1272 15.002H42.4987C44.4361 15.002 45.2417 17.4813 43.6743 18.6201L33.6655 25.8918C32.9646 26.4011 32.6712 27.3039 32.939 28.1279L36.762 39.8939C37.3607 41.7365 35.2517 43.2687 33.6843 42.1299L23.6756 34.8582C22.9746 34.3489 22.0254 34.3489 21.3244 34.8582L11.3157 42.1299C9.74827 43.2687 7.63931 41.7365 8.23802 39.8939L12.061 28.1279C12.3288 27.3039 12.0354 26.4011 11.3345 25.8918L1.32574 18.6201C-0.241685 17.4813 0.563866 15.002 2.50131 15.002H14.8728C15.7392 15.002 16.5071 14.4441 16.7749 13.6201L20.5979 1.8541Z" fill="white" fill-opacity="0.14"/>
<path d="M21.5489 2.16312C21.8483 1.24181 23.1517 1.24181 23.4511 2.16312L27.274 13.9291C27.6757 15.1652 28.8275 16.002 30.1272 16.002H42.4987C43.4674 16.002 43.8702 17.2416 43.0865 17.8111L33.0777 25.0828C32.0263 25.8467 31.5863 27.2009 31.9879 28.4369L35.8109 40.2029C36.1103 41.1242 35.0558 41.8903 34.2721 41.3209L24.2634 34.0492C23.2119 33.2852 21.7881 33.2852 20.7366 34.0492L10.7279 41.3209C9.9442 41.8903 8.88972 41.1242 9.18907 40.2029L13.0121 28.4369C13.4137 27.2009 12.9737 25.8467 11.9223 25.0828L1.91353 17.8111C1.12981 17.2416 1.53259 16.002 2.50131 16.002H14.8728C16.1725 16.002 17.3243 15.1652 17.726 13.9291L21.5489 2.16312Z" stroke="white" stroke-opacity="0.13" stroke-width="2"/>
</svg>
