<svg width="31" height="35" viewBox="0 0 31 35" fill="none" xmlns="http://www.w3.org/2000/svg">
<path d="M7.68446 4.16992C3.5829 6.45996 0.178602 8.40137 0.117079 8.4834C-0.0401475 8.6748 -0.0401475 8.90039 0.123915 9.09863C0.192274 9.1875 1.01259 9.61133 2.01747 10.083L3.78798 10.9102L3.80848 11.7441L3.82899 12.5781H3.44618C3.13173 12.5781 3.03602 12.6055 2.8993 12.749L2.72841 12.9131V15.5859V18.2588L2.8993 18.4229C3.06337 18.5938 3.07704 18.5938 4.36903 18.5938C5.66102 18.5938 5.6747 18.5938 5.83876 18.4229L6.00966 18.2588V15.5859V12.9131L5.83876 12.749C5.70204 12.6055 5.60634 12.5781 5.29188 12.5781H4.91591V12.0312C4.91591 11.7305 4.93641 11.4844 4.96376 11.4844C4.99794 11.4844 5.91395 11.9014 7.01454 12.4209C8.98329 13.3369 9.01063 13.3506 9.13368 13.6309C9.20204 13.7812 9.35926 14.041 9.48231 14.1982C9.74208 14.5469 9.76258 14.6973 9.54383 14.6973C9.45497 14.6973 9.22938 14.7793 9.03114 14.875C8.10145 15.3398 7.66395 16.5156 8.01942 17.5684C8.26551 18.2861 9.12001 18.9355 9.81044 18.9355C10.0155 18.9355 10.0429 18.9697 10.2411 19.3867C10.5419 20.0293 10.9794 20.6172 11.5468 21.1367L12.0253 21.5879V22.1484V22.7021L11.8475 22.5654C11.4784 22.2715 11.328 22.3467 10.3915 23.2695C9.53016 24.1104 9.53016 24.1104 9.14735 24.1582C8.1288 24.2676 6.50184 24.9443 5.57216 25.6484C4.08876 26.7695 2.96083 28.4443 2.48915 30.2422C2.24989 31.1377 2.18153 31.8486 2.18153 33.3457C2.18153 34.6582 2.18153 34.665 2.35243 34.8291L2.51649 35H15.3065H28.0966L28.2743 34.8223L28.4452 34.6514L28.411 32.9629C28.3837 31.4727 28.3563 31.1855 28.2059 30.5498C27.8026 28.8613 27.037 27.5146 25.786 26.3115C25.0956 25.6484 24.4325 25.1904 23.6259 24.8145C22.9764 24.5068 22.0194 24.2197 21.4657 24.1582C21.0829 24.1104 21.0829 24.1104 20.2216 23.2695C19.285 22.3467 19.1347 22.2715 18.7655 22.5654L18.5878 22.7021V22.1484V21.5879L19.0663 21.1367C19.6337 20.6172 20.0712 20.0293 20.372 19.3867C20.5702 18.9697 20.5975 18.9355 20.8026 18.9355C21.4931 18.9355 22.3475 18.2861 22.5936 17.5684C22.9491 16.5156 22.5116 15.3398 21.5819 14.875C21.3837 14.7793 21.1581 14.6973 21.0692 14.6973C20.8505 14.6973 20.871 14.5332 21.1102 14.2256C21.2196 14.0889 21.3768 13.8359 21.4589 13.6582L21.6161 13.3438L23.6737 12.3867C24.8085 11.8604 26.7636 10.9443 28.0214 10.3564C29.4091 9.71387 30.3729 9.22168 30.4686 9.11914C30.7626 8.78418 30.6327 8.46973 30.0516 8.14844C29.8602 8.03906 27.3309 6.62402 24.4325 5.01074C21.5409 3.39062 18.3348 1.60645 17.3095 1.03906C16.2909 0.464844 15.3817 0 15.2929 0C15.2108 0.00683594 11.786 1.87988 7.68446 4.16992ZM22.0946 4.95605C25.7997 7.02051 28.8143 8.73633 28.787 8.76367C28.6845 8.85938 21.9852 11.9629 21.9511 11.9287C21.9237 11.9082 21.8895 10.9102 21.869 9.71387L21.8348 7.54004L21.6503 7.30762C21.2948 6.8291 20.3651 6.4668 18.9227 6.22754C14.9647 5.57129 9.86512 6.11816 8.96962 7.29395L8.77821 7.54004L8.74403 9.71387C8.72352 10.9102 8.68934 11.9082 8.66883 11.9287C8.64833 11.9492 7.79384 11.5732 6.76845 11.0947L4.91591 10.2334L4.92958 8.59277L4.95009 6.95215L10.1112 4.06738C12.9481 2.47461 15.2929 1.18262 15.3134 1.18945C15.3339 1.18945 18.3895 2.88477 22.0946 4.95605ZM17.87 7.1709C19.0116 7.30762 20.4061 7.65625 20.6932 7.88184C20.7479 7.92969 20.7753 8.22363 20.7753 8.9209V9.89844L20.2489 9.72754C18.5399 9.1875 14.8212 8.99609 12.3329 9.33105C11.4852 9.44043 10.2001 9.7207 9.96766 9.84375C9.84462 9.91211 9.83778 9.88477 9.83778 8.93457C9.83778 8.22363 9.86512 7.92969 9.92665 7.88184C10.2411 7.62891 11.6151 7.29395 12.8114 7.17773C13.2284 7.14355 13.6864 7.0957 13.8368 7.08203C14.3222 7.03418 17.2343 7.10254 17.87 7.1709ZM3.80848 9.15332L3.78798 9.69336L2.83095 9.25586C2.30458 9.00977 1.85341 8.79102 1.82606 8.76367C1.79872 8.73633 2.22938 8.46289 2.78309 8.15527L3.78798 7.60156L3.80848 8.10059C3.82216 8.38086 3.82216 8.85254 3.80848 9.15332ZM18.1845 10.418C19.7225 10.6299 20.6591 10.9375 20.7821 11.2588C20.9598 11.7168 20.7001 12.8857 20.2831 13.5078L20.1259 13.7471L18.3143 13.7266L16.5028 13.7061L16.038 13.4873C15.2723 13.125 14.664 12.3662 14.5204 11.6006C14.4452 11.2178 14.247 11.0059 13.9667 11.0059C13.6249 11.0059 13.3925 11.2588 13.3925 11.6143C13.3925 12.0586 13.1327 12.6396 12.7636 13.0293C12.3056 13.5146 11.8886 13.6855 11.1024 13.7266L10.4872 13.7539L10.33 13.5078C9.98133 12.9951 9.81727 12.4482 9.81044 11.8125C9.8036 11.3545 9.83094 11.1904 9.91298 11.1084C10.1796 10.835 11.7587 10.4727 13.2557 10.3223C14.1854 10.2334 17.3163 10.2949 18.1845 10.418ZM15.3065 14.3555C16.1132 14.7656 16.2431 14.7861 18.1024 14.8203L19.8319 14.8477L19.7977 16.3242C19.7636 17.917 19.7157 18.1836 19.3534 18.9561C18.786 20.1592 17.6444 21.082 16.3319 21.4033C15.8466 21.5195 14.7665 21.5195 14.2811 21.4033C12.996 21.0889 11.8817 20.2002 11.3007 19.0381C10.8974 18.2246 10.8495 17.958 10.8153 16.3174L10.7811 14.834H11.1298C12.1893 14.834 13.3788 14.2256 13.871 13.4258L14.0009 13.2207L14.5067 13.7129C14.7802 13.9795 15.1425 14.2734 15.3065 14.3555ZM4.91591 15.5859V17.5H4.36903H3.82216V15.5859V13.6719H4.36903H4.91591V15.5859ZM9.71473 16.7959C9.7284 17.3564 9.73524 17.8213 9.7284 17.835C9.68739 17.8828 9.24989 17.5684 9.16102 17.418C9.0038 17.1582 8.94911 16.8027 9.0243 16.5156C9.09266 16.2559 9.47548 15.791 9.61903 15.791C9.66005 15.791 9.70106 16.2012 9.71473 16.7959ZM21.288 16.0166C21.6639 16.3926 21.7323 16.9668 21.452 17.418C21.3632 17.5684 20.9257 17.8828 20.8847 17.835C20.83 17.7598 20.9393 15.791 20.994 15.791C21.035 15.791 21.1649 15.8936 21.288 16.0166ZM14.6776 22.5654C15.4022 22.6543 16.2431 22.5791 16.9608 22.3535C17.2001 22.2783 17.412 22.2168 17.4462 22.2168C17.4735 22.2168 17.494 22.5791 17.494 23.0234V23.8232L16.4003 24.917L15.3065 26.0107L14.2128 24.917L13.119 23.8232V22.9961V22.1758L13.5839 22.3262C13.8368 22.415 14.329 22.5176 14.6776 22.5654ZM13.0165 25.293L14.5204 26.7969L14.0897 27.2207L13.6659 27.6514L12.1483 26.1338L10.6239 24.6094L11.0341 24.1992C11.2597 23.9736 11.4579 23.7891 11.4784 23.7891C11.4989 23.7891 12.1893 24.4658 13.0165 25.293ZM19.579 24.1992L19.9891 24.6094L18.4647 26.1338L16.9472 27.6514L16.5233 27.2207L16.0927 26.7969L17.5966 25.293C18.4237 24.4658 19.1141 23.7891 19.1347 23.7891C19.1552 23.7891 19.3534 23.9736 19.579 24.1992ZM11.5468 27.1045C13.2626 28.8203 13.454 28.9844 13.6591 28.9844C13.8573 28.9844 13.9872 28.8887 14.5956 28.2871L15.3065 27.5898L16.0175 28.2871C16.6259 28.8887 16.7557 28.9844 16.954 28.9844C17.1591 28.9844 17.3505 28.8135 19.0731 27.0977L20.9667 25.2041L21.3495 25.252C22.662 25.4023 24.4052 26.3389 25.3622 27.3984C26.7294 28.916 27.3378 30.625 27.3378 32.9287V33.9062H25.4237H23.5097V32.9834C23.5097 32.0879 23.5028 32.0469 23.3388 31.8896C23.12 31.6641 22.8056 31.6641 22.5868 31.8896C22.4227 32.0469 22.4159 32.0879 22.4159 32.9834V33.9062H15.3065H8.19715V32.9834C8.19715 32.0879 8.19032 32.0469 8.02626 31.8896C7.80751 31.6641 7.49305 31.6641 7.2743 31.8896C7.11024 32.0469 7.10341 32.0879 7.10341 32.9834V33.9062H5.18251H3.25477L3.29579 32.6211C3.32313 31.5479 3.35731 31.2402 3.50087 30.6729C4.22548 27.918 6.24208 25.915 8.91493 25.2998C9.62587 25.1357 9.47548 25.0332 11.5468 27.1045Z" fill="white"/>
</svg>
