<svg width="37" height="37" viewBox="0 0 37 37" fill="none" xmlns="http://www.w3.org/2000/svg">
<g clip-path="url(#clip0_2834_472)">
<path d="M18.8975 0.0795441C13.3981 0.63599 8.59245 3.86626 5.94752 8.78033L5.60065 9.43072H5.13092C4.24205 9.43072 4.14088 9.50298 2.18971 11.4397C-0.00716393 13.6221 0.0361953 13.5499 0.0361953 15.1758C0.0434219 16.3754 0.137367 17.0547 0.484242 18.2471C0.766078 19.2372 1.29362 20.5163 1.45983 20.603C1.6983 20.7258 2.03073 20.6536 2.19694 20.4295L2.3487 20.2272L2.17526 19.7792C1.4237 17.8063 1.17799 16.8307 1.10573 15.5299C1.03346 14.0846 0.975649 14.1858 2.8401 12.3069C3.71452 11.4252 4.54557 10.6448 4.68287 10.5797C5.00807 10.428 5.55729 10.4858 5.8608 10.7026C5.98366 10.7893 6.81471 11.8372 7.7108 13.0295C8.95377 14.6844 9.34401 15.2553 9.34401 15.4143C9.34401 15.5805 9.14166 15.8262 8.18776 16.7874C7.54459 17.4305 6.98815 18.0303 6.93756 18.1243C6.8942 18.2182 6.85807 18.4567 6.85084 18.6518C6.85084 18.9626 6.90143 19.0999 7.19049 19.5696C9.07662 22.6192 12.1262 25.9362 15.2264 28.2704C15.9274 28.8051 17.51 29.8819 17.8424 30.0553C18.052 30.171 18.659 30.171 18.8758 30.0626C18.9698 30.012 19.5696 29.4555 20.2128 28.8124C21.1739 27.8585 21.4196 27.6561 21.5858 27.6561C21.7448 27.6561 22.3157 28.0463 23.9778 29.2965C25.2858 30.2721 26.2253 31.0309 26.3047 31.1682C26.5071 31.4934 26.5577 31.8331 26.4565 32.1799C26.3842 32.4329 26.088 32.7653 24.7294 34.1167C22.8071 36.0317 22.9227 35.9739 21.4702 35.8944C20.0393 35.8149 18.6085 35.4319 16.9174 34.6659C14.2219 33.4446 10.6881 30.937 8.31061 28.545C6.7569 26.984 4.73346 24.3752 3.5194 22.359C3.36764 22.1133 3.20143 21.8893 3.13639 21.8676C2.77506 21.7303 2.38483 21.9833 2.38483 22.359C2.38483 22.8938 4.70455 26.1674 6.58346 28.292C8.8526 30.8575 12.437 33.618 15.6167 35.2512C18.688 36.8266 22.0266 37.4336 23.5225 36.6965C23.6887 36.6098 24.527 35.8366 25.5243 34.8465C27.461 32.9243 27.5549 32.787 27.5622 31.9053L27.5694 31.3995L28.2198 31.0526C32.9243 28.5161 35.9956 24.1512 36.8339 18.8252C36.9856 17.8352 37.0073 15.3059 36.87 14.3448C36.5592 12.1624 35.8366 10.045 34.8104 8.28169C33.936 6.77857 32.8592 5.41998 32.5413 5.41998C32.4546 5.41998 32.2956 5.49947 32.1872 5.58619C31.862 5.86802 31.9126 6.09927 32.4835 6.80025C34.0588 8.72974 35.2006 11.2085 35.6559 13.6872C36.4653 18.052 35.309 22.6192 32.5196 26.1241C31.2622 27.6995 29.3327 29.2821 27.6633 30.1059L27.1069 30.3805L26.7962 30.0915C26.6227 29.9397 26.377 29.7301 26.2397 29.629L26.0012 29.4483L26.7456 29.0725C28.1981 28.3499 29.3905 27.4754 30.5756 26.2614C32.5413 24.2379 33.6903 22.0483 34.3046 19.1721C34.4924 18.3049 34.4997 18.1315 34.4997 16.4766C34.4997 14.8217 34.4924 14.6483 34.3046 13.7667C33.8059 11.4252 32.8592 9.39458 31.4501 7.65298C30.8503 6.91587 29.4989 5.62232 28.769 5.10201C27.0563 3.88072 25.0112 3.0063 22.9444 2.63052C22.0772 2.47154 19.7936 2.41372 18.8758 2.52935C16.2165 2.85455 13.7522 3.89517 11.6854 5.55728C11.3819 5.81021 11.0928 6.07037 11.0567 6.14263C10.9339 6.36666 10.9772 6.61236 11.1506 6.77857C11.4325 7.03872 11.6348 6.98091 12.2997 6.45337C14.2508 4.89966 16.3249 3.98912 18.7169 3.64224C19.8659 3.47603 21.9038 3.53384 23.0094 3.75064C24.7294 4.09752 26.6805 4.93579 28.0319 5.90415C30.9731 8.02154 32.9532 11.3313 33.3868 14.8868C33.4807 15.6745 33.4807 17.2788 33.3868 18.0665C33.1339 20.1116 32.2956 22.2868 31.0887 23.9922C30.4672 24.8739 28.9208 26.4204 28.0391 27.0419C27.3309 27.5405 26.1674 28.1836 25.3942 28.4944L24.9534 28.6678L23.6743 27.7139C22.9733 27.1864 22.294 26.7094 22.1712 26.6588C21.8676 26.536 21.2751 26.5432 20.9426 26.6877C20.7764 26.76 20.2633 27.2225 19.5768 27.9235C18.9698 28.545 18.4278 29.0508 18.3555 29.0508C18.2905 29.0508 17.8641 28.8051 17.4088 28.4944C13.9473 26.1819 10.8399 23.0889 8.54909 19.6563C8.26725 19.2372 8.00709 18.8252 7.96373 18.7458C7.89147 18.6012 7.98541 18.4856 9.04049 17.4522C9.76315 16.7512 10.2473 16.2165 10.3124 16.0575C10.4569 15.7251 10.4641 15.1325 10.3413 14.829C10.2907 14.7061 9.81373 14.0268 9.28619 13.3186L8.32506 12.0395L8.46959 11.671C8.7442 10.9772 9.47409 9.64029 9.93659 8.99712C10.4786 8.24556 10.5364 7.9854 10.2184 7.7397C9.95827 7.53736 9.74147 7.55181 9.50299 7.78306C9.1778 8.11548 8.33952 9.41626 7.93483 10.2329L7.55182 10.9989L7.37116 10.7604C7.26998 10.6231 7.06041 10.3774 6.90866 10.204L6.61959 9.89322L6.8942 9.33677C7.48678 8.13716 8.51295 6.73521 9.61139 5.62955C13.8678 1.35142 20.2489 -0.0505333 25.9217 2.06685C27.2876 2.57271 28.9858 3.53384 30.0626 4.40103C30.3155 4.60337 30.6046 4.79126 30.6985 4.82017C31.0743 4.91412 31.4212 4.54556 31.32 4.15533C31.2405 3.8229 29.5278 2.60162 28.1114 1.85728C26.601 1.06236 24.7294 0.455326 22.9805 0.180717C22.0772 0.0434113 19.8081 -0.0144005 18.8975 0.0795441Z" fill="#0D5FF9"/>
<path d="M13.5499 12.885C12.8995 13.1018 12.502 13.4342 12.2202 14.0051C11.9889 14.4604 11.9962 14.8 12.2419 15.0096C12.3503 15.0963 12.4948 15.1758 12.5671 15.1758C12.7839 15.1758 13.0512 14.9157 13.1452 14.6049C13.2319 14.3086 13.5354 14.0124 13.8606 13.9112C14.3087 13.7739 14.9663 14.1641 15.0964 14.6483C15.2409 15.1614 14.9591 15.6745 13.2247 18.0303C12.7116 18.7313 12.2708 19.36 12.2491 19.4323C12.1768 19.6635 12.343 19.9454 12.6176 20.061C12.8272 20.1477 13.1885 20.1622 14.5399 20.1477C16.1876 20.126 16.202 20.126 16.3393 19.9526C16.52 19.7358 16.5128 19.4323 16.3321 19.2372C16.1876 19.0854 16.1225 19.0782 14.9952 19.0782H13.81L14.7567 17.7557C15.7467 16.3827 16.0719 15.8045 16.1803 15.2264C16.3466 14.3375 15.819 13.362 14.9807 12.9934C14.5688 12.8127 13.9257 12.7622 13.5499 12.885Z" fill="#0D5FF9"/>
<path d="M19.2516 13.0007C18.9697 13.1741 18.7746 13.427 18.2398 14.3448C17.2137 16.1081 16.4043 17.6112 16.4043 17.763C16.4043 17.8569 16.4838 18.0087 16.585 18.1026C16.7584 18.2833 16.7729 18.2833 18.1025 18.2833H19.4395V18.9337C19.4395 19.6202 19.5406 19.9599 19.7646 20.0466C19.9959 20.1333 20.2127 20.0899 20.3645 19.9237C20.4945 19.7864 20.5234 19.6636 20.5379 19.0421L20.5596 18.3267L20.798 18.2761C21.1377 18.211 21.3184 18.0159 21.3184 17.7341C21.3184 17.4378 21.0871 17.1993 20.798 17.1993H20.5957V15.5155C20.5957 14.5978 20.5596 13.7161 20.5234 13.5716C20.4223 13.2175 20.0104 12.8634 19.7068 12.8634C19.5768 12.8634 19.3744 12.9284 19.2516 13.0007ZM19.5117 15.8263V17.1993H18.7168C18.2832 17.1993 17.9219 17.1776 17.9219 17.1487C17.9219 17.0476 19.4178 14.4532 19.4756 14.4532C19.4973 14.4532 19.5117 15.0675 19.5117 15.8263Z" fill="#0D5FF9"/>
<path d="M24.7365 12.9717C24.6281 13.0439 24.1945 14.0629 23.3129 16.2814C22.6119 18.0447 22.041 19.5551 22.041 19.649C22.041 19.8586 22.3518 20.1621 22.5686 20.1621C22.6697 20.1621 22.8143 20.1043 22.8938 20.032C23.0527 19.902 25.582 13.6148 25.582 13.3619C25.582 13.1668 25.2641 12.8633 25.0617 12.8633C24.9678 12.8633 24.8232 12.9139 24.7365 12.9717Z" fill="#0D5FF9"/>
<path d="M26.7746 13.044C26.5578 13.2536 26.5433 13.5065 26.7312 13.7378C26.8685 13.904 26.9046 13.9112 28.2777 13.9473L29.6796 13.9835L28.5017 16.6573C27.7863 18.276 27.3238 19.4251 27.3165 19.5624C27.3165 19.9887 27.8007 20.2489 28.1331 19.996C28.2777 19.8948 31.0744 13.586 31.0744 13.362C31.0744 13.2825 30.9949 13.138 30.8937 13.044L30.7203 12.8634H28.8341H26.948L26.7746 13.044Z" fill="#0D5FF9"/>
</g>
<defs>
<clipPath id="clip0_2834_472">
<rect width="37" height="37" fill="white"/>
</clipPath>
</defs>
</svg>
