<svg width="37" height="37" viewBox="0 0 37 37" fill="none" xmlns="http://www.w3.org/2000/svg">
<g clip-path="url(#clip0_2830_373)">
<path d="M17.4883 0.05056C16.491 0.151733 15.1758 0.541965 14.2364 1.01169C13.6582 1.30075 12.6248 2.00896 12.4153 2.25466C12.2418 2.44978 12.2491 2.7822 12.4297 2.96286C12.6754 3.20857 12.9645 3.15076 13.5498 2.71716C14.6483 1.92224 15.9346 1.38747 17.2715 1.18513C18.1532 1.05505 18.7674 1.05505 19.7141 1.19958C21.5424 1.46697 22.9588 2.16794 24.209 3.41091C24.5053 3.7072 24.8522 4.00349 24.975 4.06853C25.3147 4.24197 25.835 4.86345 26.0735 5.36931C26.442 6.16423 26.5215 6.77849 26.5215 9.00427V10.9988L26.3625 10.9554C26.2686 10.9265 26.059 10.8832 25.9 10.8615L25.5965 10.8254L25.5676 9.83533C25.5459 9.2283 25.4953 8.78025 25.4375 8.6574C25.3436 8.45505 24.8522 8.16599 24.5992 8.16599C24.1801 8.16599 23.5297 7.68181 23.0239 6.98806C22.7782 6.65564 22.4963 6.50388 22.1133 6.50388C21.7592 6.50388 21.658 6.55447 20.9932 7.0531C19.2444 8.35388 17.1487 8.9031 14.7928 8.67908C14.258 8.62849 13.6727 8.60681 13.4992 8.63572C12.5092 8.80193 11.6637 9.54626 11.3819 10.5002C11.3024 10.7748 11.2662 10.8109 11.0133 10.847C10.8616 10.8687 10.6231 10.9121 10.5002 10.941L10.2618 10.9988V9.95818C10.2618 7.8697 10.5653 6.54001 11.353 5.18865C11.5119 4.91404 11.6348 4.61052 11.6348 4.48767C11.6348 4.02517 11.0784 3.80115 10.7459 4.13357C10.493 4.39373 9.86429 5.67283 9.61859 6.44607C9.29339 7.46501 9.17777 8.54177 9.17777 10.4496C9.17777 11.5625 9.14886 12.1261 9.09105 12.2345C9.04769 12.3213 9.00433 12.5886 9.00433 12.8271C9.00433 13.875 9.80648 14.7349 10.9121 14.865C11.2951 14.9084 11.3024 14.9228 11.3819 15.4287C11.4541 15.8912 11.7721 16.8234 12.0106 17.3004C12.5598 18.3988 13.4342 19.3888 14.4532 20.0681L14.959 20.4006V20.8558V21.3111L14.2942 21.7736C13.651 22.2217 13.5209 22.2722 11.2735 23.0527C9.97991 23.5008 8.76585 23.9488 8.56351 24.0572C8.02152 24.3463 7.42894 24.975 7.12542 25.5892C6.88695 26.0734 6.77855 26.5431 6.02699 30.2793C5.27542 34.0371 5.19593 34.4924 5.22484 35.0488C5.26097 35.9738 5.56449 36.4508 6.32328 36.7976L6.6846 36.9638L14.5832 36.9855L22.4746 37L22.6553 36.8265C22.8866 36.5953 22.8866 36.3207 22.6553 36.0967L22.4819 35.916H16.8379H11.2012V33.3578C11.2012 30.8863 11.194 30.7996 11.0494 30.6117C10.8543 30.366 10.5364 30.3588 10.2979 30.6045L10.1172 30.7779V33.3506V35.916L8.58519 35.9088C7.53734 35.9088 6.96644 35.8726 6.793 35.8148C6.45335 35.692 6.27269 35.3668 6.27992 34.8826C6.27992 34.5502 7.76859 26.9767 7.9348 26.4058C8.10824 25.8494 8.52738 25.3219 9.01156 25.0617C9.36566 24.8666 11.6926 24.0211 11.736 24.0717C11.7432 24.0861 12.0539 24.657 12.4225 25.3363C13.0801 26.5504 13.2319 26.7383 13.5571 26.7383C13.7305 26.7383 14.0196 26.3986 14.0196 26.1963C14.0196 26.0951 13.745 25.5025 13.4053 24.8883C13.0657 24.2668 12.791 23.732 12.791 23.7103C12.791 23.6814 12.9645 23.6019 13.1668 23.5369C13.4703 23.4429 13.5643 23.4357 13.6293 23.508C13.6727 23.5513 14.6627 25.358 15.8262 27.5187C17.0692 29.824 18.0158 31.5006 18.117 31.5801C18.3844 31.7896 18.6879 31.7679 18.9264 31.5295C19.0276 31.4138 20.0754 29.5638 21.2389 27.4031C22.4024 25.2496 23.3852 23.4719 23.4141 23.4502C23.4574 23.4213 24.1223 23.6092 24.2018 23.6742C24.2524 23.7176 19.8297 31.8402 19.6201 32.0787C19.042 32.7363 18.0014 32.7508 17.4016 32.1148C17.2932 31.9992 16.7584 31.067 16.202 30.0408C15.6455 29.0146 15.1325 28.1113 15.0674 28.0318C14.7856 27.7283 14.1641 27.974 14.1641 28.4004C14.1641 28.6822 16.3176 32.5629 16.6717 32.9242C17.2932 33.5385 18.276 33.8131 19.1432 33.6035C19.6274 33.4879 20.285 33.047 20.5668 32.6496C20.6897 32.4761 21.7953 30.4888 23.0166 28.2197C24.2379 25.9506 25.2496 24.0861 25.2641 24.0717C25.3074 24.0211 27.6344 24.8666 27.9885 25.0617C28.3498 25.2568 28.7256 25.6543 28.9352 26.0662C29.0653 26.3336 29.4483 28.1185 30.2071 32.0498C30.7924 35.0633 30.8141 35.3885 30.46 35.6703C30.1782 35.8943 30.0119 35.916 28.3571 35.916H26.8828V33.3506V30.7779L26.7022 30.6045C26.4637 30.3588 26.1457 30.366 25.9506 30.6117C25.8061 30.7996 25.7989 30.8863 25.7989 33.3578V35.916H25.2207C24.6932 35.916 24.6209 35.9377 24.4619 36.0967C24.2307 36.3207 24.2307 36.5953 24.4619 36.8265L24.6426 37.0072L27.4826 36.9855C30.2649 36.9638 30.3227 36.9638 30.6768 36.7976C31.4356 36.4508 31.7391 35.9738 31.7752 35.0488C31.8041 34.4924 31.7246 34.0443 30.9731 30.3154C30.5178 28.0463 30.077 26.0156 29.9975 25.7988C29.8096 25.3074 29.3037 24.6498 28.8485 24.3174C28.4004 23.9922 28.0463 23.8476 25.5098 22.9732C23.4864 22.2795 23.3418 22.2144 22.7131 21.7736L22.041 21.3111V20.7836V20.256L22.4602 19.9814C23.378 19.3672 24.2524 18.3627 24.7871 17.2859C25.0545 16.7584 25.3725 15.7611 25.4737 15.1541C25.5098 14.9084 25.5315 14.8867 25.7627 14.8867C26.1385 14.8867 26.76 14.6265 27.1141 14.3158C27.6633 13.8244 27.9307 13.0439 27.7428 12.4658C27.6778 12.2635 27.6344 11.3312 27.6055 9.28611C27.5477 6.0197 27.5332 5.90408 26.9912 4.79841C26.6588 4.12634 26.1096 3.49041 25.5676 3.14353C25.4375 3.05681 25.0834 2.74607 24.7799 2.44978C22.9877 0.700951 20.1694 -0.231274 17.4883 0.05056ZM22.4457 8.01423C22.7926 8.50564 23.4647 8.98259 24.0428 9.1488L24.433 9.26443L24.4114 10.2328L24.3897 11.2084L24.1223 11.3601L23.8477 11.5191L23.6526 11.3312C23.2696 10.9771 23.1612 10.9554 21.7953 10.9265C21.0871 10.9121 20.3356 10.9193 20.126 10.9482C19.6852 10.9988 19.1504 11.3168 19.0203 11.5986C18.9408 11.7648 18.9047 11.7793 18.4133 11.7793C17.893 11.7793 17.8858 11.772 17.7268 11.5263C17.6328 11.389 17.4233 11.2011 17.2571 11.1144C16.968 10.9627 16.8379 10.9482 15.5444 10.9265C13.969 10.8976 13.6221 10.9482 13.203 11.2879L12.9211 11.5047L12.6682 11.3746C12.5309 11.2951 12.3936 11.1939 12.3791 11.1433C12.2996 10.9482 12.5164 10.4568 12.82 10.1605C13.268 9.71247 13.5715 9.64744 14.6844 9.75583C17.1776 10.0088 19.6996 9.3656 21.4991 8.02146C21.817 7.79021 22.0916 7.59509 22.1133 7.59509C22.135 7.59509 22.2867 7.78298 22.4457 8.01423ZM11.2735 12.8705V13.8244L10.9844 13.781C10.3701 13.7015 9.94378 13.1306 10.1172 12.6176C10.2401 12.2418 10.6737 11.9238 11.0784 11.9238H11.2735V12.8705ZM26.283 12.1045C26.5071 12.2562 26.7383 12.632 26.7383 12.8633C26.7383 13.0945 26.5071 13.4703 26.283 13.622C26.1819 13.6871 25.9867 13.7593 25.8422 13.781L25.5821 13.8244V12.8633V11.9021L25.8422 11.9455C25.9867 11.9672 26.1819 12.0394 26.283 12.1045ZM16.7946 12.1117C16.9535 12.2635 16.9608 13.4992 16.809 13.7955C16.6067 14.1857 16.4332 14.2363 15.3565 14.2363C13.9473 14.2363 13.8028 14.1135 13.8028 12.8705C13.8028 12.2562 13.8244 12.1334 13.9328 12.0756C14.0051 12.0322 14.6121 11.9961 15.3709 11.9961C16.4694 11.9961 16.7006 12.0177 16.7946 12.1117ZM22.8432 12.0683C22.966 12.1406 22.9805 12.2273 22.9805 12.9427V13.7449L22.7348 13.9906L22.4891 14.2363H21.5063C20.7836 14.2363 20.4584 14.2074 20.3139 14.1279C19.9959 13.9689 19.8731 13.622 19.8731 12.8922C19.8731 11.9672 19.8225 11.9961 21.4051 11.9961C22.1639 11.9961 22.7565 12.025 22.8432 12.0683ZM12.7188 13.2535C12.726 14.1785 13.0801 14.7855 13.8389 15.1469C14.1713 15.3058 14.2869 15.3203 15.3565 15.3203C16.361 15.3203 16.5561 15.2986 16.8379 15.1685C17.5606 14.8433 17.9942 14.1424 17.9942 13.2969V12.8633H18.3844H18.7674L18.8035 13.3908C18.8614 14.2652 19.2588 14.865 19.9959 15.1902C20.2778 15.3131 20.4584 15.3275 21.5207 15.3058C22.8649 15.2842 23.0455 15.2336 23.508 14.7638C23.9055 14.3664 24.0211 14.0701 24.05 13.333C24.0717 12.8416 24.1006 12.6609 24.1946 12.5886C24.2596 12.5453 24.3319 12.5019 24.368 12.5019C24.3969 12.5019 24.4258 13.0439 24.4258 13.7088C24.4258 14.6699 24.3969 15.0457 24.2813 15.5154C23.8983 17.1125 22.8649 18.5144 21.4629 19.3383C20.0393 20.1765 18.1242 20.3933 16.585 19.8947C14.6483 19.266 13.1741 17.7773 12.6104 15.8623C12.4369 15.2842 12.408 15.0601 12.3791 13.8099L12.3358 12.4152L12.5309 12.5381C12.7116 12.6537 12.7188 12.697 12.7188 13.2535ZM20.9571 21.1088C20.9571 21.3834 20.892 21.4701 19.7575 22.7347C19.0998 23.4646 18.5289 24.0644 18.5 24.0644C18.4711 24.0644 17.9002 23.4646 17.2426 22.7347C16.1658 21.5351 16.043 21.3761 16.043 21.1449C16.043 21.0004 16.0502 20.8847 16.0647 20.8847C16.0719 20.8847 16.3248 20.9498 16.6211 21.0365C17.7268 21.3328 19.5985 21.2822 20.5596 20.9281C20.9643 20.7836 20.9571 20.7763 20.9571 21.1088ZM16.5416 23.573C17.1414 24.2379 17.6328 24.8088 17.6328 24.8449C17.6328 24.9027 16.6211 25.6832 16.2887 25.8855C16.2309 25.9289 15.9491 25.4808 15.3998 24.4619C14.959 23.6453 14.5977 22.9515 14.5977 22.9226C14.6049 22.8576 15.342 22.3301 15.4071 22.3517C15.4287 22.359 15.9418 22.9082 16.5416 23.573ZM22.0049 22.5974C22.2217 22.7492 22.3951 22.8937 22.4024 22.9299C22.4024 22.9588 22.041 23.6453 21.6002 24.4619C21.0438 25.4808 20.7692 25.9289 20.7114 25.8855C20.191 25.5748 19.3672 24.8955 19.3961 24.8088C19.4323 24.7148 21.5424 22.3301 21.593 22.3301C21.6074 22.3301 21.7953 22.4529 22.0049 22.5974ZM18.8035 25.8422C19.1071 26.059 19.1143 26.0734 18.9914 26.3408C18.9192 26.4998 18.8686 26.5215 18.5 26.5215C18.1315 26.5215 18.0809 26.4998 18.0086 26.3408C17.958 26.2396 17.9219 26.124 17.9219 26.0951C17.9219 26.0445 18.4278 25.6543 18.4928 25.6543C18.5145 25.6543 18.6518 25.741 18.8035 25.8422ZM17.1198 26.9334C17.1703 27.0635 17.1776 27.2152 17.1414 27.3525L17.0764 27.5693L16.9174 27.2586C16.7946 27.0129 16.7729 26.9189 16.8451 26.8394C16.968 26.6949 17.0258 26.7166 17.1198 26.9334ZM20.1549 26.8394C20.2199 26.9189 20.2127 26.9984 20.1116 27.2008C20.0465 27.3453 19.967 27.4609 19.9381 27.4609C19.8369 27.4609 19.8008 27.1068 19.8875 26.9261C19.9815 26.7094 20.0393 26.6949 20.1549 26.8394ZM19.0276 28.2703L19.2155 28.8556L18.8758 29.4988C18.6879 29.8457 18.5217 30.1347 18.5 30.1347C18.4783 30.1347 18.3121 29.8457 18.1242 29.4988L17.7846 28.8556L17.9725 28.2703L18.1676 27.6777H18.5H18.8325L19.0276 28.2703Z" fill="#0D5FF9"/>
</g>
<defs>
<clipPath id="clip0_2830_373">
<rect width="37" height="37" fill="white"/>
</clipPath>
</defs>
</svg>
