<?xml version="1.0" encoding="UTF-8"?>
<!DOCTYPE svg PUBLIC "-//W3C//DTD SVG 1.1//EN" "http://www.w3.org/Graphics/SVG/1.1/DTD/svg11.dtd">
<svg xmlns="http://www.w3.org/2000/svg" version="1.1" width="512px" height="512px" style="shape-rendering:geometricPrecision; text-rendering:geometricPrecision; image-rendering:optimizeQuality; fill-rule:evenodd; clip-rule:evenodd" xmlns:xlink="http://www.w3.org/1999/xlink">
<g><path style="opacity:0.966" fill="#000000" d="M 4.5,-0.5 C 54.8333,-0.5 105.167,-0.5 155.5,-0.5C 197.83,62.1521 240.663,124.485 284,186.5C 337.71,124.294 391.21,61.9611 444.5,-0.5C 459.833,-0.5 475.167,-0.5 490.5,-0.5C 428.523,71.8138 366.523,144.147 304.5,216.5C 371.859,314.851 439.192,413.185 506.5,511.5C 456.167,511.5 405.833,511.5 355.5,511.5C 310.554,445.381 265.388,379.381 220,313.5C 163.29,379.372 106.79,445.372 50.5,511.5C 35.1667,511.5 19.8333,511.5 4.5,511.5C 69.3034,435.528 134.303,359.694 199.5,284C 134.619,189.068 69.6194,94.2346 4.5,-0.5 Z M 66.5,34.5 C 88.6703,33.1715 111.004,33.1715 133.5,34.5C 236.797,182.929 340.464,331.096 444.5,479C 422.159,479.833 399.826,479.666 377.5,478.5C 273.811,330.434 170.144,182.434 66.5,34.5 Z"/></g>
</svg>
