<svg width="38" height="38" viewBox="0 0 38 38" fill="none" xmlns="http://www.w3.org/2000/svg">
<path d="M5.71716 0.0481186C5.25102 0.133579 4.73826 0.428802 4.46634 0.778412C4.07789 1.29894 4.03128 1.55532 4.03128 3.38882V5.08247L2.77269 5.11355C1.53741 5.13686 1.49856 5.14463 1.0868 5.36993C0.861497 5.49423 0.574041 5.71954 0.449736 5.86715C-0.0397147 6.46537 -0.00863841 5.56416 0.00689972 19.9758L0.0302069 33.1055L0.201126 33.424C0.410891 33.8125 0.783806 34.1776 1.14895 34.3641C1.4131 34.4962 1.87147 34.5039 8.4441 34.5272L15.4518 34.5428V36.0888C15.4518 37.495 15.4673 37.6504 15.5994 37.8135L15.747 38H20.7348H25.7225L25.8701 37.8135C26.0022 37.6504 26.0177 37.495 26.0177 36.0888V34.5428H28.8767C32.0698 34.5428 32.2252 34.5195 32.7302 34.03C32.8856 33.8824 33.0876 33.6105 33.1886 33.4318C33.3517 33.121 33.3595 32.9967 33.3828 31.2642L33.4061 29.4152H34.6492C35.9777 29.4152 36.1874 29.3686 36.7002 28.9879C36.8478 28.8713 37.0731 28.5684 37.2052 28.3042L37.4383 27.8381L37.4305 14.7394C37.4305 4.91932 37.4072 1.57862 37.3373 1.39217C37.1508 0.88718 36.7701 0.467648 36.304 0.234577L35.8456 0.00927353L20.9678 0.00150681C12.787 -0.00626373 5.92693 0.0170441 5.71716 0.0481186ZM35.9932 1.22125C36.4205 1.55532 36.4283 1.63301 36.4283 4.16573V6.49644H26.849H17.2698L16.0733 5.28447C15.413 4.61633 14.807 4.02588 14.7215 3.96373C14.5894 3.87827 14.0534 3.85496 11.7848 3.85496H9.00348L8.70825 4.11911L8.4208 4.38326L8.39749 5.43985L8.36641 6.49644H6.70383H5.04125V4.16573C5.04125 1.63301 5.04902 1.55532 5.47632 1.22125L5.68609 1.0581H20.7348H35.7834L35.9932 1.22125ZM15.4207 6.07691C16.0733 6.76059 16.6871 7.34327 16.8269 7.39766C17.0367 7.49088 18.8003 7.50642 26.7558 7.50642H36.4283V17.5674C36.4283 28.5528 36.4594 27.8769 35.9932 28.2421C35.7912 28.4052 35.7446 28.4052 30.6481 28.3974C27.0355 28.3974 25.5671 28.3741 25.707 28.312C25.8157 28.2731 26.0177 28.1877 26.1576 28.1255C26.2896 28.0634 26.4761 27.908 26.5693 27.7681C26.8956 27.2398 26.8956 27.2243 24.0055 22.0346C22.545 19.4086 21.2786 17.1944 21.1931 17.1168C20.9523 16.9225 20.4784 16.9458 20.2453 17.1556C20.1365 17.2566 18.8624 19.4863 17.4018 22.12C14.504 27.3486 14.5584 27.2398 14.9313 27.7914C15.0478 27.9701 15.2498 28.11 15.5295 28.2265L15.9568 28.3974L10.8214 28.4052C5.72493 28.4052 5.67832 28.4052 5.47632 28.2421C5.01018 27.8769 5.04125 28.5528 5.04125 17.5674V7.50642H6.78929C9.31424 7.50642 9.33755 7.49088 9.37639 5.90599L9.40747 4.86494H11.8392H14.2709L15.4207 6.07691ZM4.03128 16.9381C4.03128 28.8247 4.0002 28.0867 4.49742 28.716C4.63726 28.8869 4.92472 29.1122 5.1811 29.2365L5.62393 29.454L11.3497 29.4773L17.0755 29.5006L17.1998 29.8969C17.262 30.1222 17.3164 30.3941 17.3164 30.5184C17.3164 30.7359 17.3164 30.7359 16.8036 30.7359C15.7159 30.7359 15.4518 31.1011 15.4518 32.585V33.5328H8.59948C3.26991 33.5328 1.69279 33.5095 1.54517 33.4318C1.44418 33.3774 1.27326 33.2143 1.18003 33.0744L1.00134 32.8103L1.01688 19.7738L1.04019 6.73728L1.27326 6.49644C1.58402 6.17014 1.80932 6.12353 3.00576 6.11576L4.03128 6.10799V16.9381ZM20.1909 20.5429V21.7704L19.919 21.9025C19.0411 22.322 18.9323 23.8525 19.7326 24.4663C20.7969 25.2665 22.2886 24.5517 22.2886 23.2388C22.2886 22.7027 22.0322 22.221 21.6204 21.9647L21.2864 21.7627L21.2786 20.5196C21.2786 19.8359 21.3097 19.3154 21.3407 19.3542C21.3951 19.4164 25.2641 26.393 25.6215 27.0689C25.6992 27.2165 25.6914 27.2476 25.5749 27.2865C24.2075 27.7138 23.1509 29.0811 23.1432 30.4407V30.7359H20.7348H18.3264V30.4407C18.3264 30.06 18.1399 29.3375 17.9301 28.9413C17.5961 28.2809 16.5705 27.403 15.9879 27.2787C15.8558 27.2476 15.7626 27.201 15.7781 27.1699C15.8403 27.0068 20.1365 19.3154 20.1599 19.3154C20.1754 19.3154 20.1909 19.867 20.1909 20.5429ZM21.0766 22.8192C21.3563 23.0368 21.333 23.4641 21.03 23.6894C20.4628 24.1089 19.8413 23.2543 20.3929 22.8192C20.6571 22.6095 20.8125 22.6173 21.0766 22.8192ZM32.3884 31.0855C32.3884 32.9501 32.3573 33.1055 31.8989 33.3774C31.6658 33.525 31.4871 33.5328 28.8379 33.5328H26.0177V32.585C26.0177 31.0933 25.7613 30.7359 24.697 30.7359H24.1298L24.1842 30.3009C24.2075 30.06 24.2852 29.7648 24.3474 29.6405L24.4717 29.4152H28.4261H32.3884V31.0855ZM25.0077 34.3485V36.9512H20.7348H16.4618V36.2287C16.4618 35.8247 16.4851 34.6593 16.5162 33.626L16.5628 31.7459H20.7891H25.0077V34.3485Z" fill="white"/>
<path d="M26.3673 2.44119C25.8779 2.6665 25.4739 3.25695 25.4739 3.73863C25.4739 3.97947 25.6681 4.43784 25.8701 4.67092C26.5305 5.42452 27.7502 5.26913 28.1853 4.38346C28.6281 3.45894 28.0687 2.44119 27.0588 2.33243C26.7791 2.30912 26.5926 2.33243 26.3673 2.44119ZM27.1675 3.43563C27.3695 3.57548 27.3851 3.82409 27.2064 4.02608C26.9112 4.35238 26.3906 4.02608 26.5538 3.59879C26.6703 3.30356 26.8956 3.24141 27.1675 3.43563Z" fill="white"/>
<path d="M29.9646 2.37872C29.1566 2.61956 28.7371 3.62954 29.1178 4.38314C29.2965 4.74052 29.4752 4.90367 29.8481 5.05905C30.524 5.33874 31.3164 5.03574 31.666 4.35983C31.8214 4.06461 31.8214 3.41201 31.666 3.10124C31.3553 2.50303 30.6094 2.1845 29.9646 2.37872ZM30.6327 3.43531C30.9124 3.70723 30.7337 4.16561 30.3608 4.16561C29.9957 4.16561 29.8558 3.64508 30.1511 3.43531C30.3686 3.27993 30.4851 3.27993 30.6327 3.43531Z" fill="white"/>
<path d="M33.2816 2.44867C32.9087 2.61959 32.6678 2.8682 32.5047 3.24889C32.3493 3.6218 32.3571 3.90149 32.5358 4.28217C32.9631 5.23 34.1207 5.46307 34.8354 4.74832C35.5502 4.03356 35.3171 2.87597 34.3693 2.44867C33.973 2.26999 33.6701 2.26999 33.2816 2.44867ZM34.0974 3.46642C34.1828 3.55188 34.2527 3.68396 34.2527 3.75388C34.2527 3.9481 34.0197 4.16564 33.8177 4.16564C33.639 4.16564 33.3981 3.90926 33.3981 3.7228C33.3981 3.58296 33.6856 3.31104 33.8254 3.31104C33.8876 3.31104 34.0119 3.38096 34.0974 3.46642Z" fill="white"/>
<path d="M19.2819 11.2434C19.1499 11.2822 18.9479 11.4221 18.8391 11.5542C18.6604 11.7639 18.6371 11.8649 18.6371 12.3699V12.9448H15.0633C11.8936 12.9448 11.4896 12.9293 11.4896 12.8283C11.4896 12.603 11.1943 12.1213 10.8758 11.8338C9.8736 10.9326 8.24986 11.3133 7.72156 12.5797C7.55065 12.9914 7.57395 13.7528 7.76818 14.1568C7.94687 14.5375 8.43632 15.0114 8.817 15.1668C9.13553 15.2988 9.85029 15.3066 10.2543 15.1823C10.6427 15.0658 11.14 14.6462 11.3419 14.2578L11.4896 13.9548H13.898C15.2265 13.9548 16.3064 13.9703 16.3064 13.9859C16.3064 14.0014 16.0733 14.149 15.7859 14.3044C13.6882 15.462 11.9712 17.5752 11.1866 19.9991L10.9613 20.675L10.3941 20.7139C9.29868 20.7916 9.23653 20.9081 9.23653 22.8581V24.3032L9.53953 24.6062L9.84252 24.9092H11.2876C13.3852 24.9092 13.4474 24.8626 13.494 23.1301C13.5406 21.6617 13.4784 21.2888 13.1599 20.9703C12.9268 20.7372 12.8569 20.7139 12.4685 20.7139H12.0334L12.08 20.4964C12.1111 20.3798 12.2354 20.0224 12.3597 19.7039C13.3075 17.2722 15.3741 15.3066 17.8524 14.4598C18.5827 14.2112 18.6371 14.2189 18.6371 14.4753C18.6371 14.7861 18.7925 15.0502 19.0955 15.2522C19.3441 15.4232 19.4295 15.4309 20.7037 15.4309C21.4417 15.4309 22.1332 15.3998 22.2342 15.361C22.5294 15.2445 22.7547 14.9648 22.8479 14.5919C22.9256 14.2733 22.9412 14.2578 23.1742 14.3122C23.3063 14.3433 23.7336 14.4909 24.1221 14.654C26.0799 15.4387 27.8357 17.0547 28.7835 18.9348C29.0943 19.5563 29.4361 20.4497 29.4361 20.6362C29.4361 20.675 29.2652 20.7139 29.0554 20.7139C28.5815 20.7139 28.2397 20.9703 28.1154 21.3976C28.0066 21.7938 28.0221 23.9458 28.1387 24.2877C28.193 24.4353 28.3484 24.6295 28.496 24.7305C28.7446 24.9014 28.8301 24.9092 30.2285 24.9092H31.6891L31.9844 24.645L32.2718 24.3809L32.2951 22.9358C32.3262 20.9392 32.2097 20.7139 31.0754 20.7139H30.5315L30.3995 20.2633C30.3295 20.0224 30.1509 19.5252 29.9955 19.1601C29.1875 17.2333 27.8978 15.7028 26.1576 14.5841C25.7924 14.3433 25.4195 14.1102 25.3418 14.0558C25.233 13.9859 25.7225 13.9626 27.6259 13.9626C30.0343 13.9548 30.0499 13.9548 30.0965 14.1179C30.1819 14.3899 30.7724 14.9803 31.1064 15.1279C31.3084 15.2212 31.6037 15.2755 31.9222 15.2755C32.8467 15.2755 33.577 14.755 33.8256 13.9237C33.9732 13.4343 33.9732 13.2245 33.8178 12.7195C33.4216 11.3755 31.6425 10.886 30.5937 11.8338C30.2752 12.1213 29.9799 12.603 29.9799 12.8283C29.9799 12.9293 29.5759 12.9448 26.4062 12.9448H22.8324V12.4088C22.8324 11.7717 22.6304 11.4065 22.2109 11.2589C21.8846 11.1502 19.6548 11.1346 19.2819 11.2434ZM21.8302 12.4554C21.8302 12.6185 21.8535 13.1235 21.869 13.5819L21.9079 14.4209H20.7891H19.6704L19.616 13.3643C19.5927 12.7894 19.5849 12.2844 19.6082 12.2378C19.6393 12.199 20.1365 12.1679 20.7425 12.1679H21.8224L21.8302 12.4554ZM10.0989 12.502C10.6583 12.8749 10.6893 13.7839 10.1455 14.1102C9.68714 14.3899 9.019 14.2656 8.73931 13.846C8.66939 13.7373 8.61501 13.5042 8.61501 13.3255C8.61501 12.5175 9.43853 12.0591 10.0989 12.502ZM32.3417 12.4398C32.6758 12.5952 32.8545 12.9293 32.8545 13.3721C32.8545 13.6829 32.8156 13.7761 32.5903 14.0014C32.3573 14.2345 32.2796 14.2656 31.9222 14.2656C31.5648 14.2656 31.4871 14.2345 31.2618 14.0092C30.9278 13.6751 30.8578 13.3954 30.9977 12.9914C31.1919 12.4243 31.7901 12.1835 32.3417 12.4398ZM12.4607 22.7727C12.4918 23.3554 12.5073 23.837 12.4918 23.8526C12.4762 23.8681 11.9635 23.8992 11.3575 23.9225L10.2465 23.9691V23.6739C10.2465 23.5107 10.2232 23.0058 10.1921 22.5552L10.1455 21.7239H11.272H12.4063L12.4607 22.7727ZM31.3007 22.8038V23.8759L30.2363 23.9225C29.6459 23.9458 29.1409 23.9458 29.1098 23.9303C29.0787 23.907 29.0476 23.402 29.0476 22.8038V21.7239H30.1742H31.3007V22.8038Z" fill="white"/>
</svg>
