<svg width="38" height="31" viewBox="0 0 38 31" fill="none" xmlns="http://www.w3.org/2000/svg">
<path d="M2.82787 0.101809C1.49494 0.417461 0.368212 1.55095 0.0883709 2.8566C-0.029457 3.39465 -0.029457 27.5995 0.0883709 28.1376C0.375576 29.4791 1.56122 30.6341 2.93833 30.9139C3.49065 31.0287 34.229 31.0287 34.7813 30.9139C36.1584 30.6341 37.3441 29.4791 37.6313 28.1376C37.7491 27.5995 37.7491 3.39465 37.6313 2.8566C37.3441 1.51508 36.1584 0.360069 34.7813 0.080286C34.5162 0.0228939 32.4248 0.00137329 28.1682 0.00137329H21.9381L21.6877 0.245287C21.3637 0.56094 21.3563 0.840725 21.6509 1.16355L21.8644 1.40029L28.2271 1.43616C34.4941 1.47203 34.5898 1.47203 34.9212 1.62268C35.4073 1.84508 35.7608 2.18225 35.9964 2.64139L36.2026 3.0503L36.2247 11.9962L36.2394 20.9493H18.8598H1.48021L1.49494 11.9962L1.51703 3.0503L1.72323 2.64139C1.95889 2.18225 2.31237 1.84508 2.79841 1.62268C3.1298 1.47203 3.22554 1.47203 9.47042 1.43616C12.9537 1.41464 15.8626 1.3716 15.9362 1.33573C16.0909 1.26399 16.2823 0.926811 16.2823 0.718767C16.2823 0.482027 16.0909 0.180721 15.8773 0.0874596C15.5975 -0.0416718 3.36546 -0.0201492 2.82787 0.101809ZM36.2247 25.1604L36.2026 27.9439L35.9964 28.3528C35.7608 28.8119 35.4073 29.1491 34.9212 29.3715L34.5825 29.5222H18.8598H3.13717L2.71741 29.3213C2.24609 29.0917 1.89997 28.7474 1.67168 28.2739C1.5244 27.9582 1.51703 27.8148 1.49494 25.1604L1.47285 22.3841H18.8598H36.2468L36.2247 25.1604Z" fill="#0D5FF9"/>
<path d="M6.65738 23.9482C5.13298 24.479 4.6764 26.2438 5.75894 27.4347C5.88413 27.5782 6.17134 27.7791 6.39963 27.8867C6.94458 28.1449 7.73992 28.1665 8.26278 27.9297C9.25696 27.4921 9.77982 26.3873 9.47788 25.383C9.13176 24.2208 7.81356 23.5464 6.65738 23.9482ZM7.85775 25.4977C8.04186 25.6699 8.10813 25.8062 8.10813 25.9712C8.10813 26.2654 7.69574 26.6886 7.4159 26.6886C6.64265 26.6886 6.34808 25.713 7.01086 25.3543C7.32016 25.1893 7.58527 25.2323 7.85775 25.4977Z" fill="#0D5FF9"/>
<path d="M13.1235 25.3538C12.6301 25.6192 12.6448 26.3796 13.1529 26.602C13.3002 26.6666 15.5905 26.6881 22.6602 26.6881C30.5767 26.6881 32.0054 26.6738 32.1821 26.5877C32.6682 26.3366 32.6682 25.6048 32.1821 25.3538C31.8876 25.2103 13.396 25.2031 13.1235 25.3538Z" fill="#0D5FF9"/>
<path d="M18.3739 0.245397C18.0352 0.575398 18.0352 0.862356 18.3739 1.19236C18.6391 1.45062 18.8673 1.49366 19.1914 1.35018C19.6995 1.12779 19.7142 0.353006 19.2208 0.101918C18.8894 -0.0630829 18.6464 -0.0200393 18.3739 0.245397Z" fill="#0D5FF9"/>
<path d="M16.518 7.09649C16.0025 7.26867 15.649 7.5628 15.3692 8.03628L15.1409 8.43085L15.1188 11.0278C15.1041 12.642 15.1262 13.7324 15.1704 13.8974C15.3692 14.6148 16.0099 15.1959 16.7758 15.3609C17.4385 15.5044 17.7994 15.3896 19.2501 14.5789C19.9497 14.1844 20.9145 13.6391 21.4005 13.3737C22.7555 12.6133 23.1311 12.1398 23.1311 11.1928C23.1311 10.2315 22.7555 9.77238 21.3269 8.97607C20.7966 8.68194 19.854 8.15106 19.228 7.79237C17.6742 6.91715 17.3133 6.82388 16.518 7.09649ZM19.3311 9.51411C20.4284 10.1239 21.4005 10.6978 21.4962 10.7839C21.6067 10.8843 21.6582 11.0135 21.6582 11.1928C21.6582 11.3722 21.6067 11.5013 21.4962 11.6017C21.2238 11.8456 17.3502 13.9907 17.1808 13.9907C17.0998 13.9907 16.9304 13.9046 16.8052 13.8041L16.5769 13.6176V11.1928V8.76802L16.8052 8.5815C16.9304 8.48107 17.0998 8.39498 17.1808 8.39498C17.2692 8.39498 18.2339 8.89715 19.3311 9.51411Z" fill="#0D5FF9"/>
</svg>
