<?xml version="1.0" encoding="UTF-8"?>
<!DOCTYPE svg PUBLIC "-//W3C//DTD SVG 1.1//EN" "http://www.w3.org/Graphics/SVG/1.1/DTD/svg11.dtd">
<svg xmlns="http://www.w3.org/2000/svg" version="1.1" width="512px" height="512px" style="shape-rendering:geometricPrecision; text-rendering:geometricPrecision; image-rendering:optimizeQuality; fill-rule:evenodd; clip-rule:evenodd" xmlns:xlink="http://www.w3.org/1999/xlink">
<g><path style="opacity:0.959" fill="#000000" d="M 511.5,155.5 C 511.5,222.167 511.5,288.833 511.5,355.5C 504.659,394.003 483.325,421.169 447.5,437C 435.919,441.464 423.919,443.798 411.5,444C 307.5,444.667 203.5,444.667 99.5,444C 56.2057,441.338 25.3724,420.504 7,381.5C 3.85307,372.895 1.35307,364.228 -0.5,355.5C -0.5,288.833 -0.5,222.167 -0.5,155.5C 6.35295,116.96 27.6863,89.7935 63.5,74C 75.0805,69.5143 87.0805,67.181 99.5,67C 203.5,66.3333 307.5,66.3333 411.5,67C 454.769,69.6281 485.603,90.4614 504,129.5C 507.147,138.105 509.647,146.772 511.5,155.5 Z M 97.5,88.5 C 202.834,88.3333 308.167,88.5 413.5,89C 452.326,93.1593 477.159,113.993 488,151.5C 489.026,156.785 489.693,162.118 490,167.5C 490.667,226.167 490.667,284.833 490,343.5C 488.024,372.629 474.857,395.129 450.5,411C 439.01,417.497 426.676,421.163 413.5,422C 308.167,422.667 202.833,422.667 97.5,422C 56.6007,417.101 31.434,394.601 22,354.5C 20.875,321.52 20.375,288.52 20.5,255.5C 20.375,222.48 20.875,189.48 22,156.5C 31.6045,116.389 56.7711,93.7222 97.5,88.5 Z M 208.5,195.5 C 245.942,217.058 283.276,238.891 320.5,261C 283.333,282.833 246.167,304.667 209,326.5C 208.5,282.835 208.333,239.168 208.5,195.5 Z"/></g>
<g><path style="opacity:0.96" fill="#000000" d="M 193.5,165.5 C 198.947,164.826 203.947,165.992 208.5,169C 255.167,196.333 301.833,223.667 348.5,251C 354.116,256.086 354.949,261.919 351,268.5C 303.084,296.541 255.251,324.707 207.5,353C 199.59,358.589 193.09,357.423 188,349.5C 187.333,290.167 187.333,230.833 188,171.5C 189.36,168.977 191.193,166.977 193.5,165.5 Z M 208.5,195.5 C 208.333,239.168 208.5,282.835 209,326.5C 246.167,304.667 283.333,282.833 320.5,261C 283.276,238.891 245.942,217.058 208.5,195.5 Z"/></g>
</svg>
