<svg width="45" height="43" viewBox="0 0 45 43" fill="none" xmlns="http://www.w3.org/2000/svg">
<path d="M20.5979 1.8541C21.1966 0.0114812 23.8034 0.0114817 24.4021 1.8541L28.2251 13.6201C28.4929 14.4441 29.2608 15.002 30.1272 15.002H42.4987C44.4361 15.002 45.2417 17.4813 43.6743 18.6201L33.6655 25.8918C32.9646 26.4011 32.6712 27.3039 32.939 28.1279L36.762 39.8939C37.3607 41.7365 35.2517 43.2687 33.6843 42.1299L23.6756 34.8582C22.9746 34.3489 22.0254 34.3489 21.3244 34.8582L11.3157 42.1299C9.74827 43.2687 7.63931 41.7365 8.23802 39.8939L12.061 28.1279C12.3288 27.3039 12.0354 26.4011 11.3345 25.8918L1.32574 18.6201C-0.241685 17.4813 0.563866 15.002 2.50131 15.002H14.8728C15.7392 15.002 16.5071 14.4441 16.7749 13.6201L20.5979 1.8541Z" fill="white" fill-opacity="0.09"/>
<path d="M23.9266 2.00861L27.7496 13.7746C28.0843 14.8046 29.0442 15.502 30.1272 15.502H42.4987C43.9518 15.502 44.5559 17.3615 43.3804 18.2156L33.3716 25.4873C32.4954 26.1239 32.1288 27.2524 32.4635 28.2824L36.2865 40.0484C36.7355 41.4303 35.1538 42.5795 33.9782 41.7254L23.9695 34.4537C23.0932 33.8171 21.9068 33.8171 21.0305 34.4537L11.0218 41.7254C9.84624 42.5795 8.26452 41.4303 8.71355 40.0484L12.5365 28.2824C12.8712 27.2524 12.5046 26.1239 11.6284 25.4873L1.61964 18.2156C0.444065 17.3615 1.04823 15.502 2.50131 15.502H14.8728C15.9558 15.502 16.9157 14.8046 17.2504 13.7746L21.0734 2.00861C21.5224 0.626645 23.4776 0.626645 23.9266 2.00861Z" stroke="white" stroke-opacity="0.13"/>
</svg>
