<svg width="188" height="188" viewBox="0 0 188 188" fill="none" xmlns="http://www.w3.org/2000/svg">
<mask id="path-1-inside-1_2968_185" fill="white">
<path d="M188 94C188 115.747 180.459 136.822 166.663 153.633C152.867 170.444 133.668 181.951 112.338 186.194C91.009 190.437 68.8682 187.152 49.6887 176.901C30.5092 166.649 15.4777 150.064 7.15533 129.972C-1.16704 109.88 -2.26533 87.5242 4.04761 66.7132C10.3605 45.9023 23.6941 27.9241 41.7764 15.8419C59.8587 3.75965 81.5709 -1.67898 103.214 0.452635C124.856 2.58425 145.09 12.1542 160.468 27.532L94 94H188Z"/>
</mask>
<path d="M188 94C188 115.747 180.459 136.822 166.663 153.633C152.867 170.444 133.668 181.951 112.338 186.194C91.009 190.437 68.8682 187.152 49.6887 176.901C30.5092 166.649 15.4777 150.064 7.15533 129.972C-1.16704 109.88 -2.26533 87.5242 4.04761 66.7132C10.3605 45.9023 23.6941 27.9241 41.7764 15.8419C59.8587 3.75965 81.5709 -1.67898 103.214 0.452635C124.856 2.58425 145.09 12.1542 160.468 27.532L94 94H188Z" stroke="white" stroke-opacity="0.19" stroke-width="8" stroke-dasharray="18 18" mask="url(#path-1-inside-1_2968_185)"/>
</svg>
