<svg width="236" height="409" viewBox="0 0 236 409" fill="none" xmlns="http://www.w3.org/2000/svg">
<path fill-rule="evenodd" clip-rule="evenodd" d="M-89.7549 52.0938C-52.6044 37.2004 -12.368 54.6623 23.0885 71.6594C57.7927 88.2959 92.7122 109.501 104.781 145.35C116.749 180.899 98.6544 217.39 83.9838 252.543C67.611 291.776 57.6427 341.525 16.817 356.127C-24.0782 370.753 -63.4135 338.58 -101.128 318.751C-135.81 300.516 -177.298 285.056 -188.524 248.162C-199.541 211.959 -171.967 177.312 -154.636 142.908C-137.329 108.551 -126.081 66.6565 -89.7549 52.0938Z" stroke="white" stroke-opacity="0.11" stroke-width="2"/>
<path fill-rule="evenodd" clip-rule="evenodd" d="M-55.387 52.63C-19.1896 39.0935 19.5401 57.8968 53.6463 76.0698C87.0286 93.8571 120.555 116.204 131.74 152.338C142.831 188.17 124.788 223.888 110.08 258.394C93.6662 296.903 83.3075 346.114 43.5543 359.231C3.73316 372.371 -33.9159 338.944 -70.1689 317.871C-103.507 298.491 -143.478 281.639 -153.832 244.493C-163.992 208.043 -136.793 174.493 -119.519 140.827C-102.268 107.207 -90.7808 65.8659 -55.387 52.63Z" stroke="white" stroke-opacity="0.11" stroke-width="2"/>
<path fill-rule="evenodd" clip-rule="evenodd" d="M-21.6671 51.6799C14.8058 38.9044 53.1333 58.5145 86.8514 77.3977C119.854 95.8802 152.905 118.924 163.331 155.284C173.669 191.341 154.882 226.674 139.455 260.864C122.238 299.021 110.851 348.003 70.8321 360.285C30.7446 372.588 -6.19621 338.381 -42 316.553C-74.9254 296.48 -114.534 278.794 -124.108 241.439C-133.503 204.785 -105.607 171.812 -87.6315 138.514C-69.6806 105.263 -57.3303 64.1717 -21.6671 51.6799Z" stroke="white" stroke-opacity="0.11" stroke-width="2"/>
<path fill-rule="evenodd" clip-rule="evenodd" d="M-4.92903 45.7056C31.2931 32.2304 70.1734 51.7704 104.418 70.6247C137.936 89.079 171.616 112.186 182.958 149.152C194.205 185.809 176.258 222.081 161.649 257.147C145.344 296.281 135.147 346.389 95.3603 359.403C55.5055 372.441 17.6536 337.992 -18.7532 316.159C-52.2332 296.081 -92.3494 278.52 -102.863 240.529C-113.18 203.251 -86.0497 169.275 -68.8651 135.089C-51.704 100.95 -40.347 58.8818 -4.92903 45.7056Z" stroke="white" stroke-opacity="0.11" stroke-width="2"/>
</svg>
