<svg width="279" height="416" viewBox="0 0 279 416" fill="none" xmlns="http://www.w3.org/2000/svg">
<path fill-rule="evenodd" clip-rule="evenodd" d="M109.755 -38.7978C143.66 -1.81953 120.197 54.4115 128.814 103.42C137.887 155.026 155.928 184.259 128.814 228.5C101.522 273.029 66.3371 283.131 14.1508 290.505C-38.9429 298.008 -98.757 327.937 -140.892 293.956C-182.808 260.153 -159.651 195.035 -169.33 142.535C-179.672 86.4439 -226.459 29.757 -198.67 -19.4162C-169.98 -70.1832 -100.772 -79.1437 -41.9647 -82.8391C12.3662 -86.2533 72.6928 -79.2201 109.755 -38.7978Z" stroke="#0D5FF9" stroke-width="3"/>
<path fill-rule="evenodd" clip-rule="evenodd" d="M135.755 -23.7978C169.66 13.1805 146.197 69.4115 154.814 118.42C163.887 170.026 181.928 199.259 154.814 243.5C127.522 288.029 92.3371 298.131 40.1508 305.505C-12.9429 313.008 -72.757 342.937 -114.892 308.956C-156.808 275.153 -133.651 210.035 -143.33 157.535C-153.672 101.444 -200.459 44.757 -172.67 -4.41623C-143.98 -55.1832 -74.7717 -64.1437 -15.9647 -67.8391C38.3662 -71.2533 98.6928 -64.2201 135.755 -23.7978Z" stroke="#0D5FF9" stroke-width="3"/>
</svg>
