<svg width="164" height="176" viewBox="0 0 164 176" fill="none" xmlns="http://www.w3.org/2000/svg">
<circle cx="89" cy="88" r="74" fill="white"/>
<mask id="path-2-outside-1_2858_367" maskUnits="userSpaceOnUse" x="0" y="0" width="178" height="178" fill="black">
<rect fill="white" width="178" height="178"/>
<path d="M177 89C177 137.601 137.601 177 89 177C40.3989 177 1 137.601 1 89C1 40.3989 40.3989 1 89 1C137.601 1 177 40.3989 177 89ZM26.9958 89C26.9958 123.244 54.756 151.004 89 151.004C123.244 151.004 151.004 123.244 151.004 89C151.004 54.756 123.244 26.9958 89 26.9958C54.756 26.9958 26.9958 54.756 26.9958 89Z"/>
</mask>
<path d="M177 89C177 137.601 137.601 177 89 177C40.3989 177 1 137.601 1 89C1 40.3989 40.3989 1 89 1C137.601 1 177 40.3989 177 89ZM26.9958 89C26.9958 123.244 54.756 151.004 89 151.004C123.244 151.004 151.004 123.244 151.004 89C151.004 54.756 123.244 26.9958 89 26.9958C54.756 26.9958 26.9958 54.756 26.9958 89Z" stroke="#0F2B5A" stroke-width="2" stroke-linecap="square" stroke-linejoin="round" stroke-dasharray="7 7" mask="url(#path-2-outside-1_2858_367)"/>
</svg>
